# 3ds Max Wavefront OBJ Exporter v0.97b - (c)2007 guruware
# File Created: 05.05.2019 16:31:25

mtllib Decimator.mtl

#
# object Box001
#

v  -18.6715 0.0000 15.1128
v  18.6715 0.0000 15.1128
v  -18.6715 0.0000 -40.0251
v  18.6715 0.0000 -40.0251
v  -18.6715 3.8919 15.1128
v  18.6715 3.8919 15.1128
v  -18.6715 3.8919 -40.0251
v  18.6715 3.8919 -40.0251
# 8 vertices

vn 0.0000 -1.0000 -0.0000
vn 0.0000 -1.0000 -0.0000
vn 0.0000 -1.0000 -0.0000
vn 0.0000 -1.0000 -0.0000
vn 0.0000 1.0000 -0.0000
vn 0.0000 1.0000 -0.0000
vn 0.0000 1.0000 -0.0000
vn 0.0000 1.0000 -0.0000
vn 0.0000 0.0000 1.0000
vn 0.0000 0.0000 1.0000
vn 0.0000 0.0000 1.0000
vn 0.0000 0.0000 1.0000
vn 1.0000 0.0000 -0.0000
vn 1.0000 0.0000 -0.0000
vn 1.0000 0.0000 -0.0000
vn 1.0000 0.0000 -0.0000
vn 0.0000 0.0000 -1.0000
vn 0.0000 0.0000 -1.0000
vn 0.0000 0.0000 -1.0000
vn 0.0000 0.0000 -1.0000
vn -1.0000 0.0000 -0.0000
vn -1.0000 0.0000 -0.0000
vn -1.0000 0.0000 -0.0000
vn -1.0000 0.0000 -0.0000
# 24 vertex normals

vt 0.6752 0.0754 0.0000
vt 0.6752 0.9255 0.0000
vt 0.0994 0.9255 0.0000
vt 0.0994 0.0754 0.0000
vt 0.0994 0.0154 0.0000
vt 0.6752 0.0154 0.0000
vt 0.7352 0.0754 0.0000
vt 0.7352 0.9255 0.0000
vt 0.6752 0.9855 0.0000
vt 0.0994 0.9855 0.0000
vt 0.0394 0.9255 0.0000
vt 0.0394 0.0754 0.0000
# 12 texture coords

g Box001
usemtl 01___Default
s 2
f 1/1/1 3/2/2 4/3/3 2/4/4 
s 4
f 5/4/5 6/1/6 8/2/7 7/3/8 
s 8
f 1/5/9 2/6/10 6/1/11 5/4/12 
s 16
f 2/7/13 4/8/14 8/2/15 6/1/16 
s 32
f 4/9/17 3/10/18 7/3/19 8/2/20 
s 64
f 3/11/21 1/12/22 5/4/23 7/3/24 
# 6 polygons

