# 3ds Max Wavefront OBJ Exporter v0.97b - (c)2007 guruware
# File Created: 11.04.2019 16:39:58

mtllib men.mtl

#
# object Box001
#

v  -45.0203 0.0000 1.4836
v  44.4230 0.0000 1.4836
v  -45.0203 0.0000 -1.4852
v  44.4230 0.0000 -1.4852
v  -45.0203 225.8218 1.4836
v  44.4230 225.8218 1.4836
v  -45.0203 225.8218 -1.4852
v  44.4230 225.8218 -1.4852
# 8 vertices

vn 0.0000 -1.0000 -0.0000
vn 0.0000 -1.0000 -0.0000
vn 0.0000 -1.0000 -0.0000
vn 0.0000 -1.0000 -0.0000
vn 0.0000 1.0000 -0.0000
vn 0.0000 1.0000 -0.0000
vn 0.0000 1.0000 -0.0000
vn 0.0000 1.0000 -0.0000
vn 0.0000 0.0000 1.0000
vn 0.0000 0.0000 1.0000
vn 0.0000 0.0000 1.0000
vn 0.0000 0.0000 1.0000
vn 1.0000 0.0000 -0.0000
vn 1.0000 0.0000 -0.0000
vn 1.0000 0.0000 -0.0000
vn 1.0000 0.0000 -0.0000
vn 0.0000 0.0000 -1.0000
vn 0.0000 0.0000 -1.0000
vn 0.0000 0.0000 -1.0000
vn 0.0000 0.0000 -1.0000
vn -1.0000 0.0000 -0.0000
vn -1.0000 0.0000 -0.0000
vn -1.0000 0.0000 -0.0000
vn -1.0000 0.0000 -0.0000
# 24 vertex normals

vt 0.0378 0.0322 0.0000
vt 0.0378 0.0198 0.0000
vt 0.4108 0.0198 0.0000
vt 0.4108 0.0322 0.0000
vt 0.0378 0.9740 0.0000
vt 0.4108 0.9740 0.0000
vt 0.4108 0.9863 0.0000
vt 0.0378 0.9863 0.0000
vt 0.4232 0.0322 0.0000
vt 0.4232 0.9740 0.0000
vt 0.4446 0.0192 0.0000
vt 0.8273 0.0192 0.0000
vt 0.8273 0.9853 0.0000
vt 0.4446 0.9853 0.0000
vt 0.0254 0.0322 0.0000
vt 0.0254 0.9740 0.0000
# 16 texture coords

g Box001
usemtl 01___Default
s 2
f 1/1/1 3/2/2 4/3/3 2/4/4 
s 4
f 5/5/5 6/6/6 8/7/7 7/8/8 
s 8
f 1/1/9 2/4/10 6/6/11 5/5/12 
s 16
f 2/4/13 4/9/14 8/10/15 6/6/16 
s 32
f 4/11/17 3/12/18 7/13/19 8/14/20 
s 64
f 3/15/21 1/1/22 5/5/23 7/16/24 
# 6 polygons

