# 3ds Max Wavefront OBJ Exporter v0.97b - (c)2007 guruware
# File Created: 09.11.2018 16:02:45

mtllib X3650M5_l2.mtl

#
# object X3650M5_l2
#

v  -5.8358 1.3503 8.4242
v  -5.7566 1.8187 8.4242
v  -5.8358 2.2870 8.4242
v  -5.7566 2.8852 8.4242
v  -5.7566 2.8852 7.1090
v  -6.3411 2.8852 7.1090
v  -6.3411 2.8852 8.4242
v  -6.3411 0.2897 7.1090
v  -5.7566 0.2897 7.1090
v  -5.7566 0.2897 8.4242
v  -6.3411 0.2897 8.4242
v  -6.3411 1.8187 8.4242
v  -5.8358 2.5848 8.4242
v  -6.2682 2.2870 8.4242
v  -6.2682 2.5848 8.4242
v  -6.2682 1.3503 8.4242
v  -5.9439 1.3825 8.4242
v  -5.9439 2.2555 8.4242
v  -6.1601 1.3825 8.4242
v  -6.0520 1.3935 8.4242
v  -6.0520 2.2442 8.4242
v  -6.1601 2.2555 8.4242
v  -5.8358 2.5848 8.3298
v  -5.8358 2.2870 8.3298
v  -6.2682 2.5848 8.3298
v  -6.2682 2.2870 8.3298
v  -5.8358 0.7804 8.4242
v  -6.2682 0.7804 8.4242
v  -5.8358 0.7804 8.3298
v  -6.2682 0.7804 8.3298
v  -5.8358 1.3503 8.3298
v  -6.2682 1.3503 8.3298
v  -6.1601 1.3825 8.3298
v  -6.0520 1.3935 8.3298
v  -5.9439 1.3825 8.3298
v  -6.2668 1.1807 8.4784
v  -6.2668 1.1562 8.4647
v  -6.1636 1.1901 8.4647
v  -6.1639 1.2154 8.4784
v  -6.0539 1.2008 8.4647
v  -6.0539 1.2266 8.4784
v  -5.8410 1.1807 8.4784
v  -5.9439 1.2154 8.4784
v  -5.9443 1.1901 8.4647
v  -5.8410 1.1562 8.4647
v  -6.2668 1.1282 8.3633
v  -6.1636 1.1621 8.3633
v  -6.1636 1.1689 8.4113
v  -6.2668 1.1350 8.4113
v  -6.0539 1.1728 8.3633
v  -6.0539 1.1796 8.4113
v  -5.9443 1.1621 8.3633
v  -5.8410 1.1282 8.3633
v  -5.8410 1.1350 8.4113
v  -5.9443 1.1689 8.4113
v  -6.0539 1.2515 8.4647
v  -6.1643 1.2397 8.4647
v  -6.2668 1.2044 8.4647
v  -5.8410 1.2044 8.4647
v  -5.9436 1.2397 8.4647
v  -5.8410 1.2320 8.4125
v  -5.9436 1.2674 8.4125
v  -6.2668 1.2320 8.4125
v  -6.1643 1.2674 8.4125
v  -6.0539 1.2792 8.4125
v  -6.2668 1.4108 8.4125
v  -6.2668 1.4108 8.3633
v  -5.8410 1.4108 8.3633
v  -5.8410 1.4108 8.4125
v  -6.2668 2.2708 8.4784
v  -6.1639 2.2362 8.4784
v  -6.1636 2.2614 8.4647
v  -6.2668 2.2954 8.4647
v  -6.0539 2.2249 8.4784
v  -6.0539 2.2508 8.4647
v  -5.8410 2.2708 8.4784
v  -5.8410 2.2954 8.4647
v  -5.9443 2.2614 8.4647
v  -5.9439 2.2362 8.4784
v  -6.2668 2.3233 8.3633
v  -6.2668 2.3165 8.4113
v  -6.1636 2.2826 8.4113
v  -6.1636 2.2894 8.3633
v  -6.0539 2.2719 8.4113
v  -6.0539 2.2787 8.3633
v  -5.9443 2.2894 8.3633
v  -5.9443 2.2826 8.4113
v  -5.8410 2.3165 8.4113
v  -5.8410 2.3233 8.3633
v  -6.1643 2.2119 8.4647
v  -6.0539 2.2001 8.4647
v  -6.2668 2.2472 8.4647
v  -5.8410 2.2472 8.4647
v  -5.9436 2.2119 8.4647
v  -5.8410 2.2195 8.4125
v  -5.9436 2.1842 8.4125
v  -6.2668 2.2195 8.4125
v  -6.1643 2.1842 8.4125
v  -6.0539 2.1724 8.4125
v  -6.3038 0.7038 8.3664
v  -5.8003 0.7038 8.3664
v  -5.8003 2.6302 8.3664
v  -6.3038 2.6302 8.3664
# 103 vertices

vn 0.0000 -0.0000 1.0000
vn -0.0000 -0.0000 1.0000
vn 0.0000 1.0000 0.0000
vn 0.0000 -1.0000 -0.0000
vn -1.0000 -0.0000 -0.0000
vn -1.0000 0.0000 0.0000
vn 1.0000 -0.0000 -0.0000
vn 1.0000 0.0000 0.0000
vn -1.0000 0.0000 -0.0000
vn 1.0000 0.0000 -0.0000
vn 0.1960 -0.9806 0.0000
vn 0.2858 -0.9583 0.0000
vn -0.0000 -1.0000 -0.0000
vn -0.1960 -0.9806 -0.0000
vn -0.2858 -0.9583 -0.0000
vn 0.0314 -0.0997 0.9945
vn 0.2684 -0.8148 0.5140
vn 0.1673 -0.8034 0.5715
vn -0.0156 0.0320 0.9994
vn -0.0000 -0.8133 0.5819
vn -0.0000 0.0319 0.9995
vn -0.0314 -0.0997 0.9945
vn 0.0156 0.0320 0.9994
vn -0.1673 -0.8034 0.5715
vn -0.2684 -0.8148 0.5140
vn 0.3095 -0.9415 0.1335
vn 0.2051 -0.9691 0.1374
vn 0.1996 -0.9441 0.2623
vn 0.3026 -0.9204 0.2478
vn 0.0000 -0.9901 0.1404
vn 0.0000 -0.9635 0.2676
vn -0.2051 -0.9691 0.1374
vn -0.3095 -0.9415 0.1335
vn -0.3026 -0.9204 0.2478
vn -0.1996 -0.9441 0.2623
vn -0.0000 0.7903 0.6128
vn -0.1745 0.7791 0.6021
vn -0.2537 0.7389 0.6242
vn 0.2537 0.7389 0.6242
vn 0.1745 0.7791 0.6021
vn 0.2910 0.8450 0.4486
vn 0.1852 0.8680 0.4608
vn -1.0000 -0.0000 0.0000
vn -0.1852 0.8680 0.4608
vn -0.2910 0.8450 0.4486
vn -0.0000 0.8832 0.4689
vn 1.0000 -0.0000 0.0000
vn 0.0314 0.0997 0.9945
vn -0.0156 -0.0320 0.9994
vn 0.1673 0.8034 0.5715
vn 0.2684 0.8148 0.5140
vn -0.0000 -0.0319 0.9995
vn -0.0000 0.8133 0.5819
vn -0.0314 0.0997 0.9945
vn -0.2684 0.8148 0.5140
vn -0.1673 0.8034 0.5715
vn 0.0156 -0.0320 0.9994
vn 0.3095 0.9415 0.1335
vn 0.3026 0.9204 0.2478
vn 0.1996 0.9441 0.2623
vn 0.2051 0.9691 0.1374
vn -0.0000 0.9635 0.2676
vn 0.0000 0.9901 0.1404
vn -0.2051 0.9691 0.1374
vn -0.1996 0.9441 0.2623
vn -0.3026 0.9204 0.2478
vn -0.3095 0.9415 0.1335
vn -0.1745 -0.7791 0.6021
vn -0.0000 -0.7903 0.6128
vn -0.2537 -0.7389 0.6242
vn 0.2537 -0.7389 0.6242
vn 0.1745 -0.7791 0.6021
vn 0.2910 -0.8450 0.4486
vn 0.1852 -0.8680 0.4608
vn -0.1852 -0.8680 0.4608
vn -0.2909 -0.8450 0.4486
vn -0.0000 -0.8832 0.4689
# 77 vertex normals

vt 0.5392 0.6623 0.0000
vt 0.5468 0.7072 0.0000
vt 0.5392 0.7521 0.0000
vt 0.3559 0.8257 0.0000
vt 0.3559 0.8366 0.0000
vt 0.3510 0.8366 0.0000
vt 0.3510 0.8257 0.0000
vt 0.3416 0.8257 0.0000
vt 0.3465 0.8257 0.0000
vt 0.3465 0.8366 0.0000
vt 0.3416 0.8366 0.0000
vt 0.2932 0.8424 0.0000
vt 0.3041 0.8336 0.0000
vt 0.3041 0.8424 0.0000
vt 0.3092 0.8424 0.0000
vt 0.3092 0.8336 0.0000
vt 0.3201 0.8424 0.0000
vt 0.5392 0.7807 0.0000
vt 0.5468 0.8095 0.0000
vt 0.4908 0.8095 0.0000
vt 0.4908 0.7072 0.0000
vt 0.4978 0.7521 0.0000
vt 0.4978 0.7807 0.0000
vt 0.4978 0.6623 0.0000
vt 0.5289 0.6654 0.0000
vt 0.5289 0.7491 0.0000
vt 0.5081 0.6654 0.0000
vt 0.5185 0.6665 0.0000
vt 0.5185 0.7480 0.0000
vt 0.5081 0.7491 0.0000
vt 0.5162 0.7563 0.0000
vt 0.5162 0.7734 0.0000
vt 0.5108 0.7734 0.0000
vt 0.5108 0.7563 0.0000
vt 0.5190 0.7775 0.0000
vt 0.5190 0.7527 0.0000
vt 0.5245 0.7527 0.0000
vt 0.5245 0.7775 0.0000
vt 0.5028 0.7734 0.0000
vt 0.5028 0.7563 0.0000
vt 0.5082 0.7563 0.0000
vt 0.5082 0.7734 0.0000
vt 0.4908 0.5607 0.0000
vt 0.5468 0.5607 0.0000
vt 0.5392 0.6077 0.0000
vt 0.4978 0.6077 0.0000
vt 0.5178 0.6249 0.0000
vt 0.5178 0.6498 0.0000
vt 0.5124 0.6498 0.0000
vt 0.5124 0.6249 0.0000
vt 0.5287 0.6534 0.0000
vt 0.5287 0.6207 0.0000
vt 0.5341 0.6207 0.0000
vt 0.5341 0.6534 0.0000
vt 0.2932 0.8208 0.0000
vt 0.3041 0.8208 0.0000
vt 0.3201 0.8208 0.0000
vt 0.3092 0.8208 0.0000
vt 0.5101 0.6435 0.0000
vt 0.5101 0.6499 0.0000
vt 0.5047 0.6499 0.0000
vt 0.5047 0.6435 0.0000
vt 0.5261 0.6207 0.0000
vt 0.5261 0.6534 0.0000
vt 0.5207 0.6534 0.0000
vt 0.5207 0.6207 0.0000
vt 0.5101 0.6374 0.0000
vt 0.5047 0.6374 0.0000
vt 0.5101 0.6312 0.0000
vt 0.5047 0.6312 0.0000
vt 0.5101 0.6248 0.0000
vt 0.5047 0.6248 0.0000
vt 0.6557 0.7557 0.0000
vt 0.6555 0.7538 0.0000
vt 0.6627 0.7550 0.0000
vt 0.6629 0.7570 0.0000
vt 0.6703 0.7554 0.0000
vt 0.6703 0.7574 0.0000
vt 0.6848 0.7557 0.0000
vt 0.6777 0.7570 0.0000
vt 0.6778 0.7550 0.0000
vt 0.6851 0.7539 0.0000
vt 0.6559 0.7467 0.0000
vt 0.6631 0.7478 0.0000
vt 0.6629 0.7511 0.0000
vt 0.6556 0.7500 0.0000
vt 0.6703 0.7482 0.0000
vt 0.6703 0.7515 0.0000
vt 0.6775 0.7478 0.0000
vt 0.6846 0.7468 0.0000
vt 0.6849 0.7500 0.0000
vt 0.6777 0.7511 0.0000
vt 0.6703 0.7593 0.0000
vt 0.6630 0.7589 0.0000
vt 0.6559 0.7575 0.0000
vt 0.6847 0.7576 0.0000
vt 0.6776 0.7589 0.0000
vt 0.6848 0.7616 0.0000
vt 0.6777 0.7629 0.0000
vt 0.6346 0.7573 0.0000
vt 0.6424 0.7538 0.0000
vt 0.6355 0.7589 0.0000
vt 0.6391 0.7543 0.0000
vt 0.6355 0.7557 0.0000
vt 0.6446 0.7538 0.0000
vt 0.6478 0.7542 0.0000
vt 0.6514 0.7557 0.0000
vt 0.6523 0.7573 0.0000
vt 0.6479 0.7608 0.0000
vt 0.6514 0.7589 0.0000
vt 0.6629 0.7629 0.0000
vt 0.6557 0.7615 0.0000
vt 0.6703 0.7633 0.0000
vt 0.6479 0.7728 0.0000
vt 0.6446 0.7728 0.0000
vt 0.6560 0.7639 0.0000
vt 0.6629 0.7663 0.0000
vt 0.6560 0.7760 0.0000
vt 0.6391 0.7608 0.0000
vt 0.6424 0.7728 0.0000
vt 0.6391 0.7728 0.0000
vt 0.6703 0.7671 0.0000
vt 0.6777 0.7663 0.0000
vt 0.6845 0.7639 0.0000
vt 0.6845 0.7760 0.0000
vt -0.3443 0.7557 0.0000
vt -0.3371 0.7570 0.0000
vt -0.3373 0.7550 0.0000
vt -0.3445 0.7538 0.0000
vt -0.3297 0.7574 0.0000
vt -0.3297 0.7554 0.0000
vt -0.3152 0.7557 0.0000
vt -0.3149 0.7539 0.0000
vt -0.3222 0.7550 0.0000
vt -0.3223 0.7570 0.0000
vt -0.3441 0.7467 0.0000
vt -0.3444 0.7500 0.0000
vt -0.3371 0.7511 0.0000
vt -0.3369 0.7478 0.0000
vt -0.3297 0.7515 0.0000
vt -0.3297 0.7482 0.0000
vt -0.3225 0.7478 0.0000
vt -0.3223 0.7511 0.0000
vt -0.3151 0.7500 0.0000
vt -0.3154 0.7468 0.0000
vt -0.3370 0.7589 0.0000
vt -0.3297 0.7593 0.0000
vt -0.3441 0.7575 0.0000
vt -0.3153 0.7576 0.0000
vt -0.3224 0.7589 0.0000
vt -0.3152 0.7616 0.0000
vt -0.3223 0.7629 0.0000
vt -0.3654 0.7573 0.0000
vt -0.3645 0.7589 0.0000
vt -0.3576 0.7538 0.0000
vt -0.3609 0.7543 0.0000
vt -0.3645 0.7557 0.0000
vt -0.3554 0.7538 0.0000
vt -0.3477 0.7573 0.0000
vt -0.3486 0.7557 0.0000
vt -0.3522 0.7542 0.0000
vt -0.3521 0.7608 0.0000
vt -0.3486 0.7589 0.0000
vt -0.3371 0.7629 0.0000
vt -0.3443 0.7615 0.0000
vt -0.3297 0.7633 0.0000
vt -0.3609 0.7608 0.0000
vt 0.9284 0.3454 0.0000
vt 0.9829 0.3454 0.0000
vt 0.9829 0.5540 0.0000
vt 0.9284 0.5540 0.0000
# 171 texture coords

g X3650M5_l2
usemtl lambert3
s off
f 1/1/1 2/2/2 3/3/2 
f 4/4/3 5/5/3 6/6/3 7/7/3 
f 8/8/4 9/9/4 10/10/4 11/11/4 
f 6/12/5 12/13/5 7/14/6 
f 4/15/7 2/16/8 5/17/8 
f 13/18/2 3/3/2 2/2/2 4/19/2 
f 7/20/1 12/21/1 14/22/1 15/23/1 
f 12/21/1 16/24/1 14/22/1 
f 17/25/1 1/1/1 3/3/2 18/26/1 
f 19/27/1 20/28/1 21/29/1 22/30/1 
f 20/28/1 17/25/1 18/26/1 21/29/1 
f 16/24/1 19/27/1 22/30/1 14/22/1 
f 3/31/9 13/32/9 23/33/9 24/34/9 
f 25/35/4 23/36/4 13/37/4 15/38/4 
f 15/39/10 14/40/10 26/41/10 25/42/10 
f 11/43/1 10/44/1 27/45/1 28/46/1 
f 29/47/3 30/48/3 28/49/3 27/50/3 
f 31/51/9 29/52/9 27/53/9 1/54/9 
f 12/13/5 6/12/5 8/55/5 11/56/5 
f 28/46/1 16/24/1 12/21/1 11/43/1 
f 2/2/2 1/1/1 27/45/1 10/44/1 
f 9/57/8 5/17/8 2/16/8 10/58/8 
f 19/59/11 16/60/12 32/61/12 33/62/11 
f 30/63/7 32/64/7 16/65/7 28/66/7 
f 20/67/4 19/59/11 33/62/11 34/68/13 
f 17/69/14 20/67/4 34/68/13 35/70/14 
f 1/71/15 17/69/14 35/70/14 31/72/15 
f 15/23/1 13/18/2 4/19/2 7/20/1 
f 36/73/16 37/74/17 38/75/18 39/76/19 
f 38/75/18 40/77/20 41/78/21 39/76/19 
f 42/79/22 43/80/23 44/81/24 45/82/25 
f 44/81/24 43/80/23 41/78/21 40/77/20 
f 46/83/26 47/84/27 48/85/28 49/86/29 
f 47/84/27 50/87/30 51/88/31 48/85/28 
f 52/89/32 53/90/33 54/91/34 55/92/35 
f 50/87/30 52/89/32 55/92/35 51/88/31 
f 39/76/19 41/78/21 56/93/36 57/94/37 
f 58/95/38 36/73/16 39/76/19 57/94/37 
f 59/96/39 60/97/40 43/80/23 42/79/22 
f 41/78/21 43/80/23 60/97/40 56/93/36 
f 61/98/41 62/99/42 60/97/40 59/96/39 
f 42/100/10 53/101/8 59/102/10 
f 54/103/8 53/101/8 42/100/10 45/104/8 
f 55/92/35 54/91/34 45/82/25 44/81/24 
f 51/88/31 55/92/35 44/81/24 40/77/20 
f 48/85/28 51/88/31 40/77/20 38/75/18 
f 49/86/29 48/85/28 38/75/18 37/74/17 
f 46/105/5 49/106/9 37/107/9 36/108/43 
f 63/109/5 46/105/5 58/110/43 
f 64/111/44 63/112/45 58/95/38 57/94/37 
f 65/113/46 64/111/44 57/94/37 56/93/36 
f 62/99/42 65/113/46 56/93/36 60/97/40 
f 46/105/5 63/109/5 66/114/5 67/115/5 
f 63/116/1 64/117/2 66/118/2 
f 61/119/47 53/101/8 68/120/47 69/121/47 
f 59/102/10 53/101/8 61/119/47 
f 58/110/43 46/105/5 36/108/43 
f 65/122/2 66/118/2 64/117/2 
f 62/123/1 61/124/1 69/125/1 
f 69/125/1 66/118/2 65/122/2 
f 69/125/1 65/122/2 62/123/1 
f 70/126/48 71/127/49 72/128/50 73/129/51 
f 72/128/50 71/127/49 74/130/52 75/131/53 
f 76/132/54 77/133/55 78/134/56 79/135/57 
f 78/134/56 75/131/53 74/130/52 79/135/57 
f 80/136/58 81/137/59 82/138/60 83/139/61 
f 83/139/61 82/138/60 84/140/62 85/141/63 
f 86/142/64 87/143/65 88/144/66 89/145/67 
f 85/141/63 84/140/62 87/143/65 86/142/64 
f 71/127/49 90/146/68 91/147/69 74/130/52 
f 92/148/70 90/146/68 71/127/49 70/126/48 
f 93/149/71 76/132/54 79/135/57 94/150/72 
f 74/130/52 91/147/69 94/150/72 79/135/57 
f 95/151/73 93/149/71 94/150/72 96/152/74 
f 76/153/7 93/154/10 89/155/47 
f 88/156/7 77/157/7 76/153/7 89/155/47 
f 87/143/65 78/134/56 77/133/55 88/144/66 
f 84/140/62 75/131/53 78/134/56 87/143/65 
f 82/138/60 72/128/50 75/131/53 84/140/62 
f 81/137/59 73/129/51 72/128/50 82/138/60 
f 80/158/9 70/159/6 73/160/5 81/161/5 
f 97/162/9 92/163/6 80/158/9 
f 98/164/75 90/146/68 92/148/70 97/165/76 
f 99/166/77 91/147/69 90/146/68 98/164/75 
f 96/152/74 94/150/72 91/147/69 99/166/77 
f 93/154/10 95/167/47 89/155/47 
f 92/163/6 70/159/6 80/158/9 
f 100/168/1 101/169/1 102/170/1 103/171/1 
# 71 polygons - 17 triangles

