# 3ds Max Wavefront OBJ Exporter v0.97b - (c)2007 guruware
# File Created: 09.11.2018 16:02:26

mtllib X3650M5_l1.mtl

#
# object X3650M5_l1
#

v  -7.0358 0.2897 8.5374
v  -7.0358 0.2897 7.1080
v  -7.0358 0.7470 8.4231
v  -7.6203 0.2897 7.1080
v  -7.6203 0.2897 8.5374
v  -7.6203 0.7470 8.4231
v  -7.1867 0.7470 8.3947
v  -7.4678 0.7470 8.3947
v  -7.5051 0.7470 8.4231
v  -7.1436 0.7470 8.4231
v  -7.0358 2.8852 8.4231
v  -7.0358 2.8852 7.1080
v  -7.6203 2.8852 7.1080
v  -7.6203 2.8852 8.4231
v  -7.4678 0.7470 8.3237
v  -7.4678 2.6296 8.3237
v  -7.4678 2.6296 8.3947
v  -7.1867 0.7470 8.3237
v  -7.1867 2.6296 8.3237
v  -7.1867 2.6296 8.3947
v  -7.1436 2.6629 8.4231
v  -7.5051 2.6629 8.4231
v  -7.5846 0.7100 8.3664
v  -7.0811 0.7100 8.3664
v  -7.0811 2.6364 8.3664
v  -7.5846 2.6364 8.3664
v  -7.4970 2.1177 8.3920
v  -7.1313 2.1177 8.3920
v  -7.1313 2.1576 8.3920
v  -7.4970 2.1576 8.3920
v  -7.1313 2.1712 8.3599
v  -7.4970 2.1712 8.3599
v  -7.4970 2.1041 8.3599
v  -7.1313 2.1041 8.3599
v  -7.4970 1.2038 8.3920
v  -7.1313 1.2038 8.3920
v  -7.1313 1.2438 8.3920
v  -7.4970 1.2438 8.3920
v  -7.1313 1.2574 8.3599
v  -7.4970 1.2574 8.3599
v  -7.4970 1.1902 8.3599
v  -7.1313 1.1902 8.3599
# 42 vertices

vn 1.0000 -0.0000 -0.0000
vn -1.0000 0.0000 -0.0000
vn 0.0000 1.0000 0.0000
vn 0.0000 -1.0000 -0.0000
vn 0.0000 0.2425 0.9701
vn 1.0000 0.0000 -0.0000
vn 0.0000 -0.6490 0.7608
vn 0.0000 -0.0000 1.0000
vn -0.5502 -0.0000 0.8350
vn 0.6059 0.0000 0.7956
vn -0.0000 -0.0000 1.0000
vn 0.0000 0.9209 0.3899
vn 0.0000 -0.9209 0.3899
# 13 vertex normals

vt 0.2549 0.8207 0.0000
vt 0.2666 0.8207 0.0000
vt 0.2558 0.8245 0.0000
vt 0.2750 0.8207 0.0000
vt 0.2867 0.8207 0.0000
vt 0.2857 0.8245 0.0000
vt 0.5870 0.7611 0.0000
vt 0.5870 0.7802 0.0000
vt 0.5850 0.7828 0.0000
vt 0.5850 0.7582 0.0000
vt 0.3297 0.8254 0.0000
vt 0.3297 0.8362 0.0000
vt 0.3249 0.8362 0.0000
vt 0.3249 0.8254 0.0000
vt 0.3328 0.8254 0.0000
vt 0.3376 0.8254 0.0000
vt 0.3376 0.8371 0.0000
vt 0.3328 0.8371 0.0000
vt 0.5535 0.5603 0.0000
vt 0.5645 0.6042 0.0000
vt 0.5535 0.6042 0.0000
vt 0.5756 0.6126 0.0000
vt 0.5809 0.6126 0.0000
vt 0.5809 0.7522 0.0000
vt 0.5756 0.7522 0.0000
vt 0.5918 0.7611 0.0000
vt 0.5918 0.7802 0.0000
vt 0.5842 0.7536 0.0000
vt 0.5842 0.6112 0.0000
vt 0.5896 0.6112 0.0000
vt 0.5896 0.7536 0.0000
vt 0.5803 0.7582 0.0000
vt 0.5803 0.7828 0.0000
vt 0.5784 0.7802 0.0000
vt 0.5784 0.7611 0.0000
vt 0.5735 0.7611 0.0000
vt 0.5735 0.7802 0.0000
vt 0.2558 0.8420 0.0000
vt 0.2666 0.8420 0.0000
vt 0.5993 0.7882 0.0000
vt 0.5993 0.6042 0.0000
vt 0.6096 0.6042 0.0000
vt 0.6096 0.8095 0.0000
vt 0.5917 0.6112 0.0000
vt 0.5917 0.7561 0.0000
vt 0.5735 0.6126 0.0000
vt 0.5735 0.7547 0.0000
vt 0.5535 0.8095 0.0000
vt 0.5645 0.7882 0.0000
vt 0.2750 0.8420 0.0000
vt 0.2857 0.8420 0.0000
vt 0.6096 0.5603 0.0000
vt -0.0719 0.3454 0.0000
vt -0.0174 0.3454 0.0000
vt -0.0174 0.5540 0.0000
vt -0.0719 0.5540 0.0000
vt 0.5742 0.8459 0.0000
vt 0.5742 0.8162 0.0000
vt 0.5774 0.8162 0.0000
vt 0.5774 0.8459 0.0000
vt 0.5803 0.8162 0.0000
vt 0.5803 0.8459 0.0000
vt 0.5714 0.8459 0.0000
vt 0.5714 0.8162 0.0000
vt -0.4258 0.8459 0.0000
vt -0.4258 0.8162 0.0000
vt -0.4226 0.8162 0.0000
vt -0.4226 0.8459 0.0000
vt -0.4197 0.8162 0.0000
vt -0.4197 0.8459 0.0000
vt -0.4286 0.8459 0.0000
vt -0.4286 0.8162 0.0000
# 72 texture coords

g X3650M5_l1
usemtl lambert3
s off
f 1/1/1 2/2/1 3/3/1 
f 4/4/2 5/5/2 6/6/2 
f 7/7/3 8/8/3 9/9/3 10/10/3 
f 11/11/3 12/12/3 13/13/3 14/14/3 
f 4/15/4 2/16/4 1/17/4 5/18/4 
f 5/19/5 9/20/5 6/21/5 
f 8/22/6 15/23/6 16/24/6 17/25/6 
f 8/8/3 7/7/3 18/26/3 15/27/3 
f 19/28/2 18/29/2 7/30/2 20/31/2 
f 21/32/7 22/33/7 17/34/7 20/35/7 
f 19/36/4 20/35/4 17/34/4 16/37/4 
f 11/38/6 3/3/1 2/2/1 12/39/6 
f 21/40/8 10/41/8 3/42/8 11/43/8 
f 20/31/9 7/30/9 10/44/9 21/45/9 
f 9/46/10 8/22/10 17/25/10 22/47/10 
f 14/48/11 6/21/11 9/20/11 22/49/11 
f 13/50/2 4/4/2 6/6/2 14/51/2 
f 1/52/5 10/41/5 9/20/5 5/19/5 
f 1/52/5 3/42/5 10/41/5 
f 22/49/11 21/40/8 11/43/8 14/48/11 
f 23/53/8 24/54/8 25/55/8 26/56/8 
f 27/57/8 28/58/8 29/59/8 30/60/8 
f 30/60/12 29/59/12 31/61/12 32/62/12 
f 33/63/13 34/64/13 28/58/13 27/57/13 
f 35/65/8 36/66/8 37/67/8 38/68/8 
f 38/68/12 37/67/12 39/69/12 40/70/12 
f 41/71/13 42/72/13 36/66/13 35/65/13 
# 23 polygons - 4 triangles

