# 3ds Max Wavefront OBJ Exporter v0.97b - (c)2007 guruware
# File Created: 09.11.2018 16:02:59

mtllib X3650M5_l3.mtl

#
# object X3650M5_l3
#

v  0.0470 0.2897 8.4292
v  -1.5752 0.7678 8.4292
v  -2.3788 0.7678 8.4292
v  -2.4838 0.2897 8.4292
v  0.0470 2.8852 8.4292
v  0.0470 2.8852 7.1140
v  -2.4838 2.8852 7.1140
v  -2.4838 2.8852 8.4292
v  -2.4838 0.2897 7.1140
v  0.0470 0.2897 7.1140
v  0.0470 1.7953 8.4292
v  -2.4838 1.7953 8.4292
v  -1.5752 2.5909 8.4292
v  -1.5752 2.2447 8.4292
v  -2.3788 1.3459 8.4292
v  -2.3788 2.2447 8.4292
v  -2.1779 1.3806 8.4292
v  -2.1779 2.2100 8.4292
v  -1.5752 1.3459 8.4292
v  -1.9770 2.1975 8.4292
v  -1.9770 1.3967 8.4292
v  -1.7761 1.3806 8.4292
v  -1.7761 2.2100 8.4292
v  -1.5752 0.7678 8.3160
v  -2.3788 0.7678 8.3160
v  -2.3788 1.3459 8.3160
v  -2.1779 1.3806 8.3160
v  -1.9770 1.3967 8.3160
v  -1.7761 1.3806 8.3160
v  -1.5752 1.3459 8.3160
v  -2.3788 2.5909 8.4292
v  -2.3788 2.2447 8.3160
v  -2.3788 2.5909 8.3160
v  -1.5752 2.5909 8.3160
v  -1.5752 2.2447 8.3160
v  -1.5530 2.6370 8.3350
v  -2.4122 2.6370 8.3350
v  -2.4122 0.7335 8.3350
v  -1.5530 0.7335 8.3350
v  -2.3762 1.1807 8.4784
v  -2.3762 1.1562 8.4647
v  -2.1830 1.1901 8.4647
v  -2.1836 1.2154 8.4784
v  -1.9777 1.2008 8.4647
v  -1.9777 1.2266 8.4784
v  -1.5792 1.1807 8.4784
v  -1.7718 1.2154 8.4784
v  -1.7725 1.1901 8.4647
v  -1.5792 1.1562 8.4647
v  -2.3762 1.1282 8.3633
v  -2.1830 1.1621 8.3633
v  -2.1830 1.1689 8.4113
v  -2.3762 1.1350 8.4113
v  -1.9777 1.1728 8.3633
v  -1.9777 1.1796 8.4113
v  -1.7725 1.1621 8.3633
v  -1.5792 1.1282 8.3633
v  -1.5792 1.1350 8.4113
v  -1.7725 1.1689 8.4113
v  -1.9777 1.2515 8.4647
v  -2.1843 1.2397 8.4647
v  -2.3762 1.2044 8.4647
v  -1.5792 1.2044 8.4647
v  -1.7711 1.2397 8.4647
v  -1.5792 1.2320 8.4125
v  -1.7711 1.2674 8.4125
v  -2.3762 1.2320 8.4125
v  -2.1843 1.2674 8.4125
v  -1.9777 1.2792 8.4125
v  -2.3762 1.4108 8.4125
v  -2.3762 1.4108 8.3633
v  -1.5792 1.4108 8.3633
v  -1.5792 1.4108 8.4125
v  -2.3797 2.2597 8.4784
v  -2.1850 2.2251 8.4784
v  -2.1844 2.2503 8.4647
v  -2.3797 2.2843 8.4647
v  -1.9770 2.2138 8.4784
v  -1.9770 2.2397 8.4647
v  -1.5742 2.2597 8.4784
v  -1.5742 2.2843 8.4647
v  -1.7695 2.2503 8.4647
v  -1.7689 2.2251 8.4784
v  -2.3797 2.3122 8.3633
v  -2.3797 2.3054 8.4113
v  -2.1844 2.2715 8.4113
v  -2.1844 2.2783 8.3633
v  -1.9770 2.2608 8.4113
v  -1.9770 2.2676 8.3633
v  -1.7695 2.2783 8.3633
v  -1.7695 2.2715 8.4113
v  -1.5742 2.3054 8.4113
v  -1.5742 2.3122 8.3633
v  -2.1857 2.2008 8.4647
v  -1.9770 2.1890 8.4647
v  -2.3797 2.2361 8.4647
v  -1.5742 2.2361 8.4647
v  -1.7682 2.2008 8.4647
v  -1.5742 2.2084 8.4125
v  -1.7682 2.1731 8.4125
v  -2.3797 2.2084 8.4125
v  -2.1857 2.1731 8.4125
v  -1.9770 2.1613 8.4125
# 103 vertices

vn 0.0000 -0.0000 1.0000
vn -0.0000 -0.0000 1.0000
vn 0.0000 1.0000 0.0000
vn 0.0000 -1.0000 -0.0000
vn 1.0000 -0.0000 0.0000
vn -1.0000 0.0000 -0.0000
vn 1.0000 0.0000 -0.0000
vn -0.0000 1.0000 0.0000
vn 0.1255 -0.9921 -0.0000
vn 0.1701 -0.9854 -0.0000
vn 1.0000 -0.0000 -0.0000
vn -0.1255 -0.9921 0.0000
vn -0.0000 -1.0000 -0.0000
vn -1.0000 -0.0000 0.0000
vn -0.1701 -0.9854 0.0000
vn 0.0088 -0.0556 0.9984
vn 0.1456 -0.8272 0.5426
vn 0.0909 -0.8147 0.5727
vn -0.0047 0.0180 0.9998
vn 0.0000 -0.8166 0.5772
vn -0.0000 0.0175 0.9998
vn -0.0088 -0.0556 0.9984
vn 0.0047 0.0180 0.9998
vn -0.0909 -0.8147 0.5727
vn -0.1456 -0.8272 0.5426
vn 0.1713 -0.9755 0.1383
vn 0.1108 -0.9840 0.1395
vn 0.1078 -0.9581 0.2654
vn 0.1671 -0.9513 0.2590
vn -0.0000 -0.9901 0.1404
vn -0.0000 -0.9637 0.2668
vn -0.1108 -0.9840 0.1395
vn -0.1713 -0.9755 0.1383
vn -0.1671 -0.9513 0.2590
vn -0.1078 -0.9581 0.2654
vn -0.0000 0.7870 0.6170
vn -0.0934 0.7850 0.6125
vn -0.1406 0.7664 0.6268
vn 0.1406 0.7664 0.6268
vn 0.0934 0.7850 0.6125
vn 0.1604 0.8718 0.4629
vn 0.1019 0.8786 0.4665
vn 1.0000 0.0000 0.0000
vn -1.0000 -0.0000 -0.0000
vn -0.1019 0.8786 0.4665
vn -0.1604 0.8718 0.4629
vn -0.0000 0.8832 0.4689
vn 0.0086 0.0550 0.9984
vn -0.0046 -0.0178 0.9998
vn 0.0900 0.8148 0.5727
vn 0.1441 0.8273 0.5430
vn -0.0000 -0.0173 0.9998
vn 0.0000 0.8166 0.5772
vn -0.0086 0.0550 0.9984
vn -0.1441 0.8273 0.5430
vn -0.0900 0.8148 0.5727
vn 0.0046 -0.0178 0.9998
vn 0.1696 0.9758 0.1383
vn 0.1654 0.9516 0.2591
vn 0.1067 0.9582 0.2654
vn 0.1096 0.9841 0.1395
vn 0.0000 0.9637 0.2668
vn 0.0000 0.9901 0.1404
vn -0.1096 0.9841 0.1395
vn -0.1067 0.9582 0.2654
vn -0.1654 0.9516 0.2591
vn -0.1696 0.9758 0.1383
vn -0.0924 -0.7850 0.6126
vn -0.0000 -0.7869 0.6171
vn -0.1392 -0.7667 0.6268
vn 0.1392 -0.7667 0.6268
vn 0.0924 -0.7850 0.6126
vn 0.1587 -0.8720 0.4630
vn 0.1008 -0.8787 0.4665
vn -1.0000 0.0000 0.0000
vn -0.1008 -0.8787 0.4665
vn -0.1587 -0.8720 0.4630
vn -0.0000 -0.8832 0.4689
# 78 vertex normals

vt 0.8598 0.5588 0.0000
vt 0.7040 0.6047 0.0000
vt 0.6268 0.6047 0.0000
vt 0.6167 0.5588 0.0000
vt 0.1824 0.8186 0.0000
vt 0.1964 0.8186 0.0000
vt 0.1964 0.8457 0.0000
vt 0.1824 0.8457 0.0000
vt 0.1583 0.8457 0.0000
vt 0.1583 0.8186 0.0000
vt 0.1724 0.8186 0.0000
vt 0.1724 0.8457 0.0000
vt 0.2313 0.8179 0.0000
vt 0.2454 0.8179 0.0000
vt 0.2454 0.8457 0.0000
vt 0.2313 0.8340 0.0000
vt 0.2064 0.8457 0.0000
vt 0.2064 0.8179 0.0000
vt 0.2205 0.8179 0.0000
vt 0.2205 0.8340 0.0000
vt 0.2313 0.8457 0.0000
vt 0.8598 0.8082 0.0000
vt 0.7040 0.7799 0.0000
vt 0.7040 0.7466 0.0000
vt 0.8598 0.7034 0.0000
vt 0.2205 0.8457 0.0000
vt 0.6167 0.7034 0.0000
vt 0.6268 0.6603 0.0000
vt 0.6268 0.7466 0.0000
vt 0.6461 0.6636 0.0000
vt 0.6461 0.7433 0.0000
vt 0.7040 0.6603 0.0000
vt 0.6654 0.7421 0.0000
vt 0.6654 0.6652 0.0000
vt 0.6847 0.6636 0.0000
vt 0.6847 0.7433 0.0000
vt 0.6905 0.6068 0.0000
vt 0.6905 0.6526 0.0000
vt 0.6840 0.6526 0.0000
vt 0.6840 0.6068 0.0000
vt 0.6823 0.6411 0.0000
vt 0.6823 0.6526 0.0000
vt 0.6758 0.6526 0.0000
vt 0.6758 0.6411 0.0000
vt 0.6512 0.6397 0.0000
vt 0.6512 0.6068 0.0000
vt 0.6577 0.6068 0.0000
vt 0.6577 0.6397 0.0000
vt 0.6823 0.6182 0.0000
vt 0.6823 0.6297 0.0000
vt 0.6758 0.6297 0.0000
vt 0.6758 0.6182 0.0000
vt 0.6495 0.6068 0.0000
vt 0.6495 0.6397 0.0000
vt 0.6430 0.6397 0.0000
vt 0.6430 0.6068 0.0000
vt 0.6823 0.6068 0.0000
vt 0.6758 0.6068 0.0000
vt 0.6426 0.6606 0.0000
vt 0.6426 0.6409 0.0000
vt 0.6491 0.6409 0.0000
vt 0.6491 0.6606 0.0000
vt 0.6575 0.6409 0.0000
vt 0.6575 0.6606 0.0000
vt 0.6510 0.6606 0.0000
vt 0.6510 0.6409 0.0000
vt 0.6594 0.6526 0.0000
vt 0.6594 0.6068 0.0000
vt 0.6659 0.6068 0.0000
vt 0.6659 0.6526 0.0000
vt 0.6268 0.7799 0.0000
vt 0.6167 0.8082 0.0000
vt 0.9935 0.9323 0.0000
vt 0.9477 0.9323 0.0000
vt 0.9477 0.8303 0.0000
vt 0.9935 0.8303 0.0000
vt 0.6557 0.7557 0.0000
vt 0.6555 0.7538 0.0000
vt 0.6627 0.7550 0.0000
vt 0.6629 0.7570 0.0000
vt 0.6703 0.7554 0.0000
vt 0.6703 0.7574 0.0000
vt 0.6848 0.7557 0.0000
vt 0.6777 0.7570 0.0000
vt 0.6778 0.7550 0.0000
vt 0.6851 0.7539 0.0000
vt 0.6559 0.7467 0.0000
vt 0.6631 0.7478 0.0000
vt 0.6629 0.7511 0.0000
vt 0.6556 0.7500 0.0000
vt 0.6703 0.7482 0.0000
vt 0.6703 0.7515 0.0000
vt 0.6775 0.7478 0.0000
vt 0.6846 0.7468 0.0000
vt 0.6849 0.7500 0.0000
vt 0.6777 0.7511 0.0000
vt 0.6703 0.7593 0.0000
vt 0.6630 0.7589 0.0000
vt 0.6559 0.7575 0.0000
vt 0.6847 0.7576 0.0000
vt 0.6776 0.7589 0.0000
vt 0.6848 0.7616 0.0000
vt 0.6777 0.7629 0.0000
vt 0.6346 0.7573 0.0000
vt 0.6424 0.7538 0.0000
vt 0.6355 0.7589 0.0000
vt 0.6391 0.7543 0.0000
vt 0.6355 0.7557 0.0000
vt 0.6446 0.7538 0.0000
vt 0.6478 0.7542 0.0000
vt 0.6514 0.7557 0.0000
vt 0.6523 0.7573 0.0000
vt 0.6479 0.7608 0.0000
vt 0.6514 0.7589 0.0000
vt 0.6629 0.7629 0.0000
vt 0.6557 0.7615 0.0000
vt 0.6703 0.7633 0.0000
vt 0.6479 0.7728 0.0000
vt 0.6446 0.7728 0.0000
vt 0.6560 0.7639 0.0000
vt 0.6629 0.7663 0.0000
vt 0.6560 0.7760 0.0000
vt 0.6391 0.7608 0.0000
vt 0.6424 0.7728 0.0000
vt 0.6391 0.7728 0.0000
vt 0.6703 0.7671 0.0000
vt 0.6777 0.7663 0.0000
vt 0.6845 0.7639 0.0000
vt 0.6845 0.7760 0.0000
vt -0.3443 0.7557 0.0000
vt -0.3371 0.7570 0.0000
vt -0.3373 0.7550 0.0000
vt -0.3445 0.7538 0.0000
vt -0.3297 0.7574 0.0000
vt -0.3297 0.7554 0.0000
vt -0.3152 0.7557 0.0000
vt -0.3149 0.7539 0.0000
vt -0.3222 0.7550 0.0000
vt -0.3223 0.7570 0.0000
vt -0.3441 0.7467 0.0000
vt -0.3444 0.7500 0.0000
vt -0.3371 0.7511 0.0000
vt -0.3369 0.7478 0.0000
vt -0.3297 0.7515 0.0000
vt -0.3297 0.7482 0.0000
vt -0.3225 0.7478 0.0000
vt -0.3223 0.7511 0.0000
vt -0.3151 0.7500 0.0000
vt -0.3154 0.7468 0.0000
vt -0.3370 0.7589 0.0000
vt -0.3297 0.7593 0.0000
vt -0.3441 0.7575 0.0000
vt -0.3153 0.7576 0.0000
vt -0.3224 0.7589 0.0000
vt -0.3152 0.7616 0.0000
vt -0.3223 0.7629 0.0000
vt -0.3654 0.7573 0.0000
vt -0.3645 0.7589 0.0000
vt -0.3576 0.7538 0.0000
vt -0.3609 0.7543 0.0000
vt -0.3645 0.7557 0.0000
vt -0.3554 0.7538 0.0000
vt -0.3477 0.7573 0.0000
vt -0.3486 0.7557 0.0000
vt -0.3522 0.7542 0.0000
vt -0.3521 0.7608 0.0000
vt -0.3486 0.7589 0.0000
vt -0.3371 0.7629 0.0000
vt -0.3443 0.7615 0.0000
vt -0.3297 0.7633 0.0000
vt -0.3609 0.7608 0.0000
# 171 texture coords

g X3650M5_l3
usemtl lambert3
s off
f 1/1/1 2/2/2 3/3/1 4/4/2 
f 5/5/3 6/6/3 7/7/3 8/8/3 
f 9/9/4 10/10/4 1/11/4 4/12/4 
f 1/13/5 10/14/5 6/15/5 11/16/5 
f 7/17/6 9/18/6 4/19/6 12/20/6 
f 6/15/5 5/21/7 11/16/5 
f 5/22/1 13/23/1 14/24/1 11/25/1 
f 8/26/6 7/17/6 12/20/6 
f 12/27/1 4/4/2 3/3/1 15/28/1 
f 12/27/1 15/28/1 16/29/1 
f 15/28/1 17/30/1 18/31/1 16/29/1 
f 19/32/1 11/25/1 14/24/1 
f 20/33/2 21/34/2 22/35/2 23/36/2 
f 18/31/1 17/30/1 21/34/2 20/33/2 
f 23/36/2 22/35/2 19/32/1 14/24/1 
f 24/37/8 25/38/8 3/39/8 2/40/8 
f 17/41/9 15/42/10 26/43/10 27/44/9 
f 15/45/11 3/46/11 25/47/11 26/48/11 
f 22/49/12 21/50/13 28/51/13 29/52/12 
f 21/50/13 17/41/9 27/44/9 28/51/13 
f 2/53/14 19/54/14 30/55/14 24/56/14 
f 19/57/15 22/49/12 29/52/12 30/58/15 
f 31/59/7 16/60/7 32/61/7 33/62/7 
f 14/63/6 13/64/6 34/65/6 35/66/6 
f 33/67/4 34/68/4 13/69/4 31/70/4 
f 31/71/1 8/72/1 12/27/1 16/29/1 
f 13/23/1 5/22/1 8/72/1 31/71/1 
f 2/2/2 1/1/1 11/25/1 19/32/1 
f 36/73/1 37/74/1 38/75/1 39/76/1 
f 40/77/16 41/78/17 42/79/18 43/80/19 
f 42/79/18 44/81/20 45/82/21 43/80/19 
f 46/83/22 47/84/23 48/85/24 49/86/25 
f 48/85/24 47/84/23 45/82/21 44/81/20 
f 50/87/26 51/88/27 52/89/28 53/90/29 
f 51/88/27 54/91/30 55/92/31 52/89/28 
f 56/93/32 57/94/33 58/95/34 59/96/35 
f 54/91/30 56/93/32 59/96/35 55/92/31 
f 43/80/19 45/82/21 60/97/36 61/98/37 
f 62/99/38 40/77/16 43/80/19 61/98/37 
f 63/100/39 64/101/40 47/84/23 46/83/22 
f 45/82/21 47/84/23 64/101/40 60/97/36 
f 65/102/41 66/103/42 64/101/40 63/100/39 
f 46/104/7 57/105/43 63/106/7 
f 58/107/11 57/105/43 46/104/7 49/108/11 
f 59/96/35 58/95/34 49/86/25 48/85/24 
f 55/92/31 59/96/35 48/85/24 44/81/20 
f 52/89/28 55/92/31 44/81/20 42/79/18 
f 53/90/29 52/89/28 42/79/18 41/78/17 
f 50/109/44 53/110/6 41/111/6 40/112/14 
f 67/113/44 50/109/44 62/114/14 
f 68/115/45 67/116/46 62/99/38 61/98/37 
f 69/117/47 68/115/45 61/98/37 60/97/36 
f 66/103/42 69/117/47 60/97/36 64/101/40 
f 50/109/44 67/113/44 70/118/44 71/119/44 
f 67/120/1 68/121/2 70/122/2 
f 65/123/43 57/105/43 72/124/43 73/125/43 
f 63/106/7 57/105/43 65/123/43 
f 62/114/14 50/109/44 40/112/14 
f 69/126/2 70/122/2 68/121/2 
f 66/127/1 65/128/1 73/129/1 
f 73/129/1 70/122/2 69/126/2 
f 73/129/1 69/126/2 66/127/1 
f 74/130/48 75/131/49 76/132/50 77/133/51 
f 76/132/50 75/131/49 78/134/52 79/135/53 
f 80/136/54 81/137/55 82/138/56 83/139/57 
f 82/138/56 79/135/53 78/134/52 83/139/57 
f 84/140/58 85/141/59 86/142/60 87/143/61 
f 87/143/61 86/142/60 88/144/62 89/145/63 
f 90/146/64 91/147/65 92/148/66 93/149/67 
f 89/145/63 88/144/62 91/147/65 90/146/64 
f 75/131/49 94/150/68 95/151/69 78/134/52 
f 96/152/70 94/150/68 75/131/49 74/130/48 
f 97/153/71 80/136/54 83/139/57 98/154/72 
f 78/134/52 95/151/69 98/154/72 83/139/57 
f 99/155/73 97/153/71 98/154/72 100/156/74 
f 80/157/11 97/158/11 93/159/5 
f 92/160/11 81/161/11 80/157/11 93/159/5 
f 91/147/65 82/138/56 81/137/55 92/148/66 
f 88/144/62 79/135/53 82/138/56 91/147/65 
f 86/142/60 76/132/50 79/135/53 88/144/62 
f 85/141/59 77/133/51 76/132/50 86/142/60 
f 84/162/6 74/163/75 77/164/6 85/165/6 
f 101/166/6 96/167/75 84/162/6 
f 102/168/76 94/150/68 96/152/70 101/169/77 
f 103/170/78 95/151/69 94/150/68 102/168/76 
f 100/156/74 98/154/72 95/151/69 103/170/78 
f 97/158/11 99/171/5 93/159/5 
f 96/167/75 74/163/75 84/162/6 
# 71 polygons - 17 triangles

