# 3ds Max Wavefront OBJ Exporter v0.97b - (c)2007 guruware
# 创建的文件:21.12.2017 17:13:02

mtllib 机柜2.mtl

#
# object Box1817
#

v  1109306.0000 -71.1918 -41463.1016
v  1109306.0000 -71.1918 -41553.1016
v  1109396.0000 -71.1918 -41553.1016
v  1109396.0000 -71.1918 -41463.1016
v  1109306.0000 156.4811 -41463.1016
v  1109396.0000 156.4811 -41463.1016
v  1109396.0000 156.4811 -41553.1016
v  1109306.0000 156.4811 -41553.1016
v  1109313.7500 -83.5189 -41465.4805
v  1109319.1250 -71.2760 -41465.4180
v  1109308.8750 -71.2760 -41465.4180
v  1109308.7500 -83.5189 -41465.4805
v  1109308.8750 -71.2760 -41475.7148
v  1109308.7500 -83.5189 -41470.4023
v  1109313.7500 -83.5189 -41550.5391
v  1109308.7500 -83.5189 -41550.5391
v  1109308.8750 -71.2760 -41550.6016
v  1109319.1250 -71.2760 -41550.6016
v  1109308.7500 -83.5189 -41545.6172
v  1109308.8750 -71.2760 -41540.3047
v  1109388.5000 -83.5189 -41465.4805
v  1109393.5000 -83.5189 -41465.4805
v  1109393.3750 -71.2760 -41465.4180
v  1109383.1250 -71.2760 -41465.4180
v  1109393.5000 -83.5189 -41470.4023
v  1109393.3750 -71.2760 -41475.7148
v  1109388.5000 -83.5189 -41550.5391
v  1109383.1250 -71.2760 -41550.6016
v  1109393.3750 -71.2760 -41550.6016
v  1109393.5000 -83.5189 -41550.5391
v  1109393.3750 -71.2760 -41540.3047
v  1109393.5000 -83.5189 -41545.6172
# 32 vertices

vn 0.0000 -1.0000 -0.0000
vn 0.0000 1.0000 -0.0000
vn 1.0000 0.0000 -0.0000
vn -1.0000 0.0000 -0.0000
vn 0.0000 -0.0050 1.0000
vn -1.0000 0.0052 -0.0000
vn 0.0000 -0.0050 -1.0000
vn 1.0000 0.0052 -0.0000
# 8 vertex normals

vt 0.0200 0.9800 0.0000
vt 0.0200 0.7000 0.0000
vt 0.3000 0.7000 0.0000
vt 0.3000 0.9800 0.0000
vt 0.3176 0.7296 0.0000
vt 0.4908 0.7296 0.0000
vt 0.4908 0.9028 0.0000
vt 0.3176 0.9028 0.0000
vt 0.0552 0.6773 0.0000
vt 0.0552 0.3697 0.0000
vt 0.9908 0.3697 0.0000
vt 0.9908 0.6773 0.0000
vt 0.7677 0.8772 0.0000
vt 0.8058 0.8603 0.0000
vt 0.8058 0.8924 0.0000
vt 0.7677 0.8925 0.0000
vt 0.6862 0.9099 0.0000
vt 0.7243 0.9097 0.0000
vt 0.7243 0.9418 0.0000
vt 0.6862 0.9252 0.0000
vt 0.7677 0.7834 0.0000
vt 0.7677 0.7681 0.0000
vt 0.8058 0.7683 0.0000
vt 0.8058 0.8003 0.0000
vt 0.8658 0.7999 0.0000
vt 0.8658 0.7846 0.0000
vt 0.9039 0.7681 0.0000
vt 0.9039 0.8001 0.0000
vt 0.7842 0.8369 0.0000
vt 0.7842 0.8216 0.0000
vt 0.8223 0.8218 0.0000
vt 0.8223 0.8539 0.0000
vt 0.8823 0.8535 0.0000
vt 0.8823 0.8382 0.0000
vt 0.9204 0.8216 0.0000
vt 0.9204 0.8537 0.0000
vt 0.6862 0.8344 0.0000
vt 0.7243 0.8175 0.0000
vt 0.7243 0.8495 0.0000
vt 0.6862 0.8497 0.0000
vt 0.7842 0.9141 0.0000
vt 0.8223 0.9139 0.0000
vt 0.8223 0.9459 0.0000
vt 0.7842 0.9294 0.0000
# 44 texture coords

g Box1817
usemtl 1
s 2
f 1/1/1 2/2/1 3/3/1 
f 3/3/1 4/4/1 1/1/1 
s 4
f 5/5/2 6/6/2 7/7/2 
f 7/7/2 8/8/2 5/5/2 
s 16
f 4/9/3 3/10/3 7/11/3 
f 7/11/3 6/12/3 4/9/3 
s 64
f 2/9/4 1/10/4 5/11/4 
f 5/11/4 8/12/4 2/9/4 
s 32
f 9/13/5 10/14/5 11/15/5 
f 11/15/5 12/16/5 9/13/5 
s 64
f 12/17/6 11/18/6 13/19/6 
f 13/19/6 14/20/6 12/17/6 
s 32
f 15/21/7 16/22/7 17/23/7 
f 17/23/7 18/24/7 15/21/7 
s 64
f 16/25/6 19/26/6 20/27/6 
f 20/27/6 17/28/6 16/25/6 
s 32
f 21/29/5 22/30/5 23/31/5 
f 23/31/5 24/32/5 21/29/5 
s 64
f 22/33/8 25/34/8 26/35/8 
f 26/35/8 23/36/8 22/33/8 
s 32
f 27/37/7 28/38/7 29/39/7 
f 29/39/7 30/40/7 27/37/7 
s 64
f 30/41/8 29/42/8 31/43/8 
f 31/43/8 32/44/8 30/41/8 
# 24 faces

#
# object Line034
#

v  1109308.8750 -83.5189 -41465.5742
v  1109311.2500 -83.5189 -41465.5977
v  1109308.8750 -83.5189 -41466.7188
v  1109306.0000 -71.1918 -41463.1016
v  1109396.0000 -71.1918 -41463.1016
v  1109396.0000 156.4811 -41463.1016
v  1109306.0000 156.4811 -41463.1016
# 7 vertices

vn 0.0000 1.0000 -0.0000
vn 0.0000 0.0000 1.0000
# 2 vertex normals

vt 0.0300 0.4526 0.0000
vt 0.0200 0.4525 0.0000
vt 0.0300 0.4478 0.0000
vt 0.0261 0.3494 0.0000
vt 0.0261 0.0163 0.0000
vt 0.9861 0.0163 0.0000
vt 0.9861 0.3494 0.0000
# 7 texture coords

g Line034
usemtl 1
s 1
f 33/45/9 34/46/9 35/47/9 
s 8
f 36/48/10 37/49/10 38/50/10 
f 38/50/10 39/51/10 36/48/10 
# 3 faces

#
# object Line035
#

v  1109393.1250 -83.5188 -41550.6289
v  1109390.7500 -83.5188 -41550.6055
v  1109393.1250 -83.5188 -41549.4844
v  1109396.0000 -71.1917 -41553.1016
v  1109306.0000 -71.1917 -41553.1016
v  1109306.0000 156.4812 -41553.1016
v  1109396.0000 156.4812 -41553.1016
# 7 vertices

vn 0.0000 1.0000 -0.0000
vn 0.0000 0.0000 -1.0000
# 2 vertex normals

vt 0.0300 0.4526 0.0000
vt 0.0200 0.4525 0.0000
vt 0.0300 0.4478 0.0000
vt 0.0261 0.3494 0.0000
vt 0.0261 0.0163 0.0000
vt 0.9861 0.0163 0.0000
vt 0.9861 0.3494 0.0000
# 7 texture coords

g Line035
usemtl 1
s 1
f 40/52/11 41/53/11 42/54/11 
s 8
f 43/55/12 44/56/12 45/57/12 
f 45/57/12 46/58/12 43/55/12 
# 3 faces

