# 3ds Max Wavefront OBJ Exporter v0.97b - (c)2007 guruware
# File Created: 03.06.2019 10:43:13

mtllib 45.mtl

#
# object Box001
#

v  -19.9488 0.0000 15.0693
v  19.9488 0.0000 15.0693
v  -19.9488 0.0000 -15.0693
v  19.9488 0.0000 -15.0693
v  -19.9488 47.0871 15.0693
v  19.9488 47.0871 15.0693
v  -19.9488 47.0871 -15.0693
v  19.9488 47.0871 -15.0693
# 8 vertices

vn 0.0000 -1.0000 -0.0000
vn 0.0000 -1.0000 -0.0000
vn 0.0000 -1.0000 -0.0000
vn 0.0000 -1.0000 -0.0000
vn 0.0000 1.0000 -0.0000
vn 0.0000 1.0000 -0.0000
vn 0.0000 1.0000 -0.0000
vn 0.0000 1.0000 -0.0000
vn 0.0000 0.0000 1.0000
vn 0.0000 0.0000 1.0000
vn 0.0000 0.0000 1.0000
vn 0.0000 0.0000 1.0000
vn 1.0000 0.0000 -0.0000
vn 1.0000 0.0000 -0.0000
vn 1.0000 0.0000 -0.0000
vn 1.0000 0.0000 -0.0000
vn 0.0000 0.0000 -1.0000
vn 0.0000 0.0000 -1.0000
vn 0.0000 0.0000 -1.0000
vn 0.0000 0.0000 -1.0000
vn -1.0000 0.0000 -0.0000
vn -1.0000 0.0000 -0.0000
vn -1.0000 0.0000 -0.0000
vn -1.0000 0.0000 -0.0000
# 24 vertex normals

vt 0.9820 0.9739 0.0000
vt 0.7350 0.9739 0.0000
vt 0.7350 0.6623 0.0000
vt 0.9820 0.6623 0.0000
vt 0.0255 0.1574 0.0000
vt 0.7201 0.1574 0.0000
vt 0.7201 0.9772 0.0000
vt 0.0255 0.9772 0.0000
# 8 texture coords

g Box001
usemtl 01___Default
s 2
f 1/1/1 3/2/2 4/3/3 2/4/4 
s 4
f 5/1/5 6/4/6 8/3/7 7/2/8 
s 8
f 1/5/9 2/6/10 6/7/11 5/8/12 
s 16
f 2/2/13 4/1/14 8/4/15 6/3/16 
s 32
f 4/1/17 3/2/18 7/3/19 8/4/20 
s 64
f 3/1/21 1/2/22 5/3/23 7/4/24 
# 6 polygons

