# 3ds Max Wavefront OBJ Exporter v0.97b - (c)2007 guruware
# File Created: 23.11.2018 11:16:44

mtllib E5_1.mtl

#
# object pCube86_E5_1
#

v  -50.5725 -116.5434 -34.7076
v  -52.2667 -116.5434 -34.7076
v  -52.2667 -116.5434 -34.5225
v  -50.5725 -116.5434 -34.5225
v  -50.7500 -117.4550 -34.5225
v  -52.0892 -117.4550 -34.5225
v  -52.0892 -117.4550 -34.7076
v  -50.7500 -117.4550 -34.7076
v  -52.2786 -117.3082 -34.5225
v  -52.4235 -116.7458 -34.5225
v  -52.4235 -116.7458 -34.7076
v  -52.2786 -117.3082 -34.7076
v  -50.5606 -117.3082 -34.7076
v  -50.4157 -116.7458 -34.7076
v  -50.4157 -116.7458 -34.5225
v  -50.5606 -117.3082 -34.5225
# 16 vertices

vn 0.0000 1.0000 -0.0000
vn 0.0000 -1.0000 -0.0000
vn -0.9684 -0.2495 -0.0000
vn 0.9684 -0.2495 -0.0000
vn 0.7904 0.6126 -0.0000
vn -0.7904 0.6126 -0.0000
vn 0.0000 0.0000 -1.0000
vn 0.6126 -0.7904 -0.0000
vn -0.6126 -0.7904 -0.0000
# 9 vertex normals

vt 0.0465 0.0911 0.0000
vt 0.0626 0.0911 0.0000
vt 0.0632 0.0917 0.0000
vt 0.0460 0.0917 0.0000
vt 0.0472 0.0827 0.0000
vt 0.0620 0.0827 0.0000
vt 0.0615 0.0833 0.0000
vt 0.0477 0.0833 0.0000
vt 0.0641 0.0841 0.0000
vt 0.0648 0.0897 0.0000
vt 0.0641 0.0893 0.0000
vt 0.0635 0.0845 0.0000
vt 0.0456 0.0845 0.0000
vt 0.0450 0.0893 0.0000
vt 0.0443 0.0897 0.0000
vt 0.0450 0.0841 0.0000
# 16 texture coords

g pCube86_E5_1
usemtl _E5_3JiGui_3_matSG
s off
f 1/1/1 2/2/1 3/3/1 4/4/1 
f 5/5/2 6/6/2 7/7/2 8/8/2 
f 9/9/3 10/10/3 11/11/3 12/12/3 
f 13/13/4 14/14/4 15/15/4 16/16/4 
f 1/1/5 4/4/5 15/15/5 14/14/5 
f 11/11/6 10/10/6 3/3/6 2/2/6 
f 8/8/7 7/7/7 12/12/7 2/2/7 
f 12/12/7 11/11/7 2/2/7 
f 14/14/7 8/8/7 2/2/7 1/1/7 
f 13/13/7 8/8/7 14/14/7 
f 13/13/8 16/16/8 5/5/8 8/8/8 
f 7/7/9 6/6/9 9/9/9 12/12/9 
# 10 polygons - 2 triangles

#
# object E5_1_pCube83
#

v  -35.3480 -118.4630 26.4653
v  -35.3480 -114.0180 26.4653
v  -85.3480 -114.0180 26.4653
v  -85.3480 -118.4630 26.4653
v  -35.3480 -114.0180 -34.5347
v  -85.3480 -114.0180 -34.5347
v  -85.3480 -118.4630 -34.5347
v  -35.3480 -118.4630 -34.5347
# 8 vertices

vn 0.0000 0.0000 1.0000
vn 0.0000 1.0000 -0.0000
vn 0.0000 0.0000 -1.0000
vn 0.0000 -1.0000 -0.0000
vn 1.0000 0.0000 -0.0000
vn -1.0000 0.0000 -0.0000
# 6 vertex normals

vt 0.4885 0.6468 0.0000
vt 0.4885 0.6897 0.0000
vt 0.0020 0.6897 0.0000
vt 0.0020 0.6468 0.0000
vt 0.5243 0.8743 0.0000
vt 0.8537 0.8743 0.0000
vt 0.8537 0.6735 0.0000
vt 0.5243 0.6735 0.0000
vt 0.5201 0.6925 0.0000
vt 0.5201 0.7422 0.0000
vt 0.0009 0.7422 0.0000
vt 0.0009 0.6925 0.0000
vt 0.8537 0.8747 0.0000
vt 0.5243 0.8747 0.0000
vt 0.5243 0.6740 0.0000
vt 0.8537 0.6740 0.0000
vt 0.8537 0.7862 0.0000
vt 0.5243 0.7862 0.0000
vt 0.5243 0.7565 0.0000
vt 0.8537 0.7565 0.0000
vt 0.5243 0.7842 0.0000
vt 0.8537 0.7842 0.0000
vt 0.8537 0.7545 0.0000
vt 0.5243 0.7545 0.0000
# 24 texture coords

g E5_1_pCube83
usemtl _E5_3JiGui_3_matSG
s off
f 17/17/10 18/18/10 19/19/10 20/20/10 
f 18/21/11 21/22/11 22/23/11 19/24/11 
f 23/25/12 22/26/12 21/27/12 24/28/12 
f 24/29/13 17/30/13 20/31/13 23/32/13 
f 21/33/14 18/34/14 17/35/14 24/36/14 
f 19/37/15 22/38/15 23/39/15 20/40/15 
# 6 polygons

#
# object E5_1_pCube84
#

v  -53.7978 -114.0472 26.4207
v  -54.0438 -115.1791 26.4207
v  -54.0682 -115.1791 27.8585
v  -53.8003 -114.0060 27.9822
v  -54.3763 -115.1791 28.0331
v  -54.2792 -114.0696 28.2833
v  -66.1077 -114.0525 28.3124
v  -66.0032 -115.1791 28.0608
v  -66.3636 -115.1791 27.8141
v  -66.6359 -114.0248 27.9273
v  -66.6416 -114.0472 26.4095
v  -66.3993 -115.1791 26.4095
v  -53.8003 -116.3523 27.9822
v  -53.7978 -116.3110 26.4207
v  -54.2792 -116.2886 28.2833
v  -66.1077 -116.3057 28.3124
v  -66.6359 -116.3334 27.9273
v  -66.6416 -116.3110 26.4095
v  -53.3997 -115.8786 26.4207
v  -53.3668 -115.9042 28.1825
v  -54.1220 -115.8648 28.6881
v  -66.2768 -115.8753 28.7196
v  -67.0765 -115.8925 28.1105
v  -67.0336 -115.8786 26.4095
v  -53.3997 -114.4796 26.4207
v  -53.3668 -114.4540 28.1825
v  -54.1220 -114.4934 28.6881
v  -66.2768 -114.4829 28.7196
v  -67.0765 -114.4657 28.1105
v  -67.0336 -114.4796 26.4095
# 30 vertices

vn -0.6793 0.7333 -0.0282
vn -0.9999 0.0000 -0.0120
vn -0.9732 0.0000 -0.2302
vn -0.4187 0.9072 -0.0417
vn -0.0220 0.0000 -0.9998
vn -0.0102 0.8051 -0.5931
vn 0.0105 0.8126 -0.5828
vn 0.0238 0.0000 -0.9997
vn 0.9662 0.0000 -0.2576
vn 0.4241 0.9030 -0.0687
vn 0.6782 0.7343 -0.0296
vn 0.9999 0.0000 -0.0158
vn -0.4187 -0.9072 -0.0417
vn -0.6793 -0.7333 -0.0282
vn -0.0102 -0.8051 -0.5931
vn 0.0105 -0.8126 -0.5828
vn 0.4241 -0.9030 -0.0687
vn 0.6781 -0.7343 -0.0296
vn 0.9782 -0.2066 -0.0203
vn 0.9387 -0.1901 0.2876
vn 0.0408 -0.1894 0.9810
vn -0.0435 -0.1887 0.9811
vn -0.9351 -0.1903 0.2988
vn -0.9773 -0.2104 -0.0240
vn 0.9782 0.2066 -0.0203
vn 0.9387 0.1901 0.2876
vn 0.0408 0.1894 0.9810
vn -0.0435 0.1887 0.9811
vn -0.9351 0.1903 0.2988
vn -0.9773 0.2104 -0.0240
# 30 vertex normals

vt 0.3372 0.6636 0.0000
vt 0.3372 0.6747 0.0000
vt 0.3743 0.6747 0.0000
vt 0.3775 0.6631 0.0000
vt 0.1464 0.6715 0.0000
vt 0.1532 0.6715 0.0000
vt 0.1510 0.6601 0.0000
vt 0.1405 0.6633 0.0000
vt 0.2440 0.6600 0.0000
vt 0.2417 0.6715 0.0000
vt 0.2496 0.6715 0.0000
vt 0.2556 0.6642 0.0000
vt 0.3240 0.6595 0.0000
vt 0.2843 0.6590 0.0000
vt 0.2873 0.6706 0.0000
vt 0.3240 0.6706 0.0000
vt 0.3775 0.6636 0.0000
vt 0.3372 0.6631 0.0000
vt 0.1510 0.6618 0.0000
vt 0.1405 0.6618 0.0000
vt 0.2440 0.6618 0.0000
vt 0.2556 0.6618 0.0000
vt 0.2843 0.6591 0.0000
vt 0.3240 0.6587 0.0000
vt 0.3272 0.6604 0.0000
vt 0.2957 0.6604 0.0000
vt 0.2957 0.6712 0.0000
vt 0.3272 0.6712 0.0000
vt 0.2782 0.6604 0.0000
vt 0.2782 0.6712 0.0000
vt 0.2006 0.6604 0.0000
vt 0.2006 0.6712 0.0000
vt 0.1821 0.6604 0.0000
vt 0.1821 0.6712 0.0000
vt 0.1501 0.6604 0.0000
vt 0.1501 0.6712 0.0000
vt 0.1398 0.6750 0.0000
vt 0.1853 0.6744 0.0000
vt 0.1853 0.6632 0.0000
vt 0.1398 0.6626 0.0000
vt 0.2574 0.6596 0.0000
vt 0.2574 0.6709 0.0000
vt 0.2740 0.6703 0.0000
vt 0.2740 0.6603 0.0000
vt 0.1573 0.6596 0.0000
vt 0.1573 0.6709 0.0000
vt 0.1398 0.6699 0.0000
vt 0.1398 0.6606 0.0000
vt 0.1885 0.6600 0.0000
vt 0.1885 0.6711 0.0000
vt 0.2329 0.6717 0.0000
vt 0.2329 0.6594 0.0000
vt 0.3271 0.6712 0.0000
vt 0.2956 0.6712 0.0000
vt 0.2956 0.6604 0.0000
vt 0.3271 0.6604 0.0000
vt 0.1822 0.6712 0.0000
vt 0.1822 0.6604 0.0000
vt 0.1502 0.6712 0.0000
vt 0.1502 0.6604 0.0000
# 60 texture coords

g E5_1_pCube84
usemtl _E5_3JiGui_3_matSG
s 1
f 25/41/16 26/42/17 27/43/18 28/44/19 
f 27/45/18 29/46/20 30/47/21 28/48/19 
f 31/49/22 30/47/21 29/46/20 32/50/23 
f 32/50/23 33/51/24 34/52/25 31/49/22 
f 35/53/26 34/54/25 33/55/24 36/56/27 
f 37/57/28 27/43/18 26/42/17 38/58/29 
f 39/59/30 29/46/20 27/45/18 37/60/28 
f 39/59/30 40/61/31 32/50/23 29/46/20 
f 41/62/32 33/51/24 32/50/23 40/61/31 
f 33/55/24 41/63/32 42/64/33 36/56/27 
f 43/65/34 44/66/35 37/67/28 38/68/29 
f 37/67/28 44/66/35 45/69/36 39/70/30 
f 46/71/37 40/72/31 39/70/30 45/69/36 
f 47/73/38 41/74/32 40/72/31 46/71/37 
f 47/73/38 48/75/39 42/76/33 41/74/32 
f 44/77/35 43/78/34 49/79/40 50/80/41 
f 51/81/42 45/82/36 44/83/35 50/84/41 
f 52/85/43 46/86/37 45/82/36 51/81/42 
f 47/87/38 46/86/37 52/85/43 53/88/44 
f 54/89/45 48/90/39 47/91/38 53/92/44 
f 25/93/16 28/94/19 50/95/41 49/96/40 
f 50/95/41 28/94/19 30/70/21 51/69/42 
f 51/69/42 30/70/21 31/72/22 52/71/43 
f 52/71/43 31/72/22 34/97/25 53/98/44 
f 35/99/26 54/100/45 53/98/44 34/97/25 
# 25 polygons

#
# object E5_1_pCube85
#

v  -40.3369 -116.9841 -34.9476
v  -40.3369 -116.3817 -34.5919
v  -39.7946 -116.3817 -34.5919
v  -39.7946 -116.9841 -34.9476
v  -40.3369 -115.6822 -34.5988
v  -39.7946 -115.6822 -34.5988
v  -39.7946 -115.7637 -34.1480
v  -40.3369 -115.7637 -34.1480
v  -39.7946 -117.1388 -34.5165
v  -40.3369 -117.1388 -34.5165
v  -40.3369 -116.4022 -34.5153
v  -39.7946 -116.4022 -34.5153
# 12 vertices

vn 0.0000 0.5084 -0.8611
vn 0.0000 0.2588 -0.9659
vn 0.0000 -0.0097 -1.0000
vn 0.0000 0.9840 0.1780
vn 0.0000 -0.9412 -0.3378
vn -1.0000 0.0000 -0.0000
vn 1.0000 0.0000 -0.0000
# 7 vertex normals

vt 0.9058 0.9757 0.0000
vt 0.9058 0.9859 0.0000
vt 0.8974 0.9859 0.0000
vt 0.8974 0.9757 0.0000
vt 0.9058 0.9961 0.0000
vt 0.8974 0.9961 0.0000
vt 0.8974 0.9995 0.0000
vt 0.9058 0.9995 0.0000
vt 0.8974 0.9723 0.0000
vt 0.9058 0.9723 0.0000
vt 0.9108 0.9860 0.0000
vt 0.9102 0.9860 0.0000
vt 0.9088 0.9757 0.0000
vt 0.9122 0.9750 0.0000
vt 0.9088 0.9960 0.0000
vt 0.9122 0.9966 0.0000
vt 0.8932 0.9860 0.0000
vt 0.8928 0.9860 0.0000
vt 0.8917 0.9750 0.0000
vt 0.8943 0.9757 0.0000
vt 0.8943 0.9960 0.0000
vt 0.8917 0.9966 0.0000
# 22 texture coords

g E5_1_pCube85
usemtl _E6_JHJJiGui_4_matSG
s 1
f 55/101/46 56/102/47 57/103/47 58/104/46 
f 56/102/47 59/105/48 60/106/48 57/103/47 
s off
f 61/107/49 60/106/49 59/105/49 62/108/49 
f 63/109/50 64/110/50 55/101/50 58/104/50 
s 2
f 65/111/51 56/112/51 55/113/51 64/114/51 
f 59/115/51 56/112/51 65/111/51 62/116/51 
s 3
f 57/117/52 66/118/52 63/119/52 58/120/52 
f 66/118/52 57/117/52 60/121/52 61/122/52 
# 8 polygons

#
# object E5_1_pCube87
#

v  -35.2797 -118.3238 26.4648
v  -35.1272 -118.3238 26.4648
v  -35.1272 -114.1571 26.4648
v  -35.2797 -114.1571 26.4648
v  -35.1272 -114.1571 26.2093
v  -35.3793 -114.1571 26.2093
v  -35.1272 -118.3238 26.2093
v  -35.3793 -118.3238 26.2093
v  -33.2973 -113.9490 26.2093
v  -33.2973 -113.9490 26.4648
v  -33.2973 -118.5319 26.4648
v  -33.2973 -118.5319 26.2093
v  -35.0611 -113.9490 26.2093
v  -35.0611 -113.9490 26.4648
v  -35.0611 -118.5319 26.4648
v  -35.0611 -118.5319 26.2093
v  -85.4164 -114.1571 26.4648
v  -85.5689 -114.1571 26.4648
v  -85.5689 -118.3238 26.4648
v  -85.4164 -118.3238 26.4648
v  -85.5689 -114.1571 26.2093
v  -85.3168 -114.1571 26.2093
v  -85.3168 -118.3238 26.2093
v  -85.5689 -118.3238 26.2093
v  -87.3988 -113.9490 26.4648
v  -87.3988 -113.9490 26.2093
v  -87.3988 -118.5319 26.2093
v  -87.3988 -118.5319 26.4648
v  -85.6350 -113.9490 26.2093
v  -85.6350 -113.9490 26.4648
v  -85.6350 -118.5319 26.2093
v  -85.6350 -118.5319 26.4648
# 32 vertices

vn 0.0000 0.0000 1.0000
vn 0.0000 1.0000 -0.0000
vn 0.0000 0.0000 -1.0000
vn 0.0000 -1.0000 -0.0000
vn 0.9333 0.3592 -0.0000
vn 0.9333 -0.3592 -0.0000
vn -0.9317 0.0000 0.3633
vn -0.9531 0.3026 -0.0000
vn -0.9531 -0.3026 -0.0000
vn 0.0000 1.0000 0.0000
vn -0.9333 0.3592 -0.0000
vn -0.9333 -0.3592 -0.0000
vn 0.9317 0.0000 0.3633
vn 0.9531 0.3026 -0.0000
vn 0.9531 -0.3026 -0.0000
# 15 vertex normals

vt 0.4892 0.6468 0.0000
vt 0.4916 0.6468 0.0000
vt 0.4916 0.6896 0.0000
vt 0.4892 0.6896 0.0000
vt 0.4876 0.6896 0.0000
vt 0.4876 0.6468 0.0000
vt 0.5203 0.6918 0.0000
vt 0.5203 0.6447 0.0000
vt 0.4926 0.6907 0.0000
vt 0.4926 0.6447 0.0000
# 10 texture coords

g E5_1_pCube87
usemtl _E5_3JiGui_3_matSG
s off
f 67/123/53 68/124/53 69/125/53 70/126/53 
f 71/125/54 72/127/54 70/126/54 69/125/54 
f 72/127/55 71/125/55 73/124/55 74/128/55 
f 73/124/56 68/124/56 67/123/56 74/128/56 
s 1
f 75/129/57 76/129/57 77/130/58 78/130/58 
s off
f 70/126/59 72/127/59 74/128/59 67/123/59 
s 2
f 69/125/53 68/124/53 77/130/53 76/129/53 
s 1
f 76/129/57 75/129/57 79/131/54 80/131/54 
s 3
f 75/129/55 78/130/55 73/124/55 71/125/55 
s 1
f 81/132/56 82/132/56 78/130/58 77/130/58 
s off
f 69/125/60 80/131/60 79/131/60 71/125/60 
s 2
f 69/125/53 76/129/53 80/131/53 
s 3
f 75/129/55 71/125/55 79/131/55 
s off
f 73/124/61 82/132/61 81/132/61 68/124/61 
s 3
f 73/124/55 78/130/55 82/132/55 
s 2
f 77/130/53 68/124/53 81/132/53 
s off
f 83/126/53 84/125/53 85/124/53 86/123/53 
f 87/125/62 84/125/62 83/126/62 88/127/62 
f 88/127/55 89/128/55 90/124/55 87/125/55 
f 90/124/56 89/128/56 86/123/56 85/124/56 
s 4
f 91/129/63 92/129/63 93/130/64 94/130/64 
s off
f 88/127/65 83/126/65 86/123/65 89/128/65 
s 5
f 91/129/53 94/130/53 85/124/53 84/125/53 
s 4
f 95/131/54 92/129/63 91/129/63 96/131/54 
s 6
f 92/129/55 87/125/55 90/124/55 93/130/55 
s 4
f 93/130/64 97/132/56 98/132/56 94/130/64 
s off
f 87/125/66 95/131/66 96/131/66 84/125/66 
s 5
f 84/125/53 96/131/53 91/129/53 
s 6
f 92/129/55 95/131/55 87/125/55 
s off
f 85/124/67 98/132/67 97/132/67 90/124/67 
s 6
f 90/124/55 97/132/55 93/130/55 
s 5
f 94/130/53 98/132/53 85/124/53 
# 24 polygons - 8 triangles

#
# object E5_1_pSphere148
#

v  -33.7456 -116.1096 26.7021
v  -33.5906 -116.0681 26.4600
v  -33.8458 -115.7355 26.4600
v  -33.9261 -115.8744 26.7021
v  -34.2615 -115.6807 26.4600
v  -34.2200 -115.8357 26.7021
v  -34.5941 -115.9360 26.4600
v  -34.4552 -116.0162 26.7021
v  -34.6488 -116.3516 26.4600
v  -34.4938 -116.3101 26.7021
v  -34.3936 -116.6842 26.4600
v  -34.3134 -116.5452 26.7021
v  -33.9779 -116.7389 26.4600
v  -34.0195 -116.5839 26.7021
v  -33.6454 -116.4837 26.4600
v  -33.7843 -116.4035 26.7021
v  -34.1197 -116.2098 26.8024
# 17 vertices

vn 0.6859 0.1838 0.7041
vn 0.8052 0.2158 0.5523
vn 0.4168 0.7219 0.5523
vn 0.3551 0.6150 0.7041
vn -0.2158 0.8052 0.5523
vn -0.1838 0.6859 0.7041
vn -0.7219 0.4168 0.5523
vn -0.6150 0.3551 0.7041
vn -0.8052 -0.2158 0.5523
vn -0.6859 -0.1838 0.7041
vn -0.4168 -0.7219 0.5523
vn -0.3551 -0.6150 0.7041
vn 0.2157 -0.8052 0.5523
vn 0.1838 -0.6859 0.7041
vn 0.7219 -0.4168 0.5523
vn 0.6150 -0.3551 0.7041
vn -0.0000 0.0000 1.0000
# 17 vertex normals

vt 0.9926 0.9925 0.0000
vt 0.9952 0.9951 0.0000
vt 0.9862 0.9988 0.0000
vt 0.9862 0.9951 0.0000
vt 0.9772 0.9951 0.0000
vt 0.9799 0.9925 0.0000
vt 0.9735 0.9861 0.0000
vt 0.9772 0.9861 0.0000
vt 0.9772 0.9772 0.0000
vt 0.9799 0.9798 0.0000
vt 0.9862 0.9735 0.0000
vt 0.9862 0.9772 0.0000
vt 0.9952 0.9772 0.0000
vt 0.9926 0.9798 0.0000
vt 0.9989 0.9861 0.0000
vt 0.9952 0.9861 0.0000
vt 0.9862 0.9861 0.0000
# 17 texture coords

g E5_1_pSphere148
usemtl _E5_3JiGui_3_matSG
s 1
f 99/133/68 100/134/69 101/135/70 102/136/71 
f 103/137/72 104/138/73 102/136/71 101/135/70 
f 105/139/74 106/140/75 104/138/73 103/137/72 
f 107/141/76 108/142/77 106/140/75 105/139/74 
f 108/142/77 107/141/76 109/143/78 110/144/79 
f 109/143/78 111/145/80 112/146/81 110/144/79 
f 113/147/82 114/148/83 112/146/81 111/145/80 
f 113/147/82 100/134/69 99/133/68 114/148/83 
f 99/133/68 102/136/71 115/149/84 
f 102/136/71 104/138/73 115/149/84 
f 104/138/73 106/140/75 115/149/84 
f 106/140/75 108/142/77 115/149/84 
f 108/142/77 110/144/79 115/149/84 
f 110/144/79 112/146/81 115/149/84 
f 112/146/81 114/148/83 115/149/84 
f 114/148/83 99/133/68 115/149/84 
# 8 polygons - 8 triangles

#
# object E5_1_pSphere147
#

v  -86.2666 -116.1096 26.7021
v  -86.1117 -116.0681 26.4600
v  -86.3669 -115.7355 26.4600
v  -86.4471 -115.8744 26.7021
v  -86.7826 -115.6807 26.4600
v  -86.7410 -115.8357 26.7021
v  -87.1151 -115.9360 26.4600
v  -86.9762 -116.0162 26.7021
v  -87.1699 -116.3516 26.4600
v  -87.0149 -116.3101 26.7021
v  -86.9146 -116.6842 26.4600
v  -86.8344 -116.5452 26.7021
v  -86.4990 -116.7389 26.4600
v  -86.5405 -116.5839 26.7021
v  -86.1664 -116.4837 26.4600
v  -86.3053 -116.4035 26.7021
v  -86.6408 -116.2098 26.8024
# 17 vertices

vn 0.6859 0.1838 0.7041
vn 0.8052 0.2158 0.5523
vn 0.4168 0.7219 0.5523
vn 0.3551 0.6150 0.7041
vn -0.2158 0.8052 0.5523
vn -0.1838 0.6859 0.7041
vn -0.7219 0.4168 0.5523
vn -0.6150 0.3551 0.7041
vn -0.8052 -0.2158 0.5523
vn -0.6859 -0.1838 0.7041
vn -0.4168 -0.7219 0.5523
vn -0.3551 -0.6150 0.7041
vn 0.2157 -0.8052 0.5523
vn 0.1838 -0.6859 0.7041
vn 0.7219 -0.4168 0.5523
vn 0.6150 -0.3551 0.7041
vn -0.0000 0.0000 1.0000
# 17 vertex normals

vt 0.9926 0.9925 0.0000
vt 0.9952 0.9951 0.0000
vt 0.9862 0.9988 0.0000
vt 0.9862 0.9951 0.0000
vt 0.9772 0.9951 0.0000
vt 0.9799 0.9925 0.0000
vt 0.9735 0.9861 0.0000
vt 0.9772 0.9861 0.0000
vt 0.9772 0.9772 0.0000
vt 0.9799 0.9798 0.0000
vt 0.9862 0.9735 0.0000
vt 0.9862 0.9772 0.0000
vt 0.9952 0.9772 0.0000
vt 0.9926 0.9798 0.0000
vt 0.9989 0.9861 0.0000
vt 0.9952 0.9861 0.0000
vt 0.9862 0.9861 0.0000
# 17 texture coords

g E5_1_pSphere147
usemtl _E5_3JiGui_3_matSG
s 1
f 116/150/85 117/151/86 118/152/87 119/153/88 
f 120/154/89 121/155/90 119/153/88 118/152/87 
f 122/156/91 123/157/92 121/155/90 120/154/89 
f 124/158/93 125/159/94 123/157/92 122/156/91 
f 125/159/94 124/158/93 126/160/95 127/161/96 
f 126/160/95 128/162/97 129/163/98 127/161/96 
f 130/164/99 131/165/100 129/163/98 128/162/97 
f 130/164/99 117/151/86 116/150/85 131/165/100 
f 116/150/85 119/153/88 132/166/101 
f 119/153/88 121/155/90 132/166/101 
f 121/155/90 123/157/92 132/166/101 
f 123/157/92 125/159/94 132/166/101 
f 125/159/94 127/161/96 132/166/101 
f 127/161/96 129/163/98 132/166/101 
f 129/163/98 131/165/100 132/166/101 
f 131/165/100 116/150/85 132/166/101 
# 8 polygons - 8 triangles

