# 3ds Max Wavefront OBJ Exporter v0.97b - (c)2007 guruware
# 创建的文件:29.03.2018 16:54:05

mtllib 水泵房模型\分控柜.mtl

#
# object Box052
#

v  601.3801 -56.5073 323.5498
v  601.3801 -56.5073 390.2390
v  512.4346 -56.5073 390.2390
v  512.4346 -56.5073 323.5498
v  601.3801 100.0000 323.5498
v  512.4346 100.0000 323.5498
v  512.4346 100.0000 390.2390
v  601.3801 100.0000 390.2390
# 8 vertices

vn 0.0000 -1.0000 -0.0000
vn 0.0000 -1.0000 -0.0000
vn 0.0000 -1.0000 -0.0000
vn 0.0000 -1.0000 -0.0000
vn 0.0000 -1.0000 -0.0000
vn 0.0000 -1.0000 -0.0000
vn 0.0000 1.0000 -0.0000
vn 0.0000 1.0000 -0.0000
vn 0.0000 1.0000 -0.0000
vn 0.0000 1.0000 -0.0000
vn 0.0000 1.0000 -0.0000
vn 0.0000 1.0000 -0.0000
vn 0.0000 0.0000 1.0000
vn 0.0000 0.0000 1.0000
vn 0.0000 0.0000 1.0000
vn 0.0000 0.0000 1.0000
vn 0.0000 0.0000 1.0000
vn 0.0000 0.0000 1.0000
vn 1.0000 0.0000 -0.0000
vn 1.0000 0.0000 -0.0000
vn 1.0000 0.0000 -0.0000
vn 1.0000 0.0000 -0.0000
vn 1.0000 0.0000 -0.0000
vn 1.0000 0.0000 -0.0000
vn -0.0000 0.0000 -1.0000
vn -0.0000 0.0000 -1.0000
vn -0.0000 0.0000 -1.0000
vn -0.0000 0.0000 -1.0000
vn 0.0000 0.0000 -1.0000
vn -0.0000 0.0000 -1.0000
vn -1.0000 0.0000 -0.0000
vn -1.0000 0.0000 -0.0000
vn -1.0000 0.0000 -0.0000
vn -1.0000 0.0000 -0.0000
vn -1.0000 0.0000 -0.0000
vn -1.0000 0.0000 -0.0000
# 36 vertex normals

vt 0.5172 0.3925 0.0000
vt 0.5172 0.0820 0.0000
vt 0.8946 0.0820 0.0000
vt 0.8946 0.3925 0.0000
vt 0.4307 0.9800 0.0000
vt 0.0342 0.9800 0.0000
vt 0.0342 0.0398 0.0000
vt 0.4307 0.0398 0.0000
vt 0.4988 0.9871 0.0000
vt 0.9062 0.9871 0.0000
vt 0.9062 0.0340 0.0000
vt 0.4988 0.0340 0.0000
vt 0.4308 0.9803 0.0000
vt 0.0344 0.9803 0.0000
vt 0.0344 0.0401 0.0000
vt 0.4308 0.0401 0.0000
# 16 texture coords

o Box052
g Box052
usemtl Material__47
s 2
f 1/1/1 2/2/2 3/3/3 
f 3/3/4 4/4/5 1/1/6 
s 4
f 5/4/7 6/1/8 7/2/9 
f 7/2/10 8/3/11 5/4/12 
s 8
f 8/5/13 7/6/14 3/7/15 
f 3/7/16 2/8/17 8/5/18 
s 16
f 5/9/19 8/10/20 2/11/21 
f 2/11/22 1/12/23 5/9/24 
s 32
f 6/13/25 5/14/26 1/15/27 
f 1/15/28 4/16/29 6/13/30 
s 64
f 7/9/31 6/10/32 4/11/33 
f 4/11/34 3/12/35 7/9/36 
# 12 faces

