# 3ds Max Wavefront OBJ Exporter v0.97b - (c)2007 guruware
# 创建的文件:29.03.2018 21:16:05

mtllib 水泵房模型\水管.mtl

#
# object Cylinder001
#

v  58.4338 29.8795 130.9135
v  58.4338 26.5426 130.3251
v  101.0570 26.5426 130.3251
v  101.0570 29.8795 130.9135
v  58.4338 23.6081 128.6309
v  101.0570 23.6081 128.6309
v  58.4338 21.4301 126.0352
v  101.0570 21.4301 126.0352
v  58.4338 20.2712 122.8511
v  101.0570 20.2712 122.8511
v  58.4338 20.2712 119.4627
v  101.0570 20.2712 119.4627
v  58.4338 21.4301 116.2786
v  101.0570 21.4301 116.2786
v  58.4338 23.6081 113.6829
v  101.0570 23.6081 113.6829
v  58.4338 26.5426 111.9887
v  101.0570 26.5426 111.9887
v  58.4338 29.8795 111.4003
v  101.0570 29.8795 111.4003
v  58.4338 33.2165 111.9887
v  101.0570 33.2165 111.9887
v  58.4338 36.1509 113.6829
v  101.0570 36.1509 113.6829
v  58.4338 38.3290 116.2786
v  101.0570 38.3290 116.2786
v  58.4338 39.4879 119.4627
v  101.0570 39.4879 119.4627
v  58.4338 39.4879 122.8511
v  101.0570 39.4879 122.8511
v  58.4338 38.3290 126.0352
v  101.0570 38.3290 126.0352
v  58.4338 36.1509 128.6309
v  101.0570 36.1509 128.6309
v  58.4338 33.2165 130.3251
v  101.0570 33.2165 130.3251
# 36 vertices

vn -0.0000 0.0000 1.0000
vn -0.0000 -0.3420 0.9397
vn -0.0000 -0.3420 0.9397
vn -0.0000 -0.3420 0.9397
vn -0.0000 0.0000 1.0000
vn -0.0000 0.0000 1.0000
vn -0.0000 -0.3420 0.9397
vn -0.0000 -0.6428 0.7660
vn -0.0000 -0.6428 0.7660
vn -0.0000 -0.6428 0.7660
vn -0.0000 -0.3420 0.9397
vn -0.0000 -0.3420 0.9397
vn -0.0000 -0.6428 0.7660
vn -0.0000 -0.8660 0.5000
vn -0.0000 -0.8660 0.5000
vn -0.0000 -0.8660 0.5000
vn -0.0000 -0.6428 0.7660
vn -0.0000 -0.6428 0.7660
vn -0.0000 -0.8660 0.5000
vn 0.0000 -0.9848 0.1736
vn 0.0000 -0.9848 0.1736
vn 0.0000 -0.9848 0.1736
vn -0.0000 -0.8660 0.5000
vn -0.0000 -0.8660 0.5000
vn 0.0000 -0.9848 0.1736
vn 0.0000 -0.9848 -0.1736
vn 0.0000 -0.9848 -0.1736
vn 0.0000 -0.9848 -0.1736
vn 0.0000 -0.9848 0.1736
vn 0.0000 -0.9848 0.1736
vn 0.0000 -0.9848 -0.1736
vn 0.0000 -0.8660 -0.5000
vn 0.0000 -0.8660 -0.5000
vn 0.0000 -0.8660 -0.5000
vn 0.0000 -0.9848 -0.1736
vn 0.0000 -0.9848 -0.1736
vn 0.0000 -0.8660 -0.5000
vn 0.0000 -0.6428 -0.7660
vn 0.0000 -0.6428 -0.7660
vn 0.0000 -0.6428 -0.7660
vn 0.0000 -0.8660 -0.5000
vn 0.0000 -0.8660 -0.5000
vn 0.0000 -0.6428 -0.7660
vn 0.0000 -0.3420 -0.9397
vn 0.0000 -0.3420 -0.9397
vn 0.0000 -0.3420 -0.9397
vn 0.0000 -0.6428 -0.7660
vn 0.0000 -0.6428 -0.7660
vn 0.0000 -0.3420 -0.9397
vn 0.0000 -0.0000 -1.0000
vn 0.0000 -0.0000 -1.0000
vn 0.0000 -0.0000 -1.0000
vn 0.0000 -0.3420 -0.9397
vn 0.0000 -0.3420 -0.9397
vn 0.0000 -0.0000 -1.0000
vn 0.0000 0.3420 -0.9397
vn 0.0000 0.3420 -0.9397
vn 0.0000 0.3420 -0.9397
vn 0.0000 -0.0000 -1.0000
vn 0.0000 -0.0000 -1.0000
vn 0.0000 0.3420 -0.9397
vn 0.0000 0.6428 -0.7660
vn 0.0000 0.6428 -0.7660
vn 0.0000 0.6428 -0.7660
vn 0.0000 0.3420 -0.9397
vn 0.0000 0.3420 -0.9397
vn 0.0000 0.6428 -0.7660
vn 0.0000 0.8660 -0.5000
vn 0.0000 0.8660 -0.5000
vn 0.0000 0.8660 -0.5000
vn 0.0000 0.6428 -0.7660
vn 0.0000 0.6428 -0.7660
vn 0.0000 0.8660 -0.5000
vn -0.0000 0.9848 -0.1736
vn -0.0000 0.9848 -0.1736
vn -0.0000 0.9848 -0.1736
vn 0.0000 0.8660 -0.5000
vn 0.0000 0.8660 -0.5000
vn -0.0000 0.9848 -0.1736
vn -0.0000 0.9848 0.1736
vn -0.0000 0.9848 0.1736
vn -0.0000 0.9848 0.1736
vn -0.0000 0.9848 -0.1736
vn -0.0000 0.9848 -0.1736
vn -0.0000 0.9848 0.1736
vn -0.0000 0.8660 0.5000
vn -0.0000 0.8660 0.5000
vn -0.0000 0.8660 0.5000
vn -0.0000 0.9848 0.1736
vn -0.0000 0.9848 0.1736
vn -0.0000 0.8660 0.5000
vn -0.0000 0.6428 0.7660
vn -0.0000 0.6428 0.7660
vn -0.0000 0.6428 0.7660
vn -0.0000 0.8660 0.5000
vn -0.0000 0.8660 0.5000
vn -0.0000 0.6428 0.7660
vn -0.0000 0.3420 0.9397
vn -0.0000 0.3420 0.9397
vn -0.0000 0.3420 0.9397
vn -0.0000 0.6428 0.7660
vn -0.0000 0.6428 0.7660
vn -0.0000 0.3420 0.9397
vn -0.0000 0.0000 1.0000
vn -0.0000 0.0000 1.0000
vn -0.0000 0.0000 1.0000
vn -0.0000 0.3420 0.9397
vn -0.0000 0.3420 0.9397
# 108 vertex normals

vt 0.7602 0.1411 0.0000
vt 0.7602 0.1953 0.0000
vt 0.0677 0.1953 0.0000
vt 0.0677 0.1411 0.0000
vt 0.7602 0.2430 0.0000
vt 0.0677 0.2430 0.0000
vt 0.0392 0.2661 0.0000
vt 0.0815 0.2661 0.0000
vt 0.0815 0.9608 0.0000
vt 0.0392 0.9608 0.0000
vt 0.1334 0.2661 0.0000
vt 0.1334 0.9608 0.0000
vt 0.1886 0.2661 0.0000
vt 0.1886 0.9608 0.0000
vt 0.2405 0.2661 0.0000
vt 0.2405 0.9608 0.0000
vt 0.2828 0.2661 0.0000
vt 0.2828 0.9608 0.0000
vt 0.5732 0.2672 0.0000
vt 0.6209 0.2672 0.0000
vt 0.6209 0.9597 0.0000
vt 0.5732 0.9597 0.0000
vt 0.6751 0.2672 0.0000
vt 0.6751 0.9597 0.0000
vt 0.7294 0.2672 0.0000
vt 0.7294 0.9597 0.0000
vt 0.7770 0.2672 0.0000
vt 0.7770 0.9597 0.0000
vt 0.3071 0.2661 0.0000
vt 0.3494 0.2661 0.0000
vt 0.3494 0.9608 0.0000
vt 0.3071 0.9608 0.0000
vt 0.4013 0.2661 0.0000
vt 0.4013 0.9608 0.0000
vt 0.4565 0.2661 0.0000
vt 0.4565 0.9608 0.0000
vt 0.5084 0.2661 0.0000
vt 0.5084 0.9608 0.0000
vt 0.5507 0.2661 0.0000
vt 0.5507 0.9608 0.0000
vt 0.7602 0.0392 0.0000
vt 0.7602 0.0869 0.0000
vt 0.0677 0.0869 0.0000
vt 0.0677 0.0392 0.0000
# 44 texture coords

o Cylinder001
g Cylinder001
usemtl Material__414
s 8
f 1/1/1 2/2/2 3/3/3 
f 3/3/4 4/4/5 1/1/6 
f 2/2/7 5/5/8 6/6/9 
f 6/6/10 3/3/11 2/2/12 
f 5/7/13 7/8/14 8/9/15 
f 8/9/16 6/10/17 5/7/18 
f 7/8/19 9/11/20 10/12/21 
f 10/12/22 8/9/23 7/8/24 
f 9/11/25 11/13/26 12/14/27 
f 12/14/28 10/12/29 9/11/30 
f 11/13/31 13/15/32 14/16/33 
f 14/16/34 12/14/35 11/13/36 
f 13/15/37 15/17/38 16/18/39 
f 16/18/40 14/16/41 13/15/42 
f 15/19/43 17/20/44 18/21/45 
f 18/21/46 16/22/47 15/19/48 
f 17/20/49 19/23/50 20/24/51 
f 20/24/52 18/21/53 17/20/54 
f 19/23/55 21/25/56 22/26/57 
f 22/26/58 20/24/59 19/23/60 
f 21/25/61 23/27/62 24/28/63 
f 24/28/64 22/26/65 21/25/66 
f 23/29/67 25/30/68 26/31/69 
f 26/31/70 24/32/71 23/29/72 
f 25/30/73 27/33/74 28/34/75 
f 28/34/76 26/31/77 25/30/78 
f 27/33/79 29/35/80 30/36/81 
f 30/36/82 28/34/83 27/33/84 
f 29/35/85 31/37/86 32/38/87 
f 32/38/88 30/36/89 29/35/90 
f 31/37/91 33/39/92 34/40/93 
f 34/40/94 32/38/95 31/37/96 
f 33/41/97 35/42/98 36/43/99 
f 36/43/100 34/44/101 33/41/102 
f 35/42/103 1/1/104 4/4/105 
f 4/4/106 36/43/107 35/42/108 
# 36 faces

