# 3ds Max Wavefront OBJ Exporter v0.97b - (c)2007 guruware
# 创建的文件:29.03.2018 18:11:44

mtllib 水泵房模型\水箱.mtl

#
# object Box001
#

v  -31.1446 0.0000 33.7952
v  -31.1446 0.0000 -36.2048
v  38.8554 0.0000 -36.2048
v  38.8554 0.0000 33.7952
v  -31.1446 100.0000 33.7952
v  38.8554 100.0000 33.7952
v  38.8554 100.0000 -36.2048
v  -31.1446 100.0000 -36.2048
# 8 vertices

vn 0.0000 -1.0000 -0.0000
vn 0.0000 -1.0000 -0.0000
vn 0.0000 -1.0000 -0.0000
vn 0.0000 -1.0000 -0.0000
vn 0.0000 -1.0000 -0.0000
vn 0.0000 -1.0000 -0.0000
vn 0.0000 1.0000 -0.0000
vn 0.0000 1.0000 -0.0000
vn 0.0000 1.0000 -0.0000
vn 0.0000 1.0000 -0.0000
vn 0.0000 1.0000 -0.0000
vn 0.0000 1.0000 -0.0000
vn 0.0000 0.0000 1.0000
vn 0.0000 0.0000 1.0000
vn 0.0000 0.0000 1.0000
vn 0.0000 0.0000 1.0000
vn 0.0000 0.0000 1.0000
vn 0.0000 0.0000 1.0000
vn 1.0000 0.0000 -0.0000
vn 1.0000 0.0000 -0.0000
vn 1.0000 0.0000 -0.0000
vn 1.0000 0.0000 -0.0000
vn 1.0000 0.0000 -0.0000
vn 1.0000 0.0000 -0.0000
vn 0.0000 0.0000 -1.0000
vn 0.0000 0.0000 -1.0000
vn 0.0000 0.0000 -1.0000
vn 0.0000 0.0000 -1.0000
vn 0.0000 0.0000 -1.0000
vn 0.0000 0.0000 -1.0000
vn -1.0000 0.0000 -0.0000
vn -1.0000 0.0000 -0.0000
vn -1.0000 0.0000 -0.0000
vn -1.0000 0.0000 -0.0000
vn -1.0000 0.0000 -0.0000
vn -1.0000 0.0000 -0.0000
# 36 vertex normals

vt 1.0000 0.3215 0.0000
vt 1.0000 1.0000 0.0000
vt 0.0000 1.0000 0.0000
vt 0.0000 0.3215 0.0000
vt 0.0000 0.0000 0.0000
vt 1.0000 0.0000 0.0000
# 6 texture coords

o Box001
g Box001
usemtl Material__29
s 2
f 1/1/1 2/2/2 3/3/3 
f 3/3/4 4/4/5 1/1/6 
s 4
f 5/4/7 6/1/8 7/2/9 
f 7/2/10 8/3/11 5/4/12 
s 8
f 1/5/13 4/6/14 6/2/15 
f 6/2/16 5/3/17 1/5/18 
s 16
f 4/5/19 3/6/20 7/2/21 
f 7/2/22 6/3/23 4/5/24 
s 32
f 3/5/25 2/6/26 8/2/27 
f 8/2/28 7/3/29 3/5/30 
s 64
f 2/5/31 1/6/32 5/2/33 
f 5/2/34 8/3/35 2/5/36 
# 12 faces

