# 3ds Max Wavefront OBJ Exporter v0.97b - (c)2007 guruware
# 创建的文件:28.03.2018 16:31:15

mtllib 水泵房模型\消毒仪控箱.mtl

#
# object Box008
#

v  -60.8722 0.0000 160.6769
v  -60.8722 0.0000 188.9897
v  -130.8722 0.0000 188.9897
v  -130.8722 0.0000 160.6769
v  -60.8722 100.0000 160.6769
v  -130.8722 100.0000 160.6769
v  -130.8722 100.0000 188.9897
v  -60.8722 100.0000 188.9897
# 8 vertices

vn 0.0000 -1.0000 -0.0000
vn 0.0000 -1.0000 -0.0000
vn 0.0000 -1.0000 -0.0000
vn 0.0000 -1.0000 -0.0000
vn 0.0000 -1.0000 -0.0000
vn 0.0000 -1.0000 -0.0000
vn 0.0000 1.0000 -0.0000
vn 0.0000 1.0000 -0.0000
vn 0.0000 1.0000 -0.0000
vn 0.0000 1.0000 -0.0000
vn 0.0000 1.0000 -0.0000
vn 0.0000 1.0000 -0.0000
vn 0.0000 0.0000 1.0000
vn 0.0000 0.0000 1.0000
vn 0.0000 0.0000 1.0000
vn 0.0000 0.0000 1.0000
vn 0.0000 0.0000 1.0000
vn 0.0000 0.0000 1.0000
vn 1.0000 0.0000 -0.0000
vn 1.0000 0.0000 -0.0000
vn 1.0000 0.0000 -0.0000
vn 1.0000 0.0000 -0.0000
vn 1.0000 0.0000 -0.0000
vn 1.0000 0.0000 -0.0000
vn 0.0000 0.0000 -1.0000
vn 0.0000 0.0000 -1.0000
vn 0.0000 0.0000 -1.0000
vn 0.0000 0.0000 -1.0000
vn 0.0000 0.0000 -1.0000
vn 0.0000 0.0000 -1.0000
vn -1.0000 0.0000 -0.0000
vn -1.0000 0.0000 -0.0000
vn -1.0000 0.0000 -0.0000
vn -1.0000 0.0000 -0.0000
vn -1.0000 0.0000 -0.0000
vn -1.0000 0.0000 -0.0000
# 36 vertex normals

vt 0.0453 0.4069 0.0000
vt 0.0453 0.0408 0.0000
vt 0.6287 0.0408 0.0000
vt 0.6287 0.4069 0.0000
vt 0.7556 0.9998 0.0000
vt 0.0007 0.9998 0.0000
vt 0.0007 -0.0013 0.0000
vt 0.7556 -0.0013 0.0000
vt 0.7524 1.0011 0.0000
vt 0.9982 1.0011 0.0000
vt 0.9982 -0.0007 0.0000
vt 0.7524 -0.0007 0.0000
vt 0.7559 1.0001 0.0000
vt 0.0010 1.0001 0.0000
vt 0.0010 -0.0010 0.0000
vt 0.7559 -0.0010 0.0000
# 16 texture coords

o Box008
g Box008
usemtl Material__32
s 2
f 1/1/1 2/2/2 3/3/3 
f 3/3/4 4/4/5 1/1/6 
s 4
f 5/4/7 6/1/8 7/2/9 
f 7/2/10 8/3/11 5/4/12 
s 8
f 8/5/13 7/6/14 3/7/15 
f 3/7/16 2/8/17 8/5/18 
s 16
f 5/9/19 8/10/20 2/11/21 
f 2/11/22 1/12/23 5/9/24 
s 32
f 6/13/25 5/14/26 1/15/27 
f 1/15/28 4/16/29 6/13/30 
s 64
f 7/9/31 6/10/32 4/11/33 
f 4/11/34 3/12/35 7/9/36 
# 12 faces

