# 3ds Max Wavefront OBJ Exporter v0.97b - (c)2007 guruware
# 创建的文件:29.03.2018 14:49:15

mtllib 水泵房模型\照明柜.mtl

#
# object Box030
#

v  218.7831 0.0000 160.6769
v  218.7831 0.0000 188.9897
v  148.7831 0.0000 188.9897
v  148.7831 0.0000 160.6769
v  218.7831 100.0000 160.6769
v  148.7831 100.0000 160.6769
v  148.7831 100.0000 188.9897
v  218.7831 100.0000 188.9897
# 8 vertices

vn 0.0000 -1.0000 -0.0000
vn 0.0000 -1.0000 -0.0000
vn 0.0000 -1.0000 -0.0000
vn 0.0000 -1.0000 -0.0000
vn 0.0000 -1.0000 -0.0000
vn 0.0000 -1.0000 -0.0000
vn 0.0000 1.0000 -0.0000
vn 0.0000 1.0000 -0.0000
vn 0.0000 1.0000 -0.0000
vn 0.0000 1.0000 -0.0000
vn 0.0000 1.0000 -0.0000
vn 0.0000 1.0000 -0.0000
vn 0.0000 0.0000 1.0000
vn 0.0000 0.0000 1.0000
vn 0.0000 0.0000 1.0000
vn 0.0000 0.0000 1.0000
vn 0.0000 0.0000 1.0000
vn 0.0000 0.0000 1.0000
vn 1.0000 0.0000 -0.0000
vn 1.0000 0.0000 -0.0000
vn 1.0000 0.0000 -0.0000
vn 1.0000 0.0000 -0.0000
vn 1.0000 0.0000 -0.0000
vn 1.0000 0.0000 -0.0000
vn 0.0000 0.0000 -1.0000
vn 0.0000 0.0000 -1.0000
vn 0.0000 0.0000 -1.0000
vn 0.0000 0.0000 -1.0000
vn 0.0000 0.0000 -1.0000
vn 0.0000 0.0000 -1.0000
vn -1.0000 0.0000 -0.0000
vn -1.0000 0.0000 -0.0000
vn -1.0000 0.0000 -0.0000
vn -1.0000 0.0000 -0.0000
vn -1.0000 0.0000 -0.0000
vn -1.0000 0.0000 -0.0000
# 36 vertex normals

vt 0.0453 0.4069 0.0000
vt 0.0453 0.0408 0.0000
vt 0.6287 0.0408 0.0000
vt 0.6287 0.4069 0.0000
vt 0.7556 1.0245 0.0000
vt -0.0343 1.0245 0.0000
vt -0.0343 -0.0199 0.0000
vt 0.7556 -0.0199 0.0000
vt 0.6662 0.0010 0.0000
vt 0.9991 0.0010 0.0000
vt 0.9991 1.0025 0.0000
vt 0.6662 1.0025 0.0000
vt 0.7516 1.0205 0.0000
vt -0.0340 1.0205 0.0000
vt -0.0340 -0.0195 0.0000
vt 0.7516 -0.0195 0.0000
vt 1.0096 0.9990 0.0000
vt 0.6732 0.9990 0.0000
vt 0.6732 0.0010 0.0000
vt 1.0096 0.0010 0.0000
# 20 texture coords

o Box030
g Box030
usemtl Material__42
s 2
f 1/1/1 2/2/2 3/3/3 
f 3/3/4 4/4/5 1/1/6 
s 4
f 5/4/7 6/1/8 7/2/9 
f 7/2/10 8/3/11 5/4/12 
s 8
f 8/5/13 7/6/14 3/7/15 
f 3/7/16 2/8/17 8/5/18 
s 16
f 5/9/19 8/10/20 2/11/21 
f 2/11/22 1/12/23 5/9/24 
s 32
f 6/13/25 5/14/26 1/15/27 
f 1/15/28 4/16/29 6/13/30 
s 64
f 7/17/31 6/18/32 4/19/33 
f 4/19/34 3/20/35 7/17/36 
# 12 faces

