# 3ds Max Wavefront OBJ Exporter v0.97b - (c)2007 guruware
# File Created: 08.05.2019 11:04:17

mtllib jigui.mtl

#
# object Box001
#

v  -22.0929 0.4101 -0.0000
v  22.0929 0.4101 -0.0000
v  -22.0929 153.8795 0.0000
v  22.0929 153.8795 0.0000
v  -22.0929 0.4101 -36.5236
v  22.0929 0.4101 -36.5236
v  -22.0929 153.8795 -36.5235
v  22.0929 153.8795 -36.5235
# 8 vertices

vn 0.0000 -0.0000 1.0000
vn 0.0000 -0.0000 1.0000
vn 0.0000 -0.0000 1.0000
vn 0.0000 -0.0000 1.0000
vn 0.0000 0.0000 -1.0000
vn 0.0000 0.0000 -1.0000
vn 0.0000 0.0000 -1.0000
vn 0.0000 0.0000 -1.0000
vn 0.0000 -1.0000 -0.0000
vn 0.0000 -1.0000 -0.0000
vn 0.0000 -1.0000 -0.0000
vn 0.0000 -1.0000 -0.0000
vn 1.0000 0.0000 -0.0000
vn 1.0000 0.0000 -0.0000
vn 1.0000 0.0000 -0.0000
vn 1.0000 0.0000 -0.0000
vn 0.0000 1.0000 -0.0000
vn 0.0000 1.0000 -0.0000
vn 0.0000 1.0000 -0.0000
vn 0.0000 1.0000 -0.0000
vn -1.0000 0.0000 -0.0000
vn -1.0000 0.0000 -0.0000
vn -1.0000 0.0000 -0.0000
vn -1.0000 0.0000 -0.0000
# 24 vertex normals

vt 0.1426 0.1850 0.0000
vt 0.3222 0.1850 0.0000
vt 0.3222 0.8089 0.0000
vt 0.1426 0.8089 0.0000
vt 0.6948 0.1864 0.0000
vt 0.6948 0.8103 0.0000
vt 0.5152 0.8103 0.0000
vt 0.5152 0.1864 0.0000
vt 0.6948 0.0379 0.0000
vt 0.5152 0.0379 0.0000
vt 0.3667 0.1864 0.0000
vt 0.3667 0.8103 0.0000
vt 0.5152 0.9588 0.0000
vt 0.6948 0.9588 0.0000
vt 0.8433 0.8103 0.0000
vt 0.8433 0.1864 0.0000
# 16 texture coords

g Box001
usemtl 01___Default
s 2
f 1/1/1 2/2/2 4/3/3 3/4/4 
s 4
f 5/5/5 7/6/6 8/7/7 6/8/8 
s 8
f 1/9/9 5/5/10 6/8/11 2/10/12 
s 16
f 2/11/13 6/8/14 8/7/15 4/12/16 
s 32
f 4/13/17 8/7/18 7/6/19 3/14/20 
s 64
f 3/15/21 7/6/22 5/5/23 1/16/24 
# 6 polygons

