# 3ds Max Wavefront OBJ Exporter v0.97b - (c)2007 guruware
# File Created: 08.05.2019 11:18:12

mtllib jx.mtl

#
# object Box001
#

v  -16.7696 0.0000 15.0693
v  16.7696 0.0000 15.0693
v  -16.7696 0.0000 -15.0693
v  16.7696 0.0000 -15.0693
v  -16.7696 47.0871 15.0693
v  16.7696 47.0871 15.0693
v  -16.7696 47.0871 -15.0693
v  16.7696 47.0871 -15.0693
# 8 vertices

vn 0.0000 -1.0000 -0.0000
vn 0.0000 -1.0000 -0.0000
vn 0.0000 -1.0000 -0.0000
vn 0.0000 -1.0000 -0.0000
vn 0.0000 1.0000 -0.0000
vn 0.0000 1.0000 -0.0000
vn 0.0000 1.0000 -0.0000
vn 0.0000 1.0000 -0.0000
vn 0.0000 0.0000 1.0000
vn 0.0000 0.0000 1.0000
vn 0.0000 0.0000 1.0000
vn 0.0000 0.0000 1.0000
vn 1.0000 0.0000 -0.0000
vn 1.0000 0.0000 -0.0000
vn 1.0000 0.0000 -0.0000
vn 1.0000 0.0000 -0.0000
vn 0.0000 0.0000 -1.0000
vn 0.0000 0.0000 -1.0000
vn 0.0000 0.0000 -1.0000
vn 0.0000 0.0000 -1.0000
vn -1.0000 0.0000 -0.0000
vn -1.0000 0.0000 -0.0000
vn -1.0000 0.0000 -0.0000
vn -1.0000 0.0000 -0.0000
# 24 vertex normals

vt 0.4532 0.0442 0.0000
vt 0.4532 0.2955 0.0000
vt 0.2353 0.2955 0.0000
vt 0.2353 0.0442 0.0000
vt 0.4532 0.9395 0.0000
vt 0.2353 0.9395 0.0000
vt 0.2353 0.6882 0.0000
vt 0.4532 0.6882 0.0000
vt 0.7324 0.5307 0.0000
vt 0.9503 0.5307 0.0000
vt 0.9503 0.9234 0.0000
vt 0.7324 0.9234 0.0000
vt 0.0396 0.2955 0.0000
vt 0.0396 0.6882 0.0000
vt 0.6489 0.2955 0.0000
vt 0.6489 0.6882 0.0000
# 16 texture coords

g Box001
usemtl 01___Default
s 2
f 1/1/1 3/2/2 4/3/3 2/4/4 
s 4
f 5/5/5 6/6/6 8/7/7 7/8/8 
s 8
f 1/9/9 2/10/10 6/11/11 5/12/12 
s 16
f 2/13/13 4/3/14 8/7/15 6/14/16 
s 32
f 4/3/17 3/2/18 7/8/19 8/7/20 
s 64
f 3/2/21 1/15/22 5/16/23 7/8/24 
# 6 polygons

