# 3ds Max Wavefront OBJ Exporter v0.97b - (c)2007 guruware
# 创建的文件:22.12.2017 12:13:44

mtllib 门板.mtl

#
# object Rectangle063
#

v  1098985.5000 2612.8840 -49718.1016
v  1098994.0000 2629.5762 -49718.2383
v  1099010.3750 2621.9978 -49718.5039
v  1098985.5000 2599.1431 -49718.1016
# 4 vertices

vn -0.0162 -0.0000 -0.9999
# 1 vertex normals

g Rectangle063
usemtl touying
s 1
f 1//1 2//1 3//1 
f 3//1 4//1 1//1 
# 2 faces

#
# object Rectangle065
#

v  1098984.8750 2612.8840 -49751.6484
v  1098993.3750 2629.5762 -49751.7852
v  1099009.7500 2621.9978 -49752.0508
v  1098984.8750 2599.1431 -49751.6484
# 4 vertices

vn 0.0162 0.0000 0.9999
vn 0.0162 -0.0000 0.9999
# 2 vertex normals

g Rectangle065
usemtl touying
s 1
f 7//2 6//2 5//2 
f 5//2 8//3 7//2 
# 2 faces

#
# object Rectangle062
#

v  1098922.1250 2609.7224 -49721.5234
v  1098986.0000 2612.6477 -49722.5625
v  1098986.0000 2599.1431 -49722.5625
v  1098922.1250 2602.3381 -49721.5234
# 4 vertices

vn -0.0162 -0.0000 -0.9999
# 1 vertex normals

g Rectangle062
usemtl touying
s 1
f 9//4 10//4 11//4 
f 11//4 12//4 9//4 
# 2 faces

#
# object Rectangle064
#

v  1098921.7500 2609.7224 -49746.1680
v  1098985.6250 2612.6477 -49747.2070
v  1098985.6250 2599.1431 -49747.2070
v  1098921.7500 2602.3381 -49746.1680
# 4 vertices

vn 0.0162 0.0000 0.9999
vn 0.0162 -0.0000 0.9999
# 2 vertex normals

g Rectangle064
usemtl touying
s 1
f 15//6 14//6 13//5 
f 13//5 16//5 15//6 
# 2 faces

#
# object Box664
#

v  1099054.8750 2305.0010 -49745.7734
v  1098736.1250 2305.0010 -49740.5977
v  1098736.1250 2975.2114 -49740.5977
v  1099054.8750 2975.2114 -49745.7734
v  1099055.2500 2305.0010 -49725.4102
v  1099055.2500 2975.2114 -49725.4102
v  1098736.5000 2975.2114 -49720.2344
v  1098736.5000 2305.0010 -49720.2344
v  1099057.0000 2305.0010 -49741.8281
v  1099057.1250 2305.0010 -49729.4219
v  1099057.1250 2975.2114 -49729.4219
v  1099057.0000 2975.2114 -49741.8281
# 12 vertices

vn -0.0162 -0.0000 -0.9999
vn 0.0162 0.0000 0.9999
vn 0.0000 -1.0000 0.0000
vn -0.9999 0.0000 0.0162
vn -0.0000 1.0000 -0.0000
vn 0.9999 0.0000 -0.0162
vn 0.6955 -0.0000 -0.7185
vn 0.7185 0.0000 0.6955
# 8 vertex normals

vt -0.5669 0.0000 0.0000
vt -251.5859 0.0000 0.0000
vt -251.5859 263.8623 0.0000
vt -0.5669 263.8623 0.0000
vt 1.5669 0.0000 0.0000
vt 1.5669 263.8623 0.0000
vt 252.5859 263.8623 0.0000
vt 252.5859 0.0000 0.0000
vt 0.0000 -4.1180 0.0000
vt 0.0000 -16.9566 0.0000
vt 1.5669 -21.0746 0.0000
vt 252.5859 -21.0746 0.0000
vt 0.0000 0.0000 0.0000
vt 0.0000 -21.0746 0.0000
vt 263.8623 -21.0746 0.0000
vt 263.8623 0.0000 0.0000
vt 251.0190 -21.0746 0.0000
vt 252.5859 -16.9566 0.0000
vt 252.5859 -4.1180 0.0000
vt 251.0190 0.0000 0.0000
vt 263.8623 -16.9566 0.0000
vt 263.8623 -4.1180 0.0000
vt 0.0000 1.4370 0.0000
vt 263.8623 1.4370 0.0000
vt 263.8623 -22.5116 0.0000
vt 0.0000 -22.5116 0.0000
# 26 texture coords

g Box664
usemtl wwww
s 1
f 17/1/7 18/2/7 19/3/7 
f 19/3/7 20/4/7 17/1/7 
f 21/5/8 22/6/8 23/7/8 
f 23/7/8 24/8/8 21/5/8 
usemtl WWWqd
s 2
f 25/9/9 26/10/9 21/11/9 
f 25/9/9 21/11/9 24/12/9 
f 25/9/9 24/12/9 18/8/9 
f 17/5/9 25/9/9 18/8/9 
s 4
f 18/13/10 24/14/10 23/15/10 
f 23/15/10 19/16/10 18/13/10 
s 2
f 23/14/11 22/17/11 27/18/11 
f 19/13/11 23/14/11 27/18/11 
f 27/18/11 28/19/11 20/20/11 
f 19/13/11 27/18/11 20/20/11 
s 1
f 28/9/12 27/10/12 26/21/12 
f 26/21/12 25/22/12 28/9/12 
usemtl wwww
s 4
f 20/23/13 28/9/13 25/22/13 
f 25/22/13 17/24/13 20/23/13 
f 21/25/14 26/21/14 27/10/14 
f 27/10/14 22/26/14 21/25/14 
# 20 faces

#
# object Box665
#

v  1098829.1250 2918.8394 -49743.8008
v  1098769.0000 2918.8394 -49742.8242
v  1098769.0000 2947.6353 -49742.8242
v  1098829.1250 2947.6353 -49743.8008
v  1098829.5000 2918.8394 -49719.9922
v  1098829.5000 2947.6353 -49719.9922
v  1098769.3750 2947.6353 -49719.0156
v  1098769.3750 2918.8394 -49719.0156
# 8 vertices

vn -0.0162 -0.0000 -0.9999
vn 0.0162 0.0000 0.9999
vn 0.0000 -1.0000 0.0000
vn -0.9999 0.0000 0.0162
vn -0.0000 1.0000 -0.0000
vn 0.9999 0.0000 -0.0162
# 6 vertex normals

vt 1.0000 0.0000 0.0000
vt -251.5859 0.0000 0.0000
vt -251.5859 263.8623 0.0000
vt 1.0000 263.8623 0.0000
vt 0.0000 0.0000 0.0000
vt 0.0000 263.8623 0.0000
vt 252.5859 263.8623 0.0000
vt 252.5859 0.0000 0.0000
vt 0.0000 -21.0746 0.0000
vt 252.5859 -21.0746 0.0000
vt 263.8623 -21.0746 0.0000
vt 263.8623 0.0000 0.0000
# 12 texture coords

g Box665
usemtl WWWqd
s 2
f 29/27/15 30/28/15 31/29/15 
f 31/29/15 32/30/15 29/27/15 
s 4
f 33/31/16 34/32/16 35/33/16 
f 35/33/16 36/34/16 33/31/16 
s 8
f 29/31/17 33/35/17 36/36/17 
f 36/36/17 30/34/17 29/31/17 
s 16
f 30/31/18 36/35/18 35/37/18 
f 35/37/18 31/38/18 30/31/18 
s 32
f 31/31/19 35/35/19 34/36/19 
f 34/36/19 32/34/19 31/31/19 
s 64
f 32/31/20 34/35/20 33/37/20 
f 33/37/20 29/38/20 32/31/20 
# 12 faces

#
# object Box666
#

v  1098985.0000 2671.0195 -49751.3359
v  1099013.6250 2671.0195 -49751.7969
v  1099013.6250 2581.9121 -49751.7969
v  1098985.0000 2581.9121 -49751.3359
v  1099014.1250 2671.0195 -49718.9766
v  1098985.5000 2671.0195 -49718.5117
v  1098985.5000 2581.9121 -49718.5117
v  1099014.1250 2581.9121 -49718.9766
v  1099007.1250 2568.8638 -49747.8242
v  1099007.5000 2568.8638 -49722.7383
v  1098992.0000 2568.8638 -49722.4844
v  1098991.6250 2568.8638 -49747.5742
v  1098991.6250 2684.0991 -49747.5742
v  1098992.0000 2684.0991 -49722.4844
v  1099007.5000 2684.0991 -49722.7383
v  1099007.1250 2684.0991 -49747.8242
v  1098985.5000 2671.1040 -49718.5117
v  1098985.0000 2671.1040 -49751.3359
v  1099014.1250 2671.1040 -49718.9766
v  1099013.6250 2671.1040 -49751.7969
# 20 vertices

vn -0.0162 -0.0000 -0.9999
vn -0.0892 0.0732 -0.9933
vn -0.0162 -0.0975 -0.9951
vn 0.0162 0.0001 0.9999
vn 0.0891 0.0732 0.9933
vn 0.0162 -0.0975 0.9951
vn 0.0000 -1.0000 0.0000
vn -0.9999 0.0000 0.0162
vn -0.0000 1.0000 -0.0000
vn 0.9999 0.0000 -0.0162
vn 0.7085 -0.7057 -0.0115
vn -0.7085 -0.7057 0.0115
vn -0.7070 0.7071 0.0115
vn 0.7070 0.7071 -0.0115
vn -0.0161 0.0976 -0.9951
vn -0.0156 0.2853 -0.9583
vn -0.0156 0.2837 -0.9588
vn -0.3009 -0.0001 -0.9537
vn -0.0156 -0.2842 -0.9586
vn 0.0161 0.0978 0.9951
vn 0.0156 0.2853 0.9583
vn 0.0156 0.2837 0.9588
vn 0.3007 0.0001 0.9537
vn 0.0156 -0.2842 0.9586
# 24 vertex normals

vt -251.5859 165.9897 0.0000
vt 1.0000 165.9897 0.0000
vt 1.0000 63.8141 0.0000
vt -251.5859 63.8141 0.0000
vt 0.0000 165.9897 0.0000
vt 252.5859 165.9897 0.0000
vt 252.5859 63.8141 0.0000
vt 0.0000 63.8141 0.0000
vt 57.4838 0.0000 0.0000
vt 57.4838 -21.0746 0.0000
vt 195.1021 -21.0746 0.0000
vt 195.1021 0.0000 0.0000
vt 165.9897 -21.0746 0.0000
vt 165.9897 0.0000 0.0000
vt 63.8141 0.0000 0.0000
vt 63.8141 -21.0746 0.0000
vt 200.0482 -21.0746 0.0000
vt 200.0482 0.0000 0.0000
vt 97.8726 0.0000 0.0000
vt 97.8726 -21.0746 0.0000
vt 222.6029 -0.0000 0.0000
vt 222.6029 -21.0746 0.0000
vt 41.2594 -21.0746 0.0000
vt 41.2594 0.0000 0.0000
vt 19.1729 -21.0746 0.0000
vt 19.1729 -0.0000 0.0000
vt 29.7555 -21.0746 0.0000
vt 29.7555 0.0000 0.0000
vt 41.2594 -0.0000 0.0000
vt -251.5859 234.1068 0.0000
vt -194.1021 263.8623 0.0000
vt -56.4838 263.8623 0.0000
vt 1.0000 234.1068 0.0000
vt -56.4838 0.0000 0.0000
vt -194.1021 0.0000 0.0000
vt 0.0000 234.1068 0.0000
vt 57.4838 263.8623 0.0000
vt 195.1021 263.8623 0.0000
vt 252.5859 234.1068 0.0000
vt 234.1068 -21.0746 0.0000
vt 234.1068 0.0000 0.0000
# 41 texture coords

g Box666
usemtl WWWqd
s 1
f 37/39/21 38/40/22 39/41/23 
f 39/41/23 40/42/23 37/39/21 
f 41/43/24 42/44/25 43/45/26 
f 43/45/26 44/46/26 41/43/24 
s 2
f 45/47/27 46/48/27 47/49/27 
f 47/49/27 48/50/27 45/47/27 
f 42/51/28 37/52/28 40/53/28 
f 40/53/28 43/54/28 42/51/28 
f 49/47/29 50/48/29 51/49/29 
f 51/49/29 52/50/29 49/47/29 
f 44/55/30 39/56/30 38/57/30 
f 38/57/30 41/58/30 44/55/30 
s 4
f 45/59/31 39/56/31 44/55/31 
f 44/55/31 46/60/31 45/59/31 
f 47/61/32 43/54/32 40/53/32 
f 40/53/32 48/62/32 47/61/32 
f 53/63/33 50/48/33 49/47/33 
f 49/47/33 54/64/33 53/63/33 
f 51/61/34 55/65/34 56/66/34 
f 56/66/34 52/67/34 51/61/34 
s 1
f 54/68/35 49/69/36 52/70/37 
f 52/70/37 56/71/38 38/40/22 
f 54/68/35 52/70/37 38/40/22 
f 37/39/21 54/68/35 38/40/22 
f 39/41/23 45/72/39 48/73/39 
f 48/73/39 40/42/23 39/41/23 
f 55/74/40 51/75/41 50/76/42 
f 50/76/42 53/77/43 42/44/25 
f 55/74/40 50/76/42 42/44/25 
f 41/43/24 55/74/40 42/44/25 
f 43/45/26 47/50/44 46/47/44 
f 46/47/44 44/46/26 43/45/26 
s 2
f 53/78/28 54/79/28 37/52/28 
f 37/52/28 42/51/28 53/78/28 
f 56/66/30 55/65/30 41/58/30 
f 41/58/30 38/57/30 56/66/30 
# 36 faces

#
# object Box667
#

v  1098969.3750 2619.3579 -49712.9688
v  1098969.3750 2630.0640 -49712.9688
v  1098982.6250 2630.0640 -49713.1836
v  1098982.6250 2619.3579 -49713.1836
v  1098969.5000 2627.0974 -49704.4023
v  1098969.5000 2622.3245 -49704.4023
v  1098982.8750 2622.3245 -49701.8359
v  1098982.8750 2627.0974 -49701.8359
v  1098923.0000 2617.4067 -49712.2148
v  1098932.8750 2621.4546 -49701.0234
v  1098932.8750 2627.9673 -49701.0234
v  1098923.0000 2632.0151 -49712.2148
v  1099004.0000 2632.0151 -49731.0313
v  1099012.5000 2627.9673 -49719.8203
v  1099012.5000 2621.4546 -49719.8203
v  1099004.0000 2617.4067 -49731.0313
# 16 vertices

vn -0.0162 -0.0000 -0.9999
vn -0.2744 -0.0000 -0.9616
vn -0.0295 0.0000 0.9996
vn 0.1388 0.0000 0.9903
vn 0.0123 -0.9653 0.2610
vn 0.0179 -0.9625 0.2706
vn 0.0327 -0.9759 0.2159
vn 0.0178 -0.9778 0.2089
vn -0.6225 0.0000 0.7826
vn 0.0287 0.9755 0.2182
vn 0.0429 0.9771 0.2083
vn 0.0029 0.9653 0.2612
vn -0.0046 0.9626 0.2710
vn 0.6807 -0.0000 -0.7326
vn -0.5074 -0.0000 -0.8617
vn 0.0695 0.0000 0.9976
vn 0.3943 0.0000 0.9190
vn 0.0278 -0.9667 0.2542
vn 0.0275 -0.9671 0.2529
vn 0.0733 -0.9751 0.2094
vn 0.0736 -0.9750 0.2097
vn 0.0729 0.9751 0.2097
vn 0.0730 0.9749 0.2104
vn 0.0300 0.9668 0.2536
vn 0.0306 0.9679 0.2493
# 25 vertex normals

vt -167.3906 0.0000 0.0000
vt -167.3906 263.8623 0.0000
vt -83.1953 263.8623 0.0000
vt -83.1953 0.0000 0.0000
vt 168.3906 263.8623 0.0000
vt 168.3906 0.0000 0.0000
vt 84.1953 0.0000 0.0000
vt 84.1953 263.8623 0.0000
vt 168.3906 -21.0746 0.0000
vt 84.1953 -21.0746 0.0000
vt 0.0000 0.0000 0.0000
vt 0.0000 -21.0746 0.0000
vt 263.8623 -21.0746 0.0000
vt 263.8623 0.0000 0.0000
vt -251.5859 0.0000 0.0000
vt -251.5859 263.8623 0.0000
vt 1.0000 263.8623 0.0000
vt 1.0000 0.0000 0.0000
vt 252.5859 263.8623 0.0000
vt 252.5859 0.0000 0.0000
vt 0.0000 263.8623 0.0000
vt 252.5859 -21.0746 0.0000
# 22 texture coords

g Box667
usemtl WWWqd
s 2
f 57/80/45 58/81/45 59/82/46 
f 59/82/46 60/83/46 57/80/45 
s 4
f 61/84/47 62/85/47 63/86/48 
f 63/86/48 64/87/48 61/84/47 
s 8
f 62/88/49 57/85/50 60/86/51 
f 60/86/51 63/89/52 62/88/49 
s 16
f 65/90/53 66/91/53 67/92/53 
f 67/92/53 68/93/53 65/90/53 
s 32
f 64/88/54 59/85/55 58/86/56 
f 58/86/56 61/89/57 64/88/54 
s 64
f 69/90/58 70/91/58 71/92/58 
f 71/92/58 72/93/58 69/90/58 
s 2
f 65/94/45 68/95/45 58/81/45 
f 58/81/45 57/80/45 65/94/45 
f 69/96/59 72/97/59 60/83/46 
f 60/83/46 59/82/46 69/96/59 
s 4
f 67/98/60 66/99/60 62/85/47 
f 62/85/47 61/84/47 67/98/60 
f 71/90/61 70/100/61 64/87/48 
f 64/87/48 63/86/48 71/90/61 
s 8
f 66/101/62 65/99/63 57/85/50 
f 57/85/50 62/88/49 66/101/62 
f 72/90/64 71/91/65 63/89/52 
f 63/89/52 60/86/51 72/90/64 
s 32
f 70/101/66 69/99/67 59/85/55 
f 59/85/55 64/88/54 70/101/66 
f 68/90/68 67/91/69 61/89/57 
f 61/89/57 58/86/56 68/90/68 
# 28 faces

#
# object Box668
#

v  1098968.6250 2619.3579 -49756.2539
v  1098968.6250 2630.0640 -49756.2539
v  1098982.0000 2630.0640 -49756.4688
v  1098982.0000 2619.3579 -49756.4688
v  1098968.5000 2627.0974 -49764.8203
v  1098968.5000 2622.3245 -49764.8203
v  1098981.7500 2622.3245 -49767.8164
v  1098981.7500 2627.0974 -49767.8164
v  1098922.3750 2617.4067 -49755.5000
v  1098931.8750 2621.4546 -49767.0078
v  1098931.8750 2627.9673 -49767.0078
v  1098922.3750 2632.0151 -49755.5000
v  1099003.8750 2632.0151 -49739.3242
v  1099012.0000 2627.9673 -49750.8086
v  1099012.0000 2621.4546 -49750.8086
v  1099003.8750 2617.4067 -49739.3242
# 16 vertices

vn 0.0162 -0.0000 0.9999
vn -0.2430 -0.0000 0.9700
vn -0.0620 0.0000 -0.9981
vn 0.1066 0.0000 -0.9943
vn 0.0038 -0.9653 -0.2613
vn 0.0091 -0.9625 -0.2710
vn 0.0257 -0.9759 -0.2168
vn 0.0110 -0.9778 -0.2094
vn -0.6476 0.0000 -0.7620
vn 0.0216 0.9755 -0.2190
vn 0.0361 0.9771 -0.2096
vn -0.0056 0.9653 -0.2611
vn -0.0134 0.9626 -0.2707
vn 0.7041 -0.0000 0.7101
vn -0.4792 -0.0000 0.8777
vn 0.0370 0.0000 -0.9993
vn 0.3643 0.0000 -0.9313
vn 0.0195 -0.9667 -0.2550
vn 0.0192 -0.9671 -0.2537
vn 0.0665 -0.9751 -0.2117
vn 0.0668 -0.9750 -0.2120
vn 0.0661 0.9751 -0.2119
vn 0.0662 0.9749 -0.2126
vn 0.0218 0.9668 -0.2544
vn 0.0224 0.9679 -0.2502
# 25 vertex normals

vt -167.3906 0.0000 0.0000
vt -167.3906 263.8623 0.0000
vt -83.1953 263.8623 0.0000
vt -83.1953 0.0000 0.0000
vt 168.3906 263.8623 0.0000
vt 168.3906 0.0000 0.0000
vt 84.1953 0.0000 0.0000
vt 84.1953 263.8623 0.0000
vt 168.3906 -21.0746 0.0000
vt 84.1953 -21.0746 0.0000
vt 0.0000 0.0000 0.0000
vt 0.0000 -21.0746 0.0000
vt 263.8623 -21.0746 0.0000
vt 263.8623 0.0000 0.0000
vt -251.5859 0.0000 0.0000
vt -251.5859 263.8623 0.0000
vt 1.0000 263.8623 0.0000
vt 1.0000 0.0000 0.0000
vt 252.5859 263.8623 0.0000
vt 252.5859 0.0000 0.0000
vt 0.0000 263.8623 0.0000
vt 252.5859 -21.0746 0.0000
# 22 texture coords

g Box668
usemtl WWWqd
s 2
f 75/104/71 74/103/70 73/102/70 
f 73/102/70 76/105/71 75/104/71 
s 4
f 79/108/73 78/107/72 77/106/72 
f 77/106/72 80/109/73 79/108/73 
s 8
f 76/108/76 73/107/75 78/110/74 
f 78/110/74 79/111/77 76/108/76 
s 16
f 83/114/78 82/113/78 81/112/78 
f 81/112/78 84/115/78 83/114/78 
s 32
f 74/108/81 75/107/80 80/110/79 
f 80/110/79 77/111/82 74/108/81 
s 64
f 87/114/83 86/113/83 85/112/83 
f 85/112/83 88/115/83 87/114/83 
s 2
f 74/103/70 84/117/70 81/116/70 
f 81/116/70 73/102/70 74/103/70 
f 76/105/71 88/119/84 85/118/84 
f 85/118/84 75/104/71 76/105/71 
s 4
f 78/107/72 82/121/85 83/120/85 
f 83/120/85 77/106/72 78/107/72 
f 80/109/73 86/122/86 87/112/86 
f 87/112/86 79/108/73 80/109/73 
s 8
f 73/107/75 81/121/88 82/123/87 
f 82/123/87 78/110/74 73/107/75 
f 79/111/77 87/113/90 88/112/89 
f 88/112/89 76/108/76 79/111/77 
s 32
f 75/107/80 85/121/92 86/123/91 
f 86/123/91 80/110/79 75/107/80 
f 77/111/82 83/113/94 84/112/93 
f 84/112/93 74/108/81 77/111/82 
# 28 faces

#
# object Box669
#

v  1098744.7500 2780.8472 -49741.5938
v  1098737.3750 2780.8472 -49741.4727
v  1098737.3750 2809.6428 -49741.4727
v  1098744.7500 2809.6428 -49741.5938
v  1098745.1250 2780.8472 -49719.4648
v  1098745.1250 2809.6428 -49719.4648
v  1098737.7500 2809.6428 -49719.3438
v  1098737.7500 2780.8472 -49719.3438
# 8 vertices

vn -0.0162 -0.0000 -0.9999
vn 0.0162 0.0000 0.9999
vn 0.0000 -1.0000 0.0000
vn -0.9999 0.0000 0.0162
vn -0.0000 1.0000 -0.0000
vn 0.9999 0.0000 -0.0162
# 6 vertex normals

vt 1.0000 0.0000 0.0000
vt -251.5859 0.0000 0.0000
vt -251.5859 263.8623 0.0000
vt 1.0000 263.8623 0.0000
vt 0.0000 0.0000 0.0000
vt 0.0000 263.8623 0.0000
vt 252.5859 263.8623 0.0000
vt 252.5859 0.0000 0.0000
vt 0.0000 -21.0746 0.0000
vt 252.5859 -21.0746 0.0000
vt 263.8623 -21.0746 0.0000
vt 263.8623 0.0000 0.0000
# 12 texture coords

g Box669
usemtl WWWqd
s 2
f 89/124/95 90/125/95 91/126/95 
f 91/126/95 92/127/95 89/124/95 
s 4
f 93/128/96 94/129/96 95/130/96 
f 95/130/96 96/131/96 93/128/96 
s 8
f 89/128/97 93/132/97 96/133/97 
f 96/133/97 90/131/97 89/128/97 
s 16
f 90/128/98 96/132/98 95/134/98 
f 95/134/98 91/135/98 90/128/98 
s 32
f 91/128/99 95/132/99 94/133/99 
f 94/133/99 92/131/99 91/128/99 
s 64
f 92/128/100 94/132/100 93/134/100 
f 93/134/100 89/135/100 92/128/100 
# 12 faces

#
# object Box670
#

v  1098744.7500 2489.5571 -49741.5938
v  1098737.3750 2489.5571 -49741.4727
v  1098737.3750 2518.3528 -49741.4727
v  1098744.7500 2518.3528 -49741.5938
v  1098745.1250 2489.5571 -49719.4648
v  1098745.1250 2518.3528 -49719.4648
v  1098737.7500 2518.3528 -49719.3438
v  1098737.7500 2489.5571 -49719.3438
# 8 vertices

vn -0.0162 -0.0000 -0.9999
vn 0.0162 0.0000 0.9999
vn 0.0000 -1.0000 0.0000
vn -0.9999 0.0000 0.0162
vn -0.0000 1.0000 -0.0000
vn 0.9999 0.0000 -0.0162
# 6 vertex normals

vt 1.0000 0.0000 0.0000
vt -251.5859 0.0000 0.0000
vt -251.5859 263.8623 0.0000
vt 1.0000 263.8623 0.0000
vt 0.0000 0.0000 0.0000
vt 0.0000 263.8623 0.0000
vt 252.5859 263.8623 0.0000
vt 252.5859 0.0000 0.0000
vt 0.0000 -21.0746 0.0000
vt 252.5859 -21.0746 0.0000
vt 263.8623 -21.0746 0.0000
vt 263.8623 0.0000 0.0000
# 12 texture coords

g Box670
usemtl WWWqd
s 2
f 97/136/101 98/137/101 99/138/101 
f 99/138/101 100/139/101 97/136/101 
s 4
f 101/140/102 102/141/102 103/142/102 
f 103/142/102 104/143/102 101/140/102 
s 8
f 97/140/103 101/144/103 104/145/103 
f 104/145/103 98/143/103 97/140/103 
s 16
f 98/140/104 104/144/104 103/146/104 
f 103/146/104 99/147/104 98/140/104 
s 32
f 99/140/105 103/144/105 102/145/105 
f 102/145/105 100/143/105 99/140/105 
s 64
f 100/140/106 102/144/106 101/146/106 
f 101/146/106 97/147/106 100/140/106 
# 12 faces

#
# object Box671
#

v  1098999.3750 2588.4470 -49751.9570
v  1098995.8750 2588.4470 -49751.8984
v  1098994.0000 2600.4814 -49751.8711
v  1099001.2500 2600.4814 -49751.9883
v  1098999.8750 2588.4470 -49718.3477
v  1099001.7500 2600.4814 -49718.3789
v  1098994.6250 2600.4814 -49718.2617
v  1098996.3750 2588.4470 -49718.2891
# 8 vertices

vn -0.0162 -0.0000 -0.9999
vn 0.0162 0.0000 0.9999
vn 0.0000 -1.0000 0.0000
vn -0.9572 -0.2889 0.0155
vn -0.0000 1.0000 -0.0000
vn 0.9572 -0.2892 -0.0155
# 6 vertex normals

vt 1.0000 0.0000 0.0000
vt -251.5859 0.0000 0.0000
vt -251.5859 263.8623 0.0000
vt 1.0000 263.8623 0.0000
vt 0.0000 0.0000 0.0000
vt 0.0000 263.8623 0.0000
vt 252.5859 263.8623 0.0000
vt 252.5859 0.0000 0.0000
vt 0.0000 -21.0746 0.0000
vt 252.5859 -21.0746 0.0000
vt 263.8623 -21.0746 0.0000
vt 263.8623 0.0000 0.0000
# 12 texture coords

g Box671
usemtl black45
s 2
f 105/148/107 106/149/107 107/150/107 
f 107/150/107 108/151/107 105/148/107 
s 4
f 109/152/108 110/153/108 111/154/108 
f 111/154/108 112/155/108 109/152/108 
s 8
f 105/152/109 109/156/109 112/157/109 
f 112/157/109 106/155/109 105/152/109 
s 16
f 106/152/110 112/156/110 111/158/110 
f 111/158/110 107/159/110 106/152/110 
s 32
f 107/152/111 111/156/111 110/157/111 
f 110/157/111 108/155/111 107/152/111 
s 64
f 108/152/112 110/156/112 109/158/112 
f 109/158/112 105/159/112 108/152/112 
# 12 faces

