# 3ds Max Wavefront OBJ Exporter v0.97b - (c)2007 guruware
# File Created: 20.05.2019 17:53:23

mtllib peidianxiang.mtl

#
# object Box001
#

v  -93.6464 0.3104 -49.6851
v  91.3622 0.3104 -49.6851
v  -93.6464 251.4862 -49.6850
v  91.3622 251.4862 -49.6850
v  -93.6464 0.3104 1.6326
v  91.3622 0.3104 1.6326
v  -93.6464 251.4862 1.6327
v  91.3622 251.4862 1.6327
# 8 vertices

vn 0.0000 0.0000 -1.0000
vn 0.0000 0.0000 -1.0000
vn 0.0000 0.0000 -1.0000
vn 0.0000 0.0000 -1.0000
vn 0.0000 -0.0000 1.0000
vn 0.0000 -0.0000 1.0000
vn 0.0000 -0.0000 1.0000
vn 0.0000 -0.0000 1.0000
vn 0.0000 -1.0000 -0.0000
vn 0.0000 -1.0000 -0.0000
vn 0.0000 -1.0000 -0.0000
vn 0.0000 -1.0000 -0.0000
vn 1.0000 0.0000 -0.0000
vn 1.0000 0.0000 -0.0000
vn 1.0000 0.0000 -0.0000
vn 1.0000 0.0000 -0.0000
vn 0.0000 1.0000 -0.0000
vn 0.0000 1.0000 -0.0000
vn 0.0000 1.0000 -0.0000
vn 0.0000 1.0000 -0.0000
vn -1.0000 0.0000 -0.0000
vn -1.0000 0.0000 -0.0000
vn -1.0000 0.0000 -0.0000
vn -1.0000 0.0000 -0.0000
# 24 vertex normals

vt 0.4869 0.3880 0.0000
vt 0.4869 0.8711 0.0000
vt 0.1311 0.8711 0.0000
vt 0.1311 0.3880 0.0000
vt 0.6202 0.3872 0.0000
vt 0.9760 0.3872 0.0000
vt 0.9760 0.8703 0.0000
vt 0.6202 0.8703 0.0000
vt 0.1311 0.2893 0.0000
vt 0.4869 0.2893 0.0000
vt 0.0324 0.8711 0.0000
vt 0.0324 0.3880 0.0000
vt 0.4869 0.9698 0.0000
vt 0.1311 0.9698 0.0000
vt 0.5855 0.3880 0.0000
vt 0.5855 0.8711 0.0000
# 16 texture coords

g Box001
usemtl 01___Default
s 2
f 1/1/1 3/2/2 4/3/3 2/4/4 
s 4
f 5/5/5 6/6/6 8/7/7 7/8/8 
s 8
f 1/1/9 2/4/10 6/9/11 5/10/12 
s 16
f 2/4/13 4/3/14 8/11/15 6/12/16 
s 32
f 4/3/17 3/2/18 7/13/19 8/14/20 
s 64
f 3/2/21 1/1/22 5/15/23 7/16/24 
# 6 polygons

