# 3ds Max Wavefront OBJ Exporter v0.97b - (c)2007 guruware
# 创建的文件:16.11.2018 20:21:30

mtllib CISCO4506_l1.mtl

#
# object default
#

v  -21.2651 -63.0733 33.8908
v  -0.5920 -63.0733 33.8908
v  -0.5920 -48.7047 33.8908
v  -21.2651 -48.7047 33.8908
v  -0.5920 -48.7047 26.3817
v  -21.2651 -48.7047 26.3817
v  -0.5920 -63.0733 26.3817
v  -21.2651 -63.0733 26.3817
# 8 vertices

vn 0.0000 0.0000 1.0000
vn 0.0000 1.0000 -0.0000
vn 1.0000 0.0000 -0.0000
vn -1.0000 0.0000 -0.0000
vn 0.0000 -1.0000 -0.0000
# 5 vertex normals

vt 0.2463 0.5534 0.0000
vt 0.7009 0.5534 0.0000
vt 0.7009 0.8693 0.0000
vt 0.2463 0.8693 0.0000
vt 0.1128 0.6913 0.0000
vt 0.1490 0.6913 0.0000
vt 0.1490 0.7910 0.0000
vt 0.1128 0.7910 0.0000
vt 0.1538 0.7991 0.0000
vt 0.1900 0.7991 0.0000
vt 0.1900 0.8684 0.0000
vt 0.1538 0.8684 0.0000
vt 0.1485 0.8684 0.0000
vt 0.1123 0.8684 0.0000
vt 0.1123 0.7991 0.0000
vt 0.1485 0.7991 0.0000
vt 0.1900 0.7910 0.0000
vt 0.1538 0.7910 0.0000
vt 0.1538 0.6913 0.0000
vt 0.1900 0.6913 0.0000
# 20 texture coords

g default
usemtl lambert18SG
s off
f 1/1/1 2/2/1 3/3/1 4/4/1 
f 3/5/2 5/6/2 6/7/2 4/8/2 
f 2/9/3 7/10/3 5/11/3 3/12/3 
f 4/13/4 6/14/4 8/15/4 1/16/4 
f 1/17/5 8/18/5 7/19/5 2/20/5 
# 5 polygons

