# 3ds Max Wavefront OBJ Exporter v0.97b - (c)2007 guruware
# 创建的文件:16.11.2018 20:14:07

mtllib S814_jixiang.mtl

#
# object default
#

v  5.6313 -15.7193 33.9400
v  5.6313 -6.2734 33.9400
v  -19.9971 -6.2734 33.9400
v  -19.9971 -15.7193 33.9400
v  25.2761 -24.3846 33.9400
v  5.6313 -24.3846 33.9400
v  22.2862 -24.3846 31.8909
v  25.2761 -24.3846 31.8909
v  -25.2761 -6.2734 31.8909
v  -22.9817 -6.2734 31.8909
v  -22.9817 -17.3968 31.8909
v  -25.2761 -24.3846 31.8909
v  5.5185 -15.8320 33.3542
v  -19.8843 -15.8321 33.3542
v  -19.8843 -23.2716 33.3542
v  5.5185 -23.2716 33.3542
v  5.6313 -23.3844 33.9400
v  -19.9971 -23.3844 33.9400
v  22.9817 -6.2734 31.8909
v  25.2761 -6.2734 33.9400
v  25.2761 -6.2734 31.8909
v  22.9817 -17.3968 31.8909
v  22.2835 -18.6179 31.8909
v  -25.2761 -6.2734 33.9400
v  -22.2835 -18.6179 31.8909
v  -22.2835 -24.3846 31.8909
v  -25.2761 -24.3846 33.9400
v  -19.9971 -24.3846 33.9400
v  22.2835 -24.3846 -41.6414
v  22.2835 -24.3846 31.8909
v  7.9523 -24.3846 -41.6414
v  -22.2835 -18.6179 -41.6414
v  -22.2835 -24.3846 -41.6414
v  22.9817 -12.0970 -44.9127
v  7.9523 -12.0970 -44.9127
v  7.9523 -6.8033 -44.9127
v  -3.0542 -24.3846 -41.6414
v  -3.0542 -19.6125 -41.6414
v  7.9523 -19.6125 -41.6414
v  -3.0542 -6.8033 -44.9127
v  -22.9817 -12.0970 -44.9127
v  -22.9817 -6.2734 -44.9127
v  -3.0542 -6.2734 -44.9127
v  -3.0542 -15.3386 -41.6414
v  7.9523 -15.3386 -41.6414
v  -22.9817 -12.0970 -41.6414
v  -22.9817 -17.4100 -41.6414
v  22.2835 -18.5845 -41.6414
v  22.9817 -17.3968 -41.6414
v  22.9817 -12.0970 -41.6414
v  7.9523 -12.0970 -41.6414
v  -3.0542 -12.0970 -41.6414
v  -3.0542 -11.0843 -41.6414
v  7.9523 -11.0843 -41.6414
v  7.9523 -6.2734 -44.9127
v  22.9817 -6.2734 -44.9127
v  7.9523 -6.8033 -41.6414
v  -3.0542 -6.8033 -41.6414
v  -3.0542 -12.0970 -44.9127
# 59 vertices

vn 0.0000 0.0000 1.0000
vn 0.0000 -1.0000 -0.0000
vn 0.0000 -1.0000 0.0000
vn 0.0000 0.0000 -1.0000
vn -0.9820 0.0000 0.1890
vn 0.0000 -0.9820 0.1890
vn 0.9820 0.0000 0.1890
vn 0.0000 0.9820 0.1890
vn 0.0000 1.0000 -0.0000
vn 1.0000 0.0000 -0.0000
vn -1.0000 0.0000 -0.0000
vn -1.0000 -0.0000 -0.0000
vn -0.8670 -0.4984 0.0000
vn 0.8651 -0.5015 -0.0001
# 14 vertex normals

vt 0.6483 0.3835 0.0000
vt 0.8724 0.3835 0.0000
vt 0.8724 0.9915 0.0000
vt 0.6483 0.9915 0.0000
vt 0.9021 0.4439 0.0000
vt 0.9021 0.6556 0.0000
vt 0.8800 0.4762 0.0000
vt 0.8800 0.4439 0.0000
vt 0.9350 0.7922 0.0000
vt 0.9597 0.7922 0.0000
vt 0.9597 0.9120 0.0000
vt 0.9350 0.9873 0.0000
vt 0.9386 0.5756 0.0000
vt 0.9386 0.3977 0.0000
vt 0.9907 0.3977 0.0000
vt 0.9907 0.5756 0.0000
vt 0.1466 0.5872 0.0000
vt 0.1466 0.5635 0.0000
vt 0.6126 0.5635 0.0000
vt 0.9378 0.5797 0.0000
vt 0.9915 0.5797 0.0000
vt 0.9345 0.3969 0.0000
vt 0.9345 0.5764 0.0000
vt 0.9915 0.3936 0.0000
vt 0.9378 0.3936 0.0000
vt 0.9948 0.5764 0.0000
vt 0.9948 0.3969 0.0000
vt 0.9281 0.4690 0.0000
vt 0.9060 0.4439 0.0000
vt 0.9281 0.4439 0.0000
vt 0.9412 0.7065 0.0000
vt 0.9412 0.5867 0.0000
vt 0.9662 0.5867 0.0000
vt 0.9662 0.7818 0.0000
vt 0.9340 0.7210 0.0000
vt 0.9340 0.7818 0.0000
vt 0.9060 0.9885 0.0000
vt 0.9060 0.9316 0.0000
vt 0.9281 0.9638 0.0000
vt 0.9281 0.9885 0.0000
vt 0.9672 0.9252 0.0000
vt 0.9672 0.9873 0.0000
vt 0.9734 0.7920 0.0000
vt 0.9954 0.7920 0.0000
vt 0.9954 0.9871 0.0000
vt 0.9734 0.9871 0.0000
vt 0.9731 0.7824 0.0000
vt 0.9731 0.5873 0.0000
vt 0.9952 0.5873 0.0000
vt 0.9952 0.7824 0.0000
vt 0.1466 0.9931 0.0000
vt 0.1466 0.7690 0.0000
vt 0.6126 0.9931 0.0000
vt 0.9060 0.6556 0.0000
vt 0.9021 0.9316 0.0000
vt 0.8800 0.9563 0.0000
vt 0.0093 0.5635 0.0000
vt 0.1346 0.5872 0.0000
vt 0.1346 0.7690 0.0000
vt 0.0093 0.9931 0.0000
vt 0.6424 0.9915 0.0000
vt 0.6187 0.9915 0.0000
vt 0.6187 0.3835 0.0000
vt 0.6424 0.3835 0.0000
vt 0.1346 0.5635 0.0000
vt 0.9021 0.9885 0.0000
vt 0.8800 0.9885 0.0000
vt 0.1346 0.9931 0.0000
vt 0.1167 0.0064 0.0000
vt 0.1167 0.1903 0.0000
vt 0.0809 0.0064 0.0000
vt 0.4043 0.5543 0.0000
vt 0.3803 0.5543 0.0000
vt 0.3803 0.2485 0.0000
vt 0.4043 0.2485 0.0000
vt 0.4227 0.2465 0.0000
vt 0.6654 0.2465 0.0000
vt 0.6654 0.3320 0.0000
vt 0.1237 0.0075 0.0000
vt 0.3297 0.0075 0.0000
vt 0.3297 0.0968 0.0000
vt 0.1237 0.0968 0.0000
vt 0.6239 0.0988 0.0000
vt 0.6239 0.0102 0.0000
vt 0.9810 0.0102 0.0000
vt 0.9810 0.1173 0.0000
vt 0.6715 0.3320 0.0000
vt 0.9934 0.2465 0.0000
vt 0.9934 0.3405 0.0000
vt 0.6715 0.3405 0.0000
vt 0.1237 0.0168 0.0000
vt 0.3297 0.0168 0.0000
vt 0.6239 0.1782 0.0000
vt 0.3535 0.5543 0.0000
vt 0.3315 0.2485 0.0000
vt 0.3536 0.2485 0.0000
vt 0.3682 0.5543 0.0000
vt 0.3631 0.5543 0.0000
vt 0.3632 0.2485 0.0000
vt 0.3682 0.2485 0.0000
vt 0.0306 0.2485 0.0000
vt 0.0304 0.5543 0.0000
vt 0.0065 0.5543 0.0000
vt 0.0065 0.2485 0.0000
vt 0.0387 0.5543 0.0000
vt 0.0388 0.2485 0.0000
vt 0.0437 0.2485 0.0000
vt 0.0437 0.5543 0.0000
vt 0.3510 0.1179 0.0000
vt 0.3380 0.2384 0.0000
vt 0.3380 0.1400 0.0000
vt 0.6172 0.1782 0.0000
vt 0.6172 0.2384 0.0000
vt 0.1232 0.1653 0.0000
vt 0.3292 0.1653 0.0000
vt 0.3292 0.1843 0.0000
vt 0.1232 0.1843 0.0000
vt 0.9940 0.2384 0.0000
vt 0.6239 0.2384 0.0000
vt 0.9940 0.1397 0.0000
vt 0.6172 0.0988 0.0000
vt 0.3510 0.0102 0.0000
vt 0.6172 0.0102 0.0000
vt 0.6040 0.3823 0.0000
vt 0.6126 0.3823 0.0000
vt 0.6126 0.5601 0.0000
vt 0.6040 0.5601 0.0000
vt 0.6654 0.3405 0.0000
vt 0.4227 0.3405 0.0000
vt 0.1232 0.1046 0.0000
vt 0.3292 0.1046 0.0000
vt 0.1232 0.1041 0.0000
vt 0.3292 0.1041 0.0000
vt 0.6715 0.2465 0.0000
vt 0.5562 0.3488 0.0000
vt 0.5562 0.3781 0.0000
vt 0.4214 0.3781 0.0000
vt 0.4214 0.3488 0.0000
vt 0.5662 0.3488 0.0000
vt 0.5753 0.3488 0.0000
vt 0.5662 0.3781 0.0000
vt 0.3073 0.2349 0.0000
vt 0.3315 0.2349 0.0000
vt 0.2976 0.5543 0.0000
vt 0.2147 0.2349 0.0000
vt 0.2976 0.2349 0.0000
vt 0.7205 0.3488 0.0000
vt 0.7205 0.3781 0.0000
vt 0.6217 0.3781 0.0000
vt 0.6217 0.3488 0.0000
vt 0.0746 0.2485 0.0000
vt 0.0988 0.2349 0.0000
vt 0.0988 0.5543 0.0000
vt 0.0526 0.5543 0.0000
vt 0.9681 0.3488 0.0000
vt 0.9681 0.3782 0.0000
vt 0.7893 0.3781 0.0000
vt 0.7893 0.3488 0.0000
vt 0.7298 0.3781 0.0000
vt 0.7298 0.3488 0.0000
vt 0.7682 0.3488 0.0000
vt 0.7773 0.3781 0.0000
vt 0.6137 0.3488 0.0000
vt 0.6137 0.3781 0.0000
vt 0.7773 0.3488 0.0000
vt 0.0533 0.0064 0.0000
vt 0.0052 0.1903 0.0000
vt 0.0052 0.0064 0.0000
vt 0.0526 0.2485 0.0000
vt 0.0746 0.2349 0.0000
vt 0.3073 0.5543 0.0000
vt 0.1064 0.5543 0.0000
vt 0.1064 0.2349 0.0000
vt 0.1689 0.2349 0.0000
# 174 texture coords

g default
usemtl lambert19SG
s 1
f 1/1/1 2/2/1 3/3/1 4/4/1 
s 2
f 5/5/2 6/6/3 7/7/2 
f 8/8/2 5/5/2 7/7/2 
s 3
f 9/9/4 10/10/4 11/11/4 12/12/4 
s off
f 13/13/1 14/14/1 15/15/1 16/16/1 
s 1
f 17/17/1 6/18/1 5/19/1 
s off
f 1/20/5 13/13/5 16/16/5 17/21/5 
f 4/22/6 14/14/6 13/13/6 1/23/6 
f 18/24/7 15/15/7 14/14/7 4/25/7 
f 17/26/8 16/16/8 15/15/8 18/27/8 
s 5
f 19/28/9 20/29/9 21/30/9 
s 6
f 22/31/4 19/32/4 21/33/4 8/34/4 
f 23/35/4 22/31/4 8/34/4 7/36/4 
s 5
f 24/37/9 3/38/9 10/39/9 9/40/9 
s 3
f 12/12/4 11/11/4 25/41/4 26/42/4 
s off
f 5/43/10 8/44/10 21/45/10 20/46/10 
f 9/47/11 12/48/11 27/49/11 24/50/11 
s 1
f 2/51/1 1/52/1 20/53/1 
s 5
f 10/39/9 3/38/9 2/54/9 19/28/9 
s 2
f 6/6/3 28/55/3 26/56/3 7/7/2 
s 1
f 27/57/1 18/58/1 4/59/1 24/60/1 
f 18/61/1 28/62/1 6/63/1 17/64/1 
f 27/57/1 28/65/1 18/58/1 
s 2
f 27/66/2 12/67/2 26/56/3 28/55/3 
s 1
f 4/59/1 3/68/1 24/60/1 
s 5
f 2/54/9 20/29/9 19/28/9 
s 1
f 5/19/1 20/53/1 1/52/1 17/17/1 
s off
f 29/69/2 30/70/2 31/71/2 
f 26/72/11 25/73/11 32/74/11 33/75/11 
s 9
f 34/76/4 35/77/4 36/78/4 
s 10
f 31/79/4 37/80/4 38/81/4 39/82/4 
f 38/83/4 37/84/4 33/85/4 32/86/4 
s 9
f 40/87/4 41/88/4 42/89/4 43/90/4 
s 10
f 39/91/4 38/92/4 44/81/4 45/82/4 
f 32/86/4 44/93/4 38/83/4 
s off
f 11/94/12 46/95/12 47/96/12 
f 25/97/13 11/98/13 47/99/13 32/100/13 
f 48/101/10 23/102/10 30/103/10 29/104/10 
f 23/105/14 48/106/14 49/107/14 22/108/14 
f 48/109/4 50/110/4 49/111/4 
s 10
f 50/110/4 48/109/4 45/112/4 51/113/4 
s 12
f 51/114/4 52/115/4 53/116/4 54/117/4 
s 10
f 46/118/4 52/119/4 44/93/4 32/86/4 
s off
f 46/118/4 32/86/4 47/120/4 
s 10
f 48/109/4 39/121/4 45/112/4 
f 39/121/4 48/109/4 29/122/4 31/123/4 
s 9
f 55/124/4 36/125/4 40/126/4 43/127/4 
f 36/78/4 55/128/4 56/129/4 34/76/4 
s 10
f 51/114/4 45/130/4 44/131/4 52/115/4 
s 12
f 57/117/4 54/132/4 53/133/4 58/116/4 
s 9
f 41/88/4 40/87/4 59/134/4 
s off
f 51/135/2 35/136/2 34/137/2 50/138/2 
f 51/139/11 54/140/11 35/141/11 
f 46/95/11 42/142/11 41/143/11 
f 10/144/9 43/145/9 42/146/9 
f 58/147/2 40/148/2 36/149/2 57/150/2 
f 50/151/10 56/152/10 19/153/10 22/154/10 
f 46/155/2 41/156/2 59/157/2 52/158/2 
f 40/159/10 58/160/10 53/161/10 59/162/10 
f 54/140/11 57/163/11 36/164/11 35/141/11 
f 53/161/10 52/165/10 59/162/10 
f 37/166/2 31/71/2 30/70/2 26/167/2 
f 37/166/2 26/167/2 33/168/2 
f 50/151/10 22/154/10 49/169/10 
f 56/152/10 50/151/10 34/170/10 
f 10/171/11 42/142/11 46/95/11 11/94/11 
f 19/172/9 56/173/9 55/174/9 
f 19/172/9 55/174/9 43/145/9 10/144/9 
# 44 polygons - 24 triangles

