# 3ds Max Wavefront OBJ Exporter v0.97b - (c)2007 guruware
# 创建的文件:16.11.2018 20:17:49

mtllib x3750M4_l4.mtl

#
# object default
#

v  -13.8622 23.5948 33.9363
v  -13.8622 24.6344 33.9363
v  -21.9753 24.6344 33.9363
v  -21.9753 23.5948 33.9363
v  -13.8622 24.6344 23.1639
v  -21.9753 24.6344 23.1639
v  -13.8622 23.5948 23.1639
v  -21.9753 23.5948 23.1639
# 8 vertices

vn 0.0000 0.0000 1.0000
vn 0.0000 1.0000 -0.0000
vn 0.0000 -1.0000 -0.0000
vn 1.0000 0.0000 -0.0000
vn -1.0000 0.0000 -0.0000
# 5 vertex normals

vt 0.9952 0.2587 0.0000
vt 0.9952 0.2904 0.0000
vt 0.7478 0.2904 0.0000
vt 0.7478 0.2587 0.0000
vt 0.9949 0.2970 0.0000
vt 0.9949 0.6255 0.0000
vt 0.7475 0.6255 0.0000
vt 0.7475 0.2970 0.0000
vt 0.0458 0.6301 0.0000
vt 0.0037 0.6301 0.0000
vt 0.0037 0.5985 0.0000
vt 0.0458 0.5985 0.0000
vt 0.3357 0.4716 0.0000
vt 0.3357 0.5033 0.0000
vt 0.0072 0.5033 0.0000
vt 0.0072 0.4716 0.0000
vt 0.3355 0.4347 0.0000
vt 0.3355 0.4664 0.0000
vt 0.0070 0.4664 0.0000
vt 0.0070 0.4347 0.0000
# 20 texture coords

g default
usemtl lambert15SG
s off
f 1/1/1 2/2/1 3/3/1 4/4/1 
f 2/5/2 5/6/2 6/7/2 3/8/2 
f 7/9/3 1/10/3 4/11/3 8/12/3 
f 7/13/4 5/14/4 2/15/4 1/16/4 
f 4/17/5 3/18/5 6/19/5 8/20/5 
# 5 polygons

