# 3ds Max Wavefront OBJ Exporter v0.97b - (c)2007 guruware
# 创建的文件:16.11.2018 20:17:28

mtllib x3750M4_l3.mtl

#
# object default
#

v  7.3970 29.0987 30.1638
v  0.1486 29.0987 30.1638
v  0.1486 29.0987 33.9304
v  7.3970 29.0987 33.9304
v  7.3970 21.6652 30.1638
v  7.3970 21.6652 33.9304
v  0.1486 21.6652 33.9304
v  0.1486 21.6652 30.1638
# 8 vertices

vn 0.0000 1.0000 -0.0000
vn 0.0000 -1.0000 -0.0000
vn 1.0000 0.0000 -0.0000
vn -1.0000 0.0000 -0.0000
vn 0.0000 0.0000 1.0000
# 5 vertex normals

vt 0.9717 0.9255 0.0000
vt 0.9717 0.9434 0.0000
vt 0.9624 0.9434 0.0000
vt 0.9624 0.9255 0.0000
vt 0.9502 0.9255 0.0000
vt 0.9595 0.9255 0.0000
vt 0.9595 0.9434 0.0000
vt 0.9502 0.9434 0.0000
vt 0.9958 0.9251 0.0000
vt 0.9958 0.9434 0.0000
vt 0.9865 0.9434 0.0000
vt 0.9865 0.9251 0.0000
vt 0.9746 0.9251 0.0000
vt 0.9839 0.9251 0.0000
vt 0.9839 0.9434 0.0000
vt 0.9746 0.9434 0.0000
vt 0.6170 0.8771 0.0000
vt 0.6170 0.6312 0.0000
vt 0.8527 0.6312 0.0000
vt 0.8527 0.8771 0.0000
# 20 texture coords

g default
usemtl lambert15SG
s off
f 1/1/1 2/2/1 3/3/1 4/4/1 
f 5/5/2 6/6/2 7/7/2 8/8/2 
f 5/9/3 1/10/3 4/11/3 6/12/3 
f 8/13/4 7/14/4 3/15/4 2/16/4 
f 3/17/5 7/18/5 6/19/5 4/20/5 
# 5 polygons

