# 3ds Max Wavefront OBJ Exporter v0.97b - (c)2007 guruware
# 创建的文件:16.11.2018 20:16:21

mtllib x3750M4_jixiang.mtl

#
# object default
#

v  22.2191 29.9952 33.9400
v  -7.2626 29.9952 33.9400
v  -7.2626 29.2636 33.9400
v  22.2191 29.2636 33.9400
v  -25.2761 20.9595 33.9400
v  -22.9478 20.9595 31.8909
v  -7.2626 20.9595 33.9400
v  -25.2761 20.9595 31.8909
v  25.2761 29.9952 31.8909
v  25.2761 20.9595 31.8909
v  23.6459 28.1071 31.8909
v  23.6459 29.9952 31.8909
v  22.1064 21.6120 33.3542
v  22.1064 29.1508 33.3542
v  -7.1498 29.1508 33.3542
v  -7.1498 21.6120 33.3542
v  -7.2626 21.4992 33.9400
v  22.2191 21.4992 33.9400
v  -23.6631 29.9952 31.8909
v  -25.2761 29.9952 31.8909
v  -25.2761 29.9952 33.9400
v  -23.6631 28.1071 31.8909
v  -22.9478 28.1071 31.8909
v  25.2761 29.9952 33.9400
v  22.9478 20.9595 31.8909
v  22.9478 28.1071 31.8909
v  25.2761 20.9595 33.9400
v  22.2191 20.9595 33.9400
v  -21.9988 24.6595 33.9400
v  -13.8445 24.6595 33.9400
v  -21.9988 23.5697 33.9400
v  -13.8445 23.5697 33.9400
v  -13.8445 23.5697 32.9812
v  -13.8445 24.6595 32.9812
v  -21.9988 24.6595 32.9812
v  -21.9988 23.5697 32.9812
v  22.9478 21.1930 -43.5186
v  22.9478 20.9595 -43.5186
v  -22.9478 20.9595 -43.5186
v  -22.9478 21.1930 -43.5186
v  22.9478 21.1930 -41.6414
v  -23.6631 28.1071 -41.6414
v  -22.9478 28.1071 -41.6414
v  23.4130 28.3380 -41.6414
v  23.4130 29.1026 -41.6414
v  23.6459 29.1026 -41.6414
v  23.6459 28.1071 -41.6414
v  -23.6631 29.7695 -41.6414
v  -23.6631 29.9952 -43.5186
v  -22.7288 21.1930 -41.6414
v  -22.7288 21.1930 -39.5082
v  22.6872 21.1930 -39.5082
v  22.6872 21.1930 -41.6414
v  -22.9478 21.1930 -41.6414
v  -22.7288 28.3380 -39.5082
v  -22.7288 28.3380 -41.6414
v  22.9478 28.1071 -41.6414
v  -23.6631 29.7695 -43.5186
v  23.6459 29.9952 -43.5186
v  23.6459 29.1026 -43.5186
v  -23.4583 29.7695 -41.6414
v  -12.1669 29.7695 -39.5082
v  -23.4583 29.7695 -39.5082
v  -12.1669 29.7695 -43.5186
v  23.4130 29.1026 -39.5082
v  -12.1669 29.1026 -39.5082
v  -12.1669 29.1026 -43.5186
v  22.6872 28.3380 -41.6414
v  22.6872 28.3380 -39.5082
v  23.4130 28.3380 -39.5082
v  -23.4583 28.3380 -41.6414
v  -23.4583 28.3380 -39.5082
v  -22.8754 25.4528 -39.9422
v  -11.7576 25.4528 -39.9422
v  -11.7576 21.0644 -39.9422
v  -22.8754 21.0644 -39.9422
v  22.7927 21.0644 -39.9422
v  22.7927 28.2658 -39.9422
v  -22.8754 28.2658 -39.9422
v  -22.8754 29.8388 -39.9422
v  -11.7576 29.8388 -39.9422
v  22.7927 29.8388 -39.9422
v  -23.5386 28.2658 -39.9422
v  -23.5386 29.8388 -39.9422
v  23.5072 29.8388 -39.9422
v  23.5072 28.2658 -39.9422
# 86 vertices

vn 0.0000 0.0000 1.0000
vn 0.0000 -1.0000 -0.0000
vn -0.0000 0.0000 -1.0000
vn 0.0000 0.0000 -1.0000
vn 0.9820 0.0000 0.1890
vn 0.0000 -0.9820 0.1890
vn -0.9820 0.0000 0.1890
vn 0.0000 0.9820 0.1890
vn 0.0000 1.0000 -0.0000
vn -1.0000 0.0000 -0.0000
vn 1.0000 0.0000 -0.0000
vn 0.0000 -0.0000 -1.0000
vn 1.0000 -0.0000 -0.0000
vn 0.0000 -1.0000 0.0000
vn -0.0000 -0.0000 -1.0000
# 15 vertex normals

vt 0.9929 0.9978 0.0000
vt 0.0127 0.9978 0.0000
vt 0.0127 0.9734 0.0000
vt 0.9929 0.9734 0.0000
vt 0.0065 0.9093 0.0000
vt 0.0383 0.8813 0.0000
vt 0.2525 0.9093 0.0000
vt 0.0065 0.8813 0.0000
vt 0.8170 0.9114 0.0000
vt 0.7020 0.9114 0.0000
vt 0.7930 0.8907 0.0000
vt 0.8170 0.8907 0.0000
vt 0.1345 0.6067 0.0000
vt 0.1345 0.6282 0.0000
vt 0.0512 0.6282 0.0000
vt 0.0512 0.6067 0.0000
vt 0.4978 0.6470 0.0000
vt 0.0035 0.6324 0.0000
vt 0.4978 0.6324 0.0000
vt 0.0495 0.6285 0.0000
vt 0.0495 0.6064 0.0000
vt 0.1349 0.6299 0.0000
vt 0.0509 0.6299 0.0000
vt 0.1362 0.6064 0.0000
vt 0.1362 0.6285 0.0000
vt 0.0509 0.6050 0.0000
vt 0.1348 0.6050 0.0000
vt 0.0285 0.9439 0.0000
vt 0.0065 0.9439 0.0000
vt 0.0065 0.9159 0.0000
vt 0.8170 0.9158 0.0000
vt 0.8170 0.9363 0.0000
vt 0.7930 0.9363 0.0000
vt 0.7020 0.9158 0.0000
vt 0.7020 0.9454 0.0000
vt 0.7930 0.9454 0.0000
vt 0.6968 0.9159 0.0000
vt 0.6968 0.9439 0.0000
vt 0.6746 0.9439 0.0000
vt 0.6551 0.9159 0.0000
vt 0.7020 0.8818 0.0000
vt 0.7930 0.8818 0.0000
vt 0.8228 0.8826 0.0000
vt 0.9462 0.8826 0.0000
vt 0.9462 0.9106 0.0000
vt 0.8228 0.9106 0.0000
vt 0.9462 0.9162 0.0000
vt 0.9462 0.9442 0.0000
vt 0.8228 0.9442 0.0000
vt 0.8228 0.9162 0.0000
vt 0.4978 0.8762 0.0000
vt 0.0035 0.8762 0.0000
vt 0.4978 0.8565 0.0000
vt 0.2525 0.9159 0.0000
vt 0.6650 0.8813 0.0000
vt 0.6551 0.9093 0.0000
vt 0.0937 0.7321 0.0000
vt 0.3169 0.7321 0.0000
vt 0.9391 0.6320 0.0000
vt 0.9391 0.8768 0.0000
vt 0.8562 0.8570 0.0000
vt 0.8562 0.6466 0.0000
vt 0.0153 0.9504 0.0000
vt 0.9917 0.9504 0.0000
vt 0.9917 0.9682 0.0000
vt 0.0153 0.9682 0.0000
vt 0.8562 0.6320 0.0000
vt 0.6968 0.9093 0.0000
vt 0.6968 0.8813 0.0000
vt 0.8562 0.8768 0.0000
vt 0.0937 0.7028 0.0000
vt 0.3169 0.7028 0.0000
vt 0.1968 0.7181 0.0000
vt 0.1968 0.7294 0.0000
vt 0.1123 0.7294 0.0000
vt 0.1123 0.7181 0.0000
vt 0.2892 0.7058 0.0000
vt 0.2892 0.7157 0.0000
vt 0.2047 0.7157 0.0000
vt 0.2047 0.7058 0.0000
vt 0.2951 0.7158 0.0000
vt 0.2951 0.7059 0.0000
vt 0.3064 0.7059 0.0000
vt 0.3064 0.7158 0.0000
vt 0.2047 0.7293 0.0000
vt 0.2047 0.7193 0.0000
vt 0.2892 0.7193 0.0000
vt 0.2892 0.7293 0.0000
vt 0.3062 0.7195 0.0000
vt 0.3062 0.7294 0.0000
vt 0.2949 0.7294 0.0000
vt 0.2949 0.7195 0.0000
vt 0.0068 0.5089 0.0000
vt 0.0068 0.5073 0.0000
vt 0.3194 0.5073 0.0000
vt 0.3194 0.5089 0.0000
vt 0.7378 0.5687 0.0000
vt 0.7085 0.2571 0.0000
vt 0.7388 0.2571 0.0000
vt 0.4367 0.6166 0.0000
vt 0.4367 0.6136 0.0000
vt 0.7419 0.6136 0.0000
vt 0.7419 0.6166 0.0000
vt 0.4562 0.3249 0.0000
vt 0.4562 0.3311 0.0000
vt 0.4543 0.3311 0.0000
vt 0.4543 0.3230 0.0000
vt 0.6966 0.2571 0.0000
vt 0.6966 0.5687 0.0000
vt 0.6924 0.5687 0.0000
vt 0.4367 0.6264 0.0000
vt 0.7419 0.6195 0.0000
vt 0.7419 0.6273 0.0000
vt 0.4290 0.6273 0.0000
vt 0.3179 0.5217 0.0000
vt 0.3179 0.5362 0.0000
vt 0.0086 0.5362 0.0000
vt 0.0086 0.5217 0.0000
vt 0.4367 0.5822 0.0000
vt 0.7419 0.6109 0.0000
vt 0.4367 0.6109 0.0000
vt 0.3479 0.5268 0.0000
vt 0.3479 0.4384 0.0000
vt 0.3743 0.4384 0.0000
vt 0.3743 0.5268 0.0000
vt 0.7034 0.2571 0.0000
vt 0.7034 0.5687 0.0000
vt 0.7004 0.5687 0.0000
vt 0.7004 0.2571 0.0000
vt 0.4290 0.6264 0.0000
vt 0.6829 0.2571 0.0000
vt 0.6829 0.5766 0.0000
vt 0.4824 0.5766 0.0000
vt 0.4824 0.2571 0.0000
vt 0.6886 0.5766 0.0000
vt 0.6924 0.5766 0.0000
vt 0.3311 0.5668 0.0000
vt 0.3311 0.5796 0.0000
vt 0.3297 0.5668 0.0000
vt 0.3194 0.5217 0.0000
vt 0.7388 0.5766 0.0000
vt 0.7378 0.5766 0.0000
vt 0.4700 0.4369 0.0000
vt 0.4700 0.5783 0.0000
vt 0.3839 0.5783 0.0000
vt 0.3839 0.4369 0.0000
vt 0.4290 0.5822 0.0000
vt 0.4290 0.5812 0.0000
vt 0.7419 0.5812 0.0000
vt 0.2527 0.5524 0.0000
vt 0.3297 0.5523 0.0000
vt 0.2528 0.5798 0.0000
vt 0.0059 0.5670 0.0000
vt 0.0059 0.5524 0.0000
vt 0.2482 0.5524 0.0000
vt 0.2482 0.5798 0.0000
vt 0.2534 0.5455 0.0000
vt 0.3317 0.5455 0.0000
vt 0.3317 0.5471 0.0000
vt 0.0094 0.5471 0.0000
vt 0.4367 0.6195 0.0000
vt 0.0068 0.5217 0.0000
vt 0.7085 0.5687 0.0000
vt 0.6886 0.2571 0.0000
vt 0.3449 0.5925 0.0000
vt 0.4332 0.5925 0.0000
vt 0.4332 0.6188 0.0000
vt 0.3449 0.6188 0.0000
vt 0.3423 0.5925 0.0000
vt 0.3423 0.6188 0.0000
vt 0.3334 0.6188 0.0000
vt 0.3334 0.5925 0.0000
vt 0.4600 0.3230 0.0000
vt 0.4621 0.3249 0.0000
vt 0.4600 0.2665 0.0000
vt 0.4621 0.2665 0.0000
vt 0.4699 0.3232 0.0000
vt 0.4681 0.3251 0.0000
vt 0.4681 0.2666 0.0000
vt 0.4699 0.2666 0.0000
vt 0.4757 0.3368 0.0000
vt 0.4740 0.3368 0.0000
vt 0.4740 0.3251 0.0000
vt 0.4757 0.3232 0.0000
vt 0.3743 0.5420 0.0000
vt 0.3479 0.5420 0.0000
vt 0.3479 0.5330 0.0000
vt 0.3743 0.5330 0.0000
vt 0.3743 0.5667 0.0000
vt 0.3479 0.5667 0.0000
vt 0.3479 0.5490 0.0000
vt 0.3743 0.5490 0.0000
vt 0.3215 0.5925 0.0000
vt 0.3310 0.5925 0.0000
vt 0.3310 0.6188 0.0000
vt 0.3215 0.6188 0.0000
vt 0.0043 0.5670 0.0000
vt 0.0043 0.5798 0.0000
vt 0.2534 0.5410 0.0000
vt 0.0094 0.5410 0.0000
vt -0.5523 0.4307 0.0000
vt -0.9916 0.4307 0.0000
vt -0.9916 0.2573 0.0000
vt -0.5523 0.2573 0.0000
vt 0.0271 0.0058 0.0000
vt 0.9957 0.1291 0.0000
vt 0.0271 0.2074 0.0000
vt 0.4477 0.3689 0.0000
vt 0.4477 0.4307 0.0000
vt 0.0084 0.4307 0.0000
vt 0.0084 0.2574 0.0000
vt 0.9957 0.0058 0.0000
vt 0.9957 0.2518 0.0000
vt 0.0271 0.2518 0.0000
vt 0.4477 0.2574 0.0000
vt 0.4739 0.3689 0.0000
vt 0.4739 0.4307 0.0000
vt 0.0070 0.2518 0.0000
vt 0.0070 0.2074 0.0000
# 219 texture coords

g default
usemtl lambert15SG
s 1
f 1/1/1 2/2/1 3/3/1 4/4/1 
s 2
f 5/5/2 6/6/2 7/7/2 
f 8/8/2 6/6/2 5/5/2 
s 3
f 9/9/3 10/10/4 11/11/3 12/12/3 
s off
f 13/13/1 14/14/1 15/15/1 16/16/1 
s 1
f 17/17/1 5/18/1 7/19/1 
s off
f 16/16/5 15/15/5 3/20/5 17/21/5 
f 15/15/6 14/14/6 4/22/6 3/23/6 
f 14/14/7 13/13/7 18/24/7 4/25/7 
f 13/13/8 16/16/8 17/26/8 18/27/8 
s 5
f 19/28/9 20/29/9 21/30/9 
s 6
f 20/31/4 19/32/4 22/33/4 8/34/4 
f 6/35/4 8/34/4 22/33/4 23/36/4 
s 5
f 24/37/9 9/38/9 12/39/9 1/40/9 
s 3
f 25/41/4 26/42/4 11/11/3 10/10/4 
s off
f 20/43/10 8/44/10 5/45/10 21/46/10 
f 27/47/11 10/48/11 9/49/11 24/50/11 
s 1
f 2/51/1 21/52/1 3/53/1 
s 5
f 12/39/9 19/28/9 2/54/9 1/40/9 
s 2
f 25/55/2 28/56/2 7/7/2 6/6/2 
s 1
f 21/52/1 29/57/1 30/58/1 3/53/1 
f 27/59/1 24/60/1 4/61/1 18/62/1 
f 7/63/1 28/64/1 18/65/1 17/66/1 
f 27/59/1 18/62/1 28/67/1 
s 2
f 27/68/2 28/56/2 25/55/2 10/69/2 
s 1
f 4/61/1 24/60/1 1/70/1 
s 5
f 2/54/9 19/28/9 21/30/9 
s 1
f 5/18/1 31/71/1 29/57/1 21/52/1 
f 30/58/1 32/72/1 17/17/1 3/53/1 
s off
f 33/73/1 34/74/1 35/75/1 36/76/1 
s 1
f 32/72/1 31/71/1 5/18/1 17/17/1 
s off
f 32/77/9 33/78/9 36/79/9 31/80/9 
f 30/81/10 34/82/10 33/83/10 32/84/10 
f 29/85/2 35/86/2 34/87/2 30/88/2 
f 31/89/11 36/90/11 35/91/11 29/92/11 
f 37/93/4 38/94/4 39/95/4 40/96/4 
s 8
f 41/97/11 26/98/11 25/99/11 
s off
f 42/100/2 43/101/2 23/102/2 22/103/2 
s 9
f 44/104/12 45/105/4 46/106/4 47/107/12 
s 10
f 11/108/13 47/109/11 46/110/13 
s 11
f 48/111/10 22/112/10 19/113/10 49/114/10 
s 12
f 50/115/9 51/116/9 52/117/9 53/118/9 
s 13
f 54/119/10 23/120/10 43/121/10 
s off
f 55/122/13 51/123/13 50/124/13 56/125/13 
f 26/126/2 57/127/2 47/128/2 11/129/2 
s 11
f 48/111/10 49/114/10 58/130/10 
s 5
f 12/131/9 59/132/9 49/133/9 19/134/9 
s 10
f 59/135/13 46/110/13 60/136/13 
s 14
f 48/137/2 58/138/14 61/139/14 
s 12
f 50/115/9 40/96/9 54/140/9 
f 50/115/9 53/118/9 37/93/9 40/96/9 
s 8
f 38/141/11 37/142/11 41/97/11 25/99/11 
s 2
f 38/143/2 25/144/2 6/145/2 39/146/2 
s 13
f 54/119/10 40/147/10 39/148/10 6/149/10 
s 14
f 62/150/14 63/151/14 61/139/14 64/152/14 
s 15
f 45/153/2 65/154/14 66/155/14 67/156/14 
s 16
f 64/157/12 58/158/4 49/159/4 59/160/12 
s off
f 66/155/10 62/150/10 64/152/10 67/156/10 
s 11
f 22/112/10 48/111/10 42/161/10 
s 12
f 41/162/9 37/93/9 53/118/9 
s 8
f 41/97/11 57/163/11 26/98/11 
s 10
f 46/110/13 59/135/13 12/164/13 11/108/13 
s 13
f 54/119/10 6/149/10 23/120/10 
s off
f 68/165/10 53/166/10 52/167/10 69/168/10 
f 68/169/9 69/170/9 70/171/9 44/172/9 
s 9
f 44/104/12 47/107/12 57/173/4 68/174/4 
f 57/173/4 41/175/4 53/176/4 68/174/4 
s 17
f 43/177/15 56/178/15 50/179/3 54/180/3 
f 48/181/15 61/182/15 71/183/15 42/184/15 
s off
f 71/185/9 72/186/9 55/187/9 56/188/9 
f 61/189/11 63/190/11 72/191/11 71/192/11 
s 17
f 43/177/15 42/184/15 71/183/15 56/178/15 
s off
f 45/193/10 44/194/10 70/195/10 65/196/10 
s 15
f 46/197/2 45/153/2 60/198/2 
f 67/156/14 60/198/2 45/153/2 
s 14
f 64/152/14 61/139/14 58/138/14 
s 16
f 67/199/12 64/157/12 59/160/12 60/200/12 
s 18
f 73/201/4 74/202/4 75/203/4 76/204/4 
f 77/205/4 74/206/4 78/207/4 
f 79/208/4 80/209/4 81/210/4 74/211/4 
f 74/206/4 77/205/4 75/212/4 
f 81/213/4 82/214/4 78/207/4 74/206/4 
f 73/215/4 79/208/4 74/211/4 
s off
f 83/216/4 84/217/4 80/209/4 79/208/4 
f 85/218/4 86/219/4 78/207/4 82/214/4 
# 60 polygons - 25 triangles

