# 3ds Max Wavefront OBJ Exporter v0.97b - (c)2007 guruware
# 创建的文件:16.11.2018 20:16:45

mtllib x3750M4_l1.mtl

#
# object default
#

v  -5.4439 21.6715 34.2681
v  -5.4439 21.6715 30.1464
v  -5.4439 22.9810 34.0863
v  -7.1179 21.6715 30.1464
v  -7.1179 21.6715 34.2681
v  -7.1179 22.9810 34.0863
v  -5.8761 22.9810 33.9539
v  -6.6812 22.9810 33.9539
v  -6.7880 22.9810 34.0863
v  -5.7527 22.9810 34.0863
v  -5.4439 29.1050 30.1464
v  -7.1179 29.1050 30.1464
v  -7.1179 29.1050 34.2681
v  -5.4439 29.1050 34.2681
v  -6.6812 22.9810 33.6282
v  -6.6812 24.3021 33.8690
v  -5.8761 22.9810 33.6282
v  -5.8761 28.3729 33.6282
v  -5.8761 27.2273 33.8907
v  -5.8761 28.3729 34.0311
v  -6.7880 28.4683 34.1125
v  -6.6812 28.3729 34.0311
v  -5.7527 28.4683 34.1125
v  -6.6812 28.3729 33.6282
v  -5.4439 27.2273 33.9720
v  -5.4439 25.7156 33.9130
v  -5.4439 28.4683 34.1125
v  -5.7527 27.2273 33.9720
v  -6.7880 24.3021 33.9681
v  -7.1179 24.3021 33.9681
v  -7.1179 25.7156 33.9130
v  -7.1179 27.2273 33.9720
v  -5.7527 24.3021 33.9681
v  -5.8761 24.3021 33.8690
v  -5.4439 24.3021 33.9681
v  -6.6812 25.7156 33.8316
v  -6.6812 27.2273 33.8907
v  -6.7880 27.2273 33.9720
v  -6.7880 25.7156 33.9130
v  -5.7527 25.7156 33.9130
v  -5.8761 25.7156 33.8316
v  -7.1179 28.4683 34.1125
v  -5.5735 22.8751 33.7507
v  -5.5735 28.3923 33.7507
v  -7.0156 28.3923 33.7507
v  -7.0156 22.8751 33.7507
v  -5.7173 24.2894 33.8239
v  -5.7173 24.4038 33.8239
v  -6.7648 24.4038 33.8239
v  -6.7648 24.2894 33.8239
v  -5.7173 24.4428 33.7320
v  -6.7648 24.4428 33.7320
v  -5.7173 24.2505 33.7320
v  -6.7648 24.2505 33.7320
v  -5.7173 26.9067 33.8239
v  -5.7173 27.0210 33.8239
v  -6.7648 27.0210 33.8239
v  -6.7648 26.9067 33.8239
v  -5.7173 27.0600 33.7320
v  -6.7648 27.0600 33.7320
v  -5.7173 26.8677 33.7320
v  -6.7648 26.8677 33.7320
# 62 vertices

vn 1.0000 0.0000 -0.0000
vn -1.0000 0.0000 -0.0000
vn 0.0000 1.0000 0.0000
vn 0.0000 1.0000 -0.0000
vn 0.0000 -1.0000 -0.0000
vn 0.0000 0.1375 0.9905
vn 0.0000 0.1296 0.9916
vn 0.0000 0.1052 0.9944
vn 0.0000 -0.6490 0.7608
vn 0.0000 -0.2075 0.9782
vn 0.0000 -0.1386 0.9903
vn 0.0000 -0.2374 0.9714
vn -0.5203 -0.0998 0.8481
vn -0.5378 -0.0611 0.8409
vn -0.5370 -0.0629 0.8413
vn 0.7339 0.0521 0.6772
vn 0.6912 0.0387 0.7216
vn 0.6933 0.0393 0.7196
vn 0.0000 0.0633 0.9980
vn 0.0000 0.1300 0.9915
vn 0.0000 -0.2063 0.9785
vn -0.6397 0.0419 0.7675
vn -0.6376 0.0413 0.7692
vn -0.6829 0.0560 0.7283
vn 0.6256 -0.0034 0.7802
vn 0.5934 -0.0582 0.8028
vn 0.5926 -0.0601 0.8033
vn 0.6255 -0.0034 0.7802
vn 0.0000 -0.0014 1.0000
vn 0.0000 -0.0723 0.9974
vn -0.5700 -0.0035 0.8216
vn -0.5700 -0.0036 0.8217
vn 0.5758 -0.0956 0.8120
vn 0.0000 -0.0000 1.0000
vn 0.0000 0.0000 1.0000
vn 0.0000 0.9209 0.3899
vn 0.0000 -0.9209 0.3899
# 37 vertex normals

vt 0.9742 0.9053 0.0000
vt 0.9827 0.9053 0.0000
vt 0.9746 0.9079 0.0000
vt 0.9871 0.9053 0.0000
vt 0.9955 0.9053 0.0000
vt 0.9951 0.9079 0.0000
vt 0.5902 0.8312 0.0000
vt 0.5902 0.8502 0.0000
vt 0.5871 0.8527 0.0000
vt 0.5871 0.8283 0.0000
vt 0.9699 0.8986 0.0000
vt 0.9663 0.8986 0.0000
vt 0.9663 0.8898 0.0000
vt 0.9699 0.8898 0.0000
vt 0.9779 0.8898 0.0000
vt 0.9779 0.8986 0.0000
vt 0.9743 0.8986 0.0000
vt 0.9743 0.8898 0.0000
vt 0.5586 0.6317 0.0000
vt 0.5696 0.6754 0.0000
vt 0.5586 0.6754 0.0000
vt 0.5771 0.6871 0.0000
vt 0.5850 0.6869 0.0000
vt 0.5797 0.7195 0.0000
vt 0.5916 0.8312 0.0000
vt 0.5992 0.8312 0.0000
vt 0.5992 0.8502 0.0000
vt 0.5916 0.8502 0.0000
vt 0.5897 0.8191 0.0000
vt 0.5961 0.7911 0.0000
vt 0.5995 0.8191 0.0000
vt 0.5849 0.8527 0.0000
vt 0.5839 0.8502 0.0000
vt 0.5839 0.8312 0.0000
vt 0.5849 0.8283 0.0000
vt 0.5815 0.8312 0.0000
vt 0.5815 0.8502 0.0000
vt 0.5751 0.8502 0.0000
vt 0.5751 0.8312 0.0000
vt 0.9827 0.9204 0.0000
vt 0.9748 0.9166 0.0000
vt 0.9750 0.9135 0.0000
vt 0.6040 0.8579 0.0000
vt 0.6143 0.8579 0.0000
vt 0.6143 0.8774 0.0000
vt 0.5995 0.7991 0.0000
vt 0.5982 0.7797 0.0000
vt 0.6007 0.7797 0.0000
vt 0.6020 0.8007 0.0000
vt 0.5762 0.7063 0.0000
vt 0.5772 0.7295 0.0000
vt 0.5746 0.7295 0.0000
vt 0.5732 0.7063 0.0000
vt 0.5696 0.7194 0.0000
vt 0.5586 0.7194 0.0000
vt 0.9871 0.9204 0.0000
vt 0.9948 0.9135 0.0000
vt 0.9949 0.9166 0.0000
vt 0.6143 0.6317 0.0000
vt 0.6040 0.6754 0.0000
vt 0.6143 0.6754 0.0000
vt 0.5696 0.8579 0.0000
vt 0.5586 0.8774 0.0000
vt 0.6005 0.7305 0.0000
vt 0.5979 0.7305 0.0000
vt 0.5986 0.7083 0.0000
vt 0.6017 0.7082 0.0000
vt 0.6040 0.7194 0.0000
vt 0.6143 0.7194 0.0000
vt 0.9749 0.9106 0.0000
vt 0.5776 0.7544 0.0000
vt 0.5771 0.7809 0.0000
vt 0.5747 0.7809 0.0000
vt 0.5753 0.7544 0.0000
vt 0.5586 0.7665 0.0000
vt 0.5696 0.7665 0.0000
vt 0.5696 0.8168 0.0000
vt 0.5586 0.8168 0.0000
vt 0.6040 0.7665 0.0000
vt 0.6143 0.7665 0.0000
vt 0.5976 0.7543 0.0000
vt 0.6001 0.7543 0.0000
vt 0.5756 0.8012 0.0000
vt 0.5733 0.8028 0.0000
vt 0.5586 0.8579 0.0000
vt 0.9950 0.9191 0.0000
vt 0.6040 0.8168 0.0000
vt 0.6143 0.8168 0.0000
vt 0.9954 0.9204 0.0000
vt 0.9949 0.9106 0.0000
vt 0.9743 0.9204 0.0000
vt 0.9747 0.9191 0.0000
vt 0.5813 0.7542 0.0000
vt 0.5875 0.8193 0.0000
vt 0.5805 0.7913 0.0000
vt 0.5776 0.8195 0.0000
vt 0.5946 0.7541 0.0000
vt 0.5895 0.6872 0.0000
vt 0.5954 0.7195 0.0000
vt 0.5974 0.6872 0.0000
vt -0.0029 0.6458 0.0000
vt -0.0029 0.8544 0.0000
vt -0.0575 0.8544 0.0000
vt -0.0575 0.6458 0.0000
vt 0.0504 0.5867 0.0000
vt 0.0504 0.5917 0.0000
vt 0.0039 0.5917 0.0000
vt 0.0039 0.5867 0.0000
vt 0.0504 0.5961 0.0000
vt 0.0039 0.5961 0.0000
vt 0.0504 0.5822 0.0000
vt 0.0039 0.5822 0.0000
vt 0.0504 0.5866 0.0000
vt 0.0039 0.5866 0.0000
# 114 texture coords

g default
usemtl lambert15SG
s 1
f 1/1/1 2/2/1 3/3/1 
s 2
f 4/4/2 5/5/2 6/6/2 
s 3
f 7/7/3 8/8/3 9/9/3 10/10/3 
s off
f 11/11/4 12/12/4 13/13/4 14/14/4 
f 2/15/5 1/16/5 5/17/5 4/18/5 
s 4
f 5/19/6 9/20/7 6/21/8 
s 5
f 8/22/1 15/23/1 16/24/1 
s 3
f 7/25/3 17/26/4 15/27/4 8/28/3 
s 6
f 18/29/2 19/30/2 20/31/2 
s off
f 21/32/9 22/33/9 20/34/9 23/35/9 
f 20/36/5 22/37/5 24/38/5 18/39/5 
s 1
f 11/40/1 25/41/1 26/42/1 2/2/1 
s 4
f 23/43/10 27/44/11 14/45/12 
s 9
f 20/46/13 19/47/14 28/48/15 23/49/13 
s 10
f 8/50/16 16/51/17 29/52/18 9/53/16 
s 4
f 6/21/8 9/20/7 29/54/19 30/55/19 
s 2
f 12/56/2 4/4/2 31/57/2 32/58/2 
s 4
f 1/59/6 10/60/20 9/20/7 5/19/6 
f 1/59/6 3/61/8 10/60/20 
f 21/62/21 23/43/10 14/45/12 13/63/12 
s 9
f 33/64/22 34/65/23 7/66/24 10/67/24 
s 4
f 33/68/19 10/60/20 3/61/8 35/69/19 
s 1
f 2/2/1 35/70/1 3/3/1 
s 10
f 36/71/25 37/72/26 38/73/27 39/74/28 
s 4
f 31/75/29 39/76/29 38/77/30 32/78/30 
s 10
f 16/51/17 36/71/25 39/74/28 29/52/18 
s 4
f 30/55/19 29/54/19 39/76/29 31/75/29 
f 40/79/29 33/68/19 35/69/19 26/80/29 
s 9
f 41/81/31 34/65/23 33/64/22 40/82/32 
s 10
f 38/73/27 37/72/26 22/83/33 21/84/33 
s 4
f 42/85/11 32/78/30 38/77/30 21/62/21 
s 2
f 12/56/2 32/58/2 42/86/2 
s 9
f 19/47/14 41/81/31 40/82/32 28/48/15 
s 4
f 28/87/30 40/79/29 26/80/29 25/88/30 
f 13/63/12 42/85/11 21/62/21 
s 2
f 12/56/2 42/86/2 13/89/2 
s 4
f 28/87/30 25/88/30 27/44/11 23/43/10 
s 2
f 30/90/2 4/4/2 6/6/2 
f 31/57/2 4/4/2 30/90/2 
s 1
f 35/70/1 2/2/1 26/42/1 
f 14/91/1 27/92/1 11/40/1 
f 25/41/1 11/40/1 27/92/1 
s 5
f 16/24/1 15/23/1 36/93/1 
f 36/93/1 15/23/1 24/94/1 37/95/1 
f 37/95/1 24/94/1 22/96/1 
s 6
f 41/97/2 19/30/2 18/29/2 17/98/2 
f 34/99/2 17/98/2 7/100/2 
f 41/97/2 17/98/2 34/99/2 
s off
f 43/101/34 44/102/34 45/103/34 46/104/34 
f 47/105/35 48/106/35 49/107/35 50/108/35 
f 48/106/36 51/109/36 52/110/36 49/107/36 
f 53/111/37 47/105/37 50/108/37 54/112/37 
f 55/113/35 56/106/35 57/107/35 58/114/35 
f 56/106/36 59/109/36 60/110/36 57/107/36 
f 61/111/37 55/113/37 58/114/37 62/112/37 
# 35 polygons - 20 triangles

